<svg width="120" height="32" viewBox="0 0 120 32" fill="none" xmlns="http://www.w3.org/2000/svg">
<path d="M24.9168 7.06192L30.4503 7.05951L32.6043 15.2476C32.9911 16.7184 33.3407 18.2099 33.7788 19.6661C34.3591 17.6649 34.8282 15.6166 35.3518 13.5995C35.916 11.426 36.5402 9.25227 37.0364 7.06358C38.8762 7.03059 40.7227 7.06312 42.5632 7.06395L42.5636 22.9648L39.011 22.962L39.0116 12.4871C39.0135 11.5381 39.0492 10.5737 38.9989 9.62681C38.4869 11.5127 38.0176 13.4119 37.531 15.3045L35.5618 22.9649C34.3098 22.9582 33.0579 22.958 31.8059 22.9643L29.5997 14.1249L28.8728 11.1947C28.7395 10.6606 28.6315 10.0967 28.4405 9.58019C28.3991 11.1832 28.4287 12.7938 28.4291 14.3975L28.4285 22.9695C27.2593 22.9381 26.0846 22.9607 24.915 22.9628C24.9743 17.6652 24.9187 12.3602 24.9168 7.06192Z" fill="#383433"/>
<path d="M67.6533 10.9021C69.3455 10.6904 71.4345 11.2093 72.7817 12.2531C74.0175 13.2104 74.6896 14.5951 74.8723 16.1247C75.0765 17.8338 74.7422 19.6611 73.6418 21.0272C72.5276 22.4102 70.847 23.0544 69.1163 23.2382C67.2424 23.3637 65.3052 23.0238 63.8112 21.8241C62.587 20.841 61.9219 19.4289 61.766 17.8873C61.5948 16.1928 61.9339 14.4008 63.0483 13.0644C64.1968 11.687 65.9041 11.0637 67.6533 10.9021ZM68.9228 20.623C69.7012 20.4814 70.3477 20.1903 70.8084 19.524C71.4934 18.5337 71.5587 17.062 71.3327 15.9184C71.1791 15.1408 70.8086 14.4017 70.1304 13.9523C69.4517 13.5026 68.6277 13.4318 67.835 13.5102C67.0654 13.6185 66.393 13.895 65.9143 14.5271C65.2176 15.4473 65.1053 16.8073 65.2702 17.9113C65.3974 18.7626 65.7315 19.6001 66.4493 20.1265C67.1699 20.6549 68.0629 20.7018 68.9228 20.623Z" fill="#383433"/>
<path d="M49.0247 10.9021C50.5517 10.778 52.4036 10.912 53.7592 11.656C54.3942 12.0046 54.9238 12.4938 55.1968 13.1726C55.3065 13.4453 55.3587 13.7271 55.3858 14.0186C55.4473 14.6789 55.403 15.3746 55.4022 16.0385L55.4012 19.814C55.4016 20.4653 55.3423 21.1994 55.541 21.8277C55.6514 22.1773 55.8602 22.3376 56.1762 22.494L56.1846 22.9666C54.9106 22.9331 53.63 22.96 52.3553 22.9606C52.1892 22.5006 52.0868 22.0509 52.0302 21.5657C51.7961 21.7686 51.5609 21.9696 51.3117 22.1543C50.0251 23.1076 48.3428 23.4381 46.7662 23.2051C45.7101 23.0491 44.7484 22.5895 44.1048 21.7266C44.0472 21.6425 43.9943 21.5556 43.946 21.466C43.5266 20.6907 43.4276 19.6871 43.6914 18.845C44.3142 16.8578 46.8579 16.104 48.7186 15.877C49.5799 15.7719 50.7176 15.8185 51.4885 15.3945C51.6916 15.2827 51.8496 15.1172 51.9049 14.8889C51.9704 14.6184 51.9007 14.2862 51.7541 14.0524C51.538 13.708 51.1516 13.5359 50.7669 13.4483C49.9884 13.271 48.8206 13.2388 48.1272 13.6968C47.6568 14.0075 47.4958 14.4654 47.3954 14.9892L43.9715 14.9847C44.1102 14.0496 44.3554 13.1613 44.9969 12.4356C46.0051 11.2952 47.5699 10.9924 49.0247 10.9021ZM47.5636 20.6897C48.1825 21.1 48.8667 21.1184 49.5776 20.9763C50.3536 20.8211 51.1764 20.4289 51.617 19.7481C51.6501 19.6963 51.6806 19.6429 51.7086 19.5882C51.7366 19.5334 51.7619 19.4775 51.7846 19.4204C51.8073 19.3633 51.8272 19.3053 51.8444 19.2463C51.8616 19.1873 51.876 19.1277 51.8876 19.0674C51.9443 18.7746 51.9827 17.6006 51.9207 17.3119C51.9119 17.2709 51.9173 17.2808 51.8936 17.2598C51.4561 17.4688 51.0265 17.5921 50.5502 17.6851C49.5086 17.8884 47.6234 17.8982 47.1851 19.0742C47.0336 19.4807 47.0521 19.9132 47.2503 20.2997C47.3296 20.4542 47.4399 20.5696 47.5636 20.6897Z" fill="#383433"/>
<path d="M57.0439 11.1795C58.2274 11.1665 59.4118 11.176 60.5954 11.179L60.5983 20.0452L60.5982 22.9061C60.5982 23.4996 60.6183 24.1026 60.5706 24.6943C60.5288 25.2147 60.449 25.7283 60.2037 26.1957C59.8435 26.8817 59.2841 27.1794 58.5705 27.4052C57.5198 27.6814 56.4424 27.6856 55.3639 27.7006C55.3723 26.8747 55.3715 26.0489 55.3613 25.223C55.7876 25.2297 56.5115 25.2427 56.834 24.9243C56.9918 24.7685 57.0111 24.4972 57.0293 24.2866C57.073 23.7783 57.046 23.2492 57.0461 22.7384L57.045 19.9835L57.0439 11.1795Z" fill="#EB8919"/>
<path d="M82.5028 10.9014C82.9051 10.8546 83.3274 10.8863 83.7315 10.9038L83.732 14.0612C83.3806 14.035 83.0263 14.0081 82.6738 14.0094C81.7866 14.0127 80.734 14.1626 80.0872 14.8285C79.7682 15.157 79.5787 15.574 79.4861 16.0175C79.3112 16.8552 79.4004 17.8138 79.4008 18.6683L79.4037 22.9496L75.8556 22.9476L75.8555 22.2961L75.8569 11.1805L79.2853 11.179L79.2789 13.2742C79.5056 12.9333 79.7306 12.5843 79.9871 12.265C80.6531 11.436 81.4483 11.0234 82.5028 10.9014Z" fill="#383433"/>
<path d="M87.7922 4.61312C88.3616 4.5854 88.9279 4.63006 89.3835 5.01831C89.4023 5.03427 89.4206 5.05072 89.4385 5.06764C89.4564 5.08451 89.4739 5.10185 89.4909 5.11968C89.5079 5.13745 89.5245 5.15563 89.5406 5.17421C89.5567 5.19283 89.5723 5.21184 89.5875 5.23122C89.6026 5.2506 89.6172 5.27035 89.6314 5.29049C89.6455 5.31062 89.6591 5.33111 89.6722 5.35194C89.6853 5.37273 89.6978 5.39384 89.7098 5.41528C89.7219 5.43672 89.7333 5.45846 89.7442 5.48051C89.7551 5.50255 89.7654 5.52481 89.7752 5.54731C89.785 5.56985 89.7942 5.59262 89.8028 5.61562C89.8114 5.63867 89.8195 5.66189 89.8269 5.68528C89.8343 5.70868 89.8412 5.73225 89.8474 5.756C89.8536 5.77975 89.8592 5.80363 89.8642 5.82763C89.8693 5.85168 89.8737 5.87583 89.8774 5.90008C89.8812 5.92433 89.8844 5.94866 89.8869 5.97306C89.8895 5.99746 89.8914 6.02191 89.8927 6.04641C89.9204 6.51931 89.7545 6.95846 89.4254 7.30024C88.5092 8.25183 86.7869 8.26553 85.5498 8.27713C85.5487 8.4203 85.5451 8.56611 85.5583 8.70883C85.5934 9.08683 85.7073 9.48238 86.02 9.72617C86.5724 10.1568 87.5746 9.88659 88.159 9.65055C88.3383 9.57818 88.5371 9.44178 88.728 9.41844L88.7937 9.4753C88.9417 9.66245 89.0695 9.86505 89.2017 10.0634C88.6322 10.4426 87.9672 10.6476 87.2897 10.7272C86.5688 10.8119 85.7809 10.7642 85.1964 10.2852C84.7821 9.94571 84.561 9.4506 84.5058 8.92837C84.3931 7.86389 84.7295 6.68718 85.4191 5.86227C86.0306 5.13097 86.8421 4.70462 87.7922 4.61312ZM85.6952 7.53725C86.0383 7.52934 86.394 7.52686 86.7342 7.48054C87.4035 7.42082 88.2374 7.30415 88.686 6.74623C88.8434 6.55049 88.9368 6.29804 88.9104 6.04581C88.8899 5.84947 88.7852 5.67956 88.6256 5.56343C88.3817 5.38591 88.0959 5.33846 87.8 5.34645C87.185 5.42425 86.6868 5.65546 86.2987 6.14982C85.9775 6.55892 85.8009 7.03408 85.6952 7.53725Z" fill="#EB8919"/>
<path d="M57.0503 6.91992C58.2328 6.92655 59.4153 6.9272 60.5978 6.92188L60.5994 9.79789C59.4184 9.77334 58.2364 9.81574 57.0554 9.79216C57.03 8.83651 57.0391 7.8758 57.0503 6.91992Z" fill="#EB8919"/>
<path d="M90.2385 4.02739C90.5966 4.00848 90.9592 4.01526 91.318 4.01074C91.7948 4.7086 92.3855 5.36857 92.9167 6.0284C92.745 6.28055 91.4712 7.91049 91.2739 8.04538C90.8979 8.05457 90.5264 8.05404 90.1504 8.03973C90.681 7.37561 91.2722 6.73078 91.7584 6.03601C91.4286 5.57079 91.0542 5.1293 90.6913 4.68887C90.5283 4.49117 90.3227 4.28933 90.1885 4.07287L90.2385 4.02739Z" fill="#EB8919"/>
<path d="M92.3643 4.0242C92.735 4.01615 93.1031 4.01185 93.4739 4.02503C94.0673 4.62061 94.6011 5.36923 95.1145 6.03659C94.8912 6.35509 94.6206 6.65559 94.3754 6.95813C94.0876 7.31293 93.813 7.68837 93.4944 8.01636C93.1178 8.05809 92.7433 8.05312 92.365 8.05229C92.8266 7.34539 93.4493 6.68979 93.9729 6.02318C93.655 5.63193 92.5403 4.37788 92.3643 4.0242Z" fill="#EB8919"/>
</svg>
