<svg width="120" height="40" viewBox="0 0 120 40" fill="none" xmlns="http://www.w3.org/2000/svg">
<path d="M45.2282 9.27952C46.2536 9.23028 47.2929 9.26205 48.3198 9.26187L51.6693 9.26266C53.6966 9.26412 56.6637 9.09276 58.1957 10.6451C59.1913 11.6538 59.488 13.276 59.4691 14.6408C59.4127 18.7061 56.5023 24.6068 53.5988 27.417C50.3961 30.5167 47.6705 30.4772 43.549 30.5082C41.701 30.5221 39.8482 30.5445 38.0005 30.5123C38.187 29.8641 38.4331 29.2228 38.6479 28.5827C38.8706 27.9189 39.0522 27.1676 39.3902 26.5545C39.5329 26.2957 39.7027 26.1122 39.9245 25.9212C40.2415 25.7207 40.5511 25.5801 40.9191 25.499C41.7032 25.3263 42.5336 25.3737 43.3317 25.3744L46.0687 25.3781C46.7703 25.379 47.473 25.4038 48.1524 25.1967C48.8529 24.9833 49.4548 24.5858 49.9925 24.0956C51.7404 22.5026 53.364 18.9868 53.4669 16.6101C53.4928 16.0125 53.4621 15.3166 53.0222 14.8606C52.8165 14.6473 52.5436 14.5129 52.2567 14.4478C51.5737 14.2927 49.6903 14.3875 48.9193 14.3901L47.6345 18.313C47.3655 19.1226 47.1291 19.9725 46.7623 20.7425C46.5536 21.1807 46.2955 21.6139 45.9309 21.9411C45.6656 22.1791 45.3745 22.2925 45.0313 22.3649C44.3284 22.5131 43.5533 22.4538 42.8363 22.4534C42.1431 22.453 41.444 22.4697 40.7518 22.4336C41.0969 21.3431 41.4915 20.2637 41.8602 19.1805C42.983 15.8823 44.1504 12.5924 45.2282 9.27952Z" fill="#00B43D"/>
<path d="M91.4539 9.26203C92.78 9.22971 94.1104 9.24972 95.4371 9.24948C96.3097 9.2493 97.2132 9.20145 98.0809 9.28289C94.6143 12.3622 91.2047 15.5132 87.7738 18.6326C88.6512 20.9995 89.5153 23.3806 90.3382 25.7668L92.0512 30.4996L89.0878 30.5017C88.5554 30.5019 87.9842 30.5425 87.4573 30.4657C87.2323 30.4329 87.028 30.367 86.8303 30.2536C86.4828 30.0539 86.2257 29.7717 86.0262 29.4272C85.3574 28.2738 85.0263 26.8362 84.6267 25.5666C84.2314 24.3099 83.8124 23.057 83.4498 21.7906C83.0295 22.0658 81.2754 23.511 81.0434 23.8581C80.7595 24.2829 80.509 25.2674 80.3246 25.7944L78.6868 30.4945L73.2349 30.4962C73.492 29.6214 73.8296 28.7524 74.1279 27.8896L75.8188 22.9938L80.4076 9.69183C80.4576 9.55006 80.4984 9.35984 80.6047 9.25118C82.4036 9.24374 84.2023 9.24685 86.0008 9.26052C85.6479 10.3897 85.2434 11.5068 84.8608 12.6265L82.8592 18.462C84.7783 16.2046 86.8721 14.0891 88.8956 11.9242L90.4697 10.2415C90.7693 9.92219 91.0876 9.49852 91.4539 9.26203Z" fill="#00B43D"/>
<path d="M35.3081 9.25202C36.1438 9.25141 42.6208 9.18574 42.8454 9.29228C42.8629 9.39755 42.8401 9.48007 42.8116 9.58085C42.6693 10.0838 42.4508 10.5934 42.2809 11.0912C41.9041 12.195 41.5714 13.7126 40.3638 14.2013C39.7488 14.4502 39.0376 14.3898 38.3886 14.3893L34.7047 14.3841C33.7247 14.3826 32.8798 14.3539 31.9975 14.8541C30.1904 15.8785 28.9822 18.2006 28.4464 20.1498C28.1 21.4096 27.8667 23.0769 28.559 24.2684C28.8334 24.7407 29.2626 25.0629 29.7823 25.2209C30.2862 25.3741 30.8187 25.3521 31.3394 25.3513C32.4991 25.3496 34.2665 25.2257 35.3303 25.5184C35.8547 25.6626 36.3374 25.9081 36.6031 26.4077C36.9543 27.068 36.6324 27.8058 36.4253 28.4552C36.1506 29.1042 35.9838 29.8082 35.7502 30.474L35.6936 30.4777C34.4469 30.5541 33.1499 30.5022 31.8999 30.4853C30.3392 30.4641 28.7122 30.5661 27.1881 30.1882C26.1347 29.927 25.1257 29.4327 24.3154 28.7052C23.0609 27.5791 22.36 25.9602 22.2853 24.2885C22.1131 20.4391 23.8356 16.0208 26.4219 13.1873C28.8417 10.536 31.7738 9.41289 35.3081 9.25202Z" fill="#00B43D"/>
<path d="M65.8104 9.28796C66.2633 9.23024 66.7573 9.26116 67.2139 9.26153L69.754 9.26474L77.8698 9.26898C77.7004 9.93236 77.4647 10.5858 77.2646 11.241C77.0876 11.8206 76.9466 12.4427 76.7068 12.9979C76.66 13.1087 76.6047 13.2152 76.541 13.3172C76.4774 13.4193 76.406 13.5157 76.327 13.6064C75.8145 14.1839 75.0578 14.3535 74.3188 14.3929C72.8927 14.458 71.4525 14.4176 70.0248 14.4175L62.1719 14.4237C62.3351 13.7805 62.5541 13.1483 62.7456 12.5128C62.9265 11.9125 63.0794 11.2789 63.318 10.7C63.4044 10.4903 63.5161 10.2891 63.6608 10.1138C64.1967 9.4643 65.026 9.3577 65.8104 9.28796Z" fill="#00B43D"/>
<path d="M60.5028 25.3572C61.206 25.3268 61.9159 25.348 62.62 25.3483L66.426 25.3483L70.0742 25.3484C70.8372 25.3483 71.6048 25.3296 72.367 25.3664C72.2014 26.0473 71.969 26.7151 71.7656 27.3858C71.5943 27.9503 71.4507 28.5555 71.2201 29.0985C71.1782 29.2001 71.1287 29.2978 71.0715 29.3917C71.0144 29.4855 70.9503 29.5744 70.8793 29.6584C70.3267 30.3017 69.4836 30.4392 68.6839 30.4957C64.6894 30.5454 60.6845 30.5102 56.6895 30.494C56.8476 29.8198 57.0961 29.1425 57.2993 28.4796C57.471 27.9195 57.6067 27.3139 57.8384 26.7765C57.9383 26.5446 58.0621 26.333 58.2333 26.1453C58.8238 25.4982 59.6778 25.403 60.5028 25.3572Z" fill="#00B43D"/>
<path d="M63.0039 17.3215C63.4019 17.2589 63.8657 17.2983 64.2693 17.299L66.7387 17.3033L75.168 17.3061C74.9937 17.9799 74.7675 18.6385 74.567 19.3047C74.3958 19.8732 74.2536 20.4782 74.026 21.0259C73.9356 21.2432 73.8148 21.4518 73.6613 21.6305C73.1768 22.1946 72.4489 22.3567 71.7418 22.4214C71.119 22.4712 70.483 22.4489 69.8584 22.4491L66.7944 22.4496C64.3597 22.45 61.908 22.5124 59.4756 22.4348C59.7586 21.5298 60.482 18.7511 60.9571 18.1588C61.4666 17.5236 62.2445 17.3998 63.0039 17.3215Z" fill="#00B43D"/>
</svg>
