<svg width="120" height="40" viewBox="0 0 120 40" fill="none" xmlns="http://www.w3.org/2000/svg">
<g clip-path="url(#clip0_30280_2530)">
<path d="M20.0153 9.44629L42.0122 9.45349L42.0091 29.0522C39.6521 29.112 37.2786 29.0644 34.9204 29.0681L34.9178 22.1704L34.9193 15.0234C32.3103 14.9856 29.6956 15.0195 27.0861 15.0229L27.0872 29.0564C24.7266 29.1019 22.3554 29.0631 19.9937 29.0647C19.9914 22.5378 19.8287 15.968 20.0153 9.44629Z" fill="#1C2173"/>
<path d="M52.2382 9.00879C56.1312 8.84301 60.1702 8.96518 64.0324 9.47628C64.8784 10.2318 65.4251 14.7319 65.5425 15.9026C65.6318 16.8368 65.6819 17.7732 65.6929 18.7116C65.7041 19.65 65.6762 20.5872 65.6092 21.5232C65.5421 22.4594 65.4362 23.391 65.2912 24.3182C65.1465 25.2453 64.9634 26.1648 64.7419 27.0765C64.599 27.6702 64.4467 28.564 64.0574 29.0432C63.148 29.2783 62.0482 29.2658 61.1088 29.3366C55.5553 29.7542 50.0281 29.4887 44.4844 29.0614C44.7548 27.3014 45.1286 25.5435 45.4853 23.7989C46.6361 23.8876 47.7879 23.9604 48.9406 24.017C52.103 24.1393 55.5907 24.4167 58.7247 23.8353C58.7872 23.7658 58.8369 23.6943 58.8728 23.607C59.0773 23.1113 59.137 22.2867 58.9173 21.7939C55.9898 21.7435 53.053 21.7918 50.1245 21.7924L50.1227 16.7259L59.0113 16.7274C59.0377 16.6798 59.061 16.631 59.0765 16.5787C59.2321 16.0547 59.0217 15.1725 58.7709 14.7048C54.2767 14.2622 49.9617 14.4688 45.4654 14.7131L44.4663 9.4762C47.0479 9.23716 49.6486 9.13403 52.2382 9.00879Z" fill="#1C2173"/>
<path d="M83.5365 9.4375C86.2524 9.46409 88.9683 9.46429 91.684 9.4381C91.6827 9.46585 91.6827 9.50251 91.6752 9.5307C91.5612 9.9519 84.3138 18.3101 83.7479 18.6549C83.7846 18.6744 83.8206 18.6947 83.8552 18.7181C84.4257 19.103 88.6948 24.3949 88.7845 24.8742C88.8685 24.9204 88.9517 24.9738 89.0264 25.0338C89.4822 25.4008 92.0581 28.5307 92.117 29.044C89.2412 29.116 86.3518 29.0635 83.4744 29.0651C83.4744 29.0268 83.4716 28.9902 83.4641 28.9527C83.3966 28.6136 78.3586 22.0839 77.8509 21.7138L75.3246 21.7221C75.3835 21.8189 75.4329 21.9198 75.458 22.0308C75.6343 22.8099 75.6102 28.5528 75.2913 29.0534C72.9715 29.1223 70.6275 29.0661 68.3057 29.0705C68.8221 28.1817 68.3168 12.1084 68.5094 9.44567L75.2913 9.45474C75.3586 9.56283 75.4091 9.67839 75.4427 9.80141C75.6314 10.4902 75.5867 16.0508 75.3127 16.5212L77.953 16.5295C78.4017 16.2336 83.4517 9.83285 83.5365 9.4375Z" fill="#1C2173"/>
<path d="M96.6565 9.33803C98.1933 9.31052 99.7176 9.32199 101.249 9.46922C101.31 9.56822 101.36 9.67692 101.385 9.7909C101.548 10.5102 101.56 15.0155 101.237 15.5414L98.9362 15.5425L94.3345 15.5428C94.3836 15.4711 94.4231 15.3953 94.4441 15.3102C94.6124 14.6295 94.6441 9.98058 94.343 9.44957L96.6565 9.33803Z" fill="#EF1949"/>
<path d="M94.4079 23.3562C95.8821 23.0832 99.568 23.2889 101.254 23.2933C101.271 23.3224 101.273 23.3248 101.286 23.3521C101.291 23.3638 101.296 23.3757 101.301 23.3874C101.559 23.9645 101.5 28.196 101.344 28.8838L101.028 29.0341C99.2951 29.5412 96.1515 29.1771 94.3335 29.0744C94.3438 29.0564 94.3539 29.0382 94.363 29.0198C94.6522 28.4336 94.6083 23.9536 94.4079 23.3562Z" fill="#EF1949"/>
</g>
<defs>
<clipPath id="clip0_30280_2530">
<rect width="120" height="38.1818" fill="white" transform="translate(0 0.90918)"/>
</clipPath>
</defs>
</svg>
