<svg width="120" height="60" viewBox="0 0 120 60" fill="none" xmlns="http://www.w3.org/2000/svg">
<path d="M67.9318 20.5684C68.1968 20.8765 68.4044 21.3509 68.611 21.7049L70.2006 24.4331C72.1852 27.8396 74.228 31.2253 76.1554 34.6628C76.2145 34.7682 76.2562 34.8368 76.2542 34.9615L71.8588 34.9625C71.4408 34.1602 70.9437 33.3816 70.488 32.5988L67.9541 28.2569C67.7401 28.4039 64.437 34.233 64.0124 34.9656L59.5449 34.9618L67.9318 20.5684Z" fill="#EAAE31"/>
<path d="M58.8021 4.89551C59.0864 5.2226 59.3112 5.73065 59.531 6.10888L61.139 8.8762L67.2086 19.2944C66.7042 20.1463 66.2102 21.0042 65.7268 21.868L64.9436 20.9708C63.8009 19.7212 62.7084 18.4165 61.594 17.1414L55.6357 10.3164C56.7443 8.5478 57.7524 6.70015 58.8021 4.89551Z" fill="#EAAE31"/>
<path d="M44.4645 29.5205C46.0439 29.8522 47.6373 30.132 49.223 30.4337L59.5634 32.4059C59.12 33.2772 58.5756 34.1199 58.0822 34.9657L56.4291 34.9633L41.293 34.9632L44.4645 29.5205Z" fill="#EAAE31"/>
<path d="M51.4873 17.4629C51.9214 17.7451 52.3369 18.0859 52.7549 18.3938L55.3132 20.2771L63.2408 26.1061C62.8462 26.7917 62.448 27.4752 62.0462 28.1567L60.9773 27.6904C56.8327 25.9887 52.728 24.1624 48.6143 22.3871L51.4873 17.4629Z" fill="#EAAE31"/>
<path d="M47.9867 23.4688C49.1582 24.0381 50.393 24.5169 51.5911 25.0306L57.8964 27.7338C59.0669 28.2357 60.25 28.7182 61.4065 29.2505C61.0514 29.9334 60.6202 30.5818 60.2529 31.2601L58.9121 31.0083C57.3198 30.6685 55.7078 30.3928 54.1081 30.0881L45.123 28.3797L47.9867 23.4688Z" fill="#EAAE31"/>
<path d="M54.9689 11.4785C55.3736 11.8891 55.7429 12.3548 56.1225 12.7892L58.2921 15.2736L65.0483 23.004C64.6714 23.6864 64.2532 24.346 63.8824 25.0325L62.9352 24.3284L52.1221 16.3729C53.0346 14.7251 54.0176 13.1052 54.9689 11.4785Z" fill="#EAAE31"/>
<path d="M40.9053 38.916C41.888 40.5733 42.8557 42.2475 43.7979 43.9277L44.5391 43.9238V46.5029H43.3799L43.3828 45.0361L40.9307 45.0342L37.4443 45.0361L37.4453 46.5029H36.2881L36.29 43.9238L37.0234 43.9258L39.918 38.918L40.9053 38.916ZM38.4619 43.9248L40.4365 43.9229L42.3008 43.9248C41.9846 43.3952 40.6489 40.9185 40.3486 40.6494L38.4619 43.9248Z" fill="#EAAE31"/>
<path d="M58.9547 39.9255C59.7465 39.8076 60.7032 39.9552 61.3649 40.4128C61.9067 40.7875 62.2416 41.364 62.3493 42.0056C62.4625 42.6817 62.3511 43.4253 61.9411 43.989C61.4545 44.6576 60.6974 44.9364 59.9059 45.0642C59.8949 45.0659 59.8837 45.0677 59.8727 45.0691C59.0434 45.1714 58.0992 45.0398 57.4186 44.5339C56.8897 44.1409 56.5711 43.5591 56.4811 42.9138C56.3846 42.2221 56.5306 41.4916 56.9655 40.9324C57.4625 40.2934 58.1716 40.0311 58.9547 39.9255ZM59.0543 41.0329C58.6208 41.1248 58.2418 41.2802 57.987 41.6599C57.7578 42.0013 57.7003 42.4425 57.7858 42.8396C57.8664 43.2141 58.0828 43.5393 58.4108 43.7449C58.8504 44.0202 59.3647 44.0338 59.8639 43.9558C60.2971 43.8512 60.6529 43.6758 60.8922 43.2859C61.1141 42.9244 61.1552 42.4471 61.0465 42.0427C60.9538 41.6981 60.7415 41.4093 60.4274 41.2322C59.9975 40.9898 59.5302 41.0125 59.0543 41.0329Z" fill="#EAAE31"/>
<path d="M65.8621 40.0163C66.297 40.0157 66.7543 39.9908 67.1854 40.0515C67.5294 40.0999 67.8965 40.238 68.1043 40.529C68.2752 40.7685 68.303 41.1099 68.2557 41.3943C68.2008 41.7249 67.9897 41.8896 67.7332 42.072C67.8168 42.1122 67.8995 42.1543 67.9813 42.198C68.0197 42.2189 68.0574 42.2418 68.0936 42.2663C68.1299 42.291 68.1654 42.3173 68.199 42.3454C68.2327 42.3736 68.2641 42.404 68.2948 42.4353C68.3253 42.4665 68.3545 42.4989 68.3817 42.5329C68.409 42.5671 68.4351 42.6026 68.4588 42.6394C68.4825 42.676 68.5044 42.7138 68.5242 42.7526C68.5441 42.7916 68.5621 42.8321 68.578 42.8728C68.5938 42.9133 68.6073 42.9549 68.619 42.9968C68.7577 43.4798 68.651 43.9818 68.411 44.4128C68.3738 44.4585 68.3346 44.5 68.2928 44.5417C68.0571 44.7773 67.7673 44.8986 67.4432 44.9685C66.6263 45.1441 64.4809 45.0372 63.5047 45.0359L63.5018 41.5935C63.5017 41.118 63.435 40.5213 63.5233 40.0593L63.6434 40.0222L65.8621 40.0163ZM67.1131 42.9626C66.6371 42.771 65.2809 42.8981 64.7059 42.8952V43.9743C65.3079 43.9754 66.86 44.0976 67.3045 43.8405C67.3908 43.6632 67.4733 43.4352 67.4071 43.238C67.3616 43.1033 67.2416 43.0144 67.1131 42.9626ZM66.7362 41.1159C66.2727 40.9538 65.2383 41.0832 64.7049 41.0769L64.7059 41.9665C65.1772 41.9681 66.5512 42.0814 66.8924 41.8874C66.9071 41.879 66.9229 41.8708 66.9373 41.862C66.9457 41.8568 66.9536 41.851 66.9617 41.8454C67.0219 41.6838 67.0954 41.5075 67.0194 41.3376C66.9662 41.219 66.8542 41.1572 66.7362 41.1159Z" fill="#EAAE31"/>
<path d="M71.059 40.0303L71.058 41.8203C71.8839 41.8141 73.5226 41.6274 74.1391 42.1807C74.4352 42.4465 74.5428 42.825 74.558 43.21C74.5811 43.7993 74.4703 44.2053 74.0629 44.6387C73.8584 44.7872 73.6646 44.8928 73.4174 44.9541C72.6193 45.1516 70.7204 45.0368 69.849 45.0352C69.8386 44.4694 69.7976 40.2441 69.8705 40.0586L69.9779 40.0215L71.059 40.0303ZM73.058 42.9219C72.5594 42.7208 71.6129 42.857 71.058 42.8496V43.9736C71.6337 43.9767 72.7226 44.0921 73.2162 43.8721C73.3172 43.687 73.423 43.4205 73.3519 43.209C73.3044 43.0673 73.1944 42.977 73.058 42.9219Z" fill="#EAAE31"/>
<path d="M55.7922 47.4678L56.8086 47.4745C56.8071 49.1355 56.8679 50.8179 56.7976 52.4761L55.592 52.4765L55.5956 49.2284C54.5896 50.2754 53.6506 51.4018 52.6748 52.4783L51.6597 52.477L51.6582 47.4726L52.871 47.4733L52.8642 50.691C53.876 49.6557 54.8122 48.5344 55.7922 47.4678Z" fill="#EAAE31"/>
<path d="M64.6234 47.4731L65.837 47.4738L65.8355 50.7178C66.8131 49.6605 67.7302 48.5431 68.6933 47.4717L69.7589 47.4728L69.7615 50.7431C69.762 51.3138 69.7955 51.9084 69.7412 52.4761L68.5521 52.4768L68.5589 49.194C67.568 50.2722 66.6149 51.3875 65.6361 52.477L64.623 52.4767L64.6234 47.4731Z" fill="#EAAE31"/>
<path d="M75.1482 47.4707L76.1893 47.4735C76.2029 47.4937 76.2091 47.5019 76.2208 47.5256C76.277 47.6393 76.3316 52.2285 76.2531 52.4045C76.2337 52.448 76.1323 52.4623 76.0869 52.4764L74.9975 52.4763C75.0256 52.427 75.045 52.3927 75.0572 52.3369C75.1318 51.9939 75.1115 49.8094 75.0664 49.4044C75.0578 49.3262 75.0272 49.2603 74.9829 49.1957C74.9465 49.4495 72.531 52.055 72.1494 52.4783L71.1348 52.4753L71.1358 47.4747L72.3505 47.4733L72.3488 50.7172C72.7329 50.2985 75.0496 47.7613 75.1482 47.4707Z" fill="#EAAE31"/>
<path d="M58.1719 47.4727L59.3809 47.4735L59.3801 49.4147L62.0451 49.4099L62.0375 47.4731L63.2448 47.4731L63.243 52.4767L62.0337 52.4761L62.0413 50.5155L59.3818 50.5143C59.3698 51.1676 59.3809 51.8231 59.3822 52.4767L58.1753 52.4766L58.1719 47.4727Z" fill="#EAAE31"/>
<path d="M52.6178 40.0205L53.4861 40.0245L56.3844 45.0359L54.8896 45.0351L53.1645 42.0726C53.1063 41.9634 53.0482 41.8662 52.9693 41.7703C52.7466 41.9584 51.345 44.5267 51.0505 45.037L49.6279 45.0357C49.936 44.4795 52.3623 40.1683 52.5194 40.0524C52.5471 40.0319 52.585 40.0311 52.6178 40.0205Z" fill="#EAAE31"/>
<path d="M47.3037 47.4697L48.2713 47.47L51.1724 52.4753L49.6665 52.4764C49.1221 51.4816 48.5263 50.508 47.9565 49.5268L47.7426 49.1748L45.8361 52.4787L44.4043 52.4748C45.427 50.849 46.3454 49.1352 47.3037 47.4697Z" fill="#EAAE31"/>
<path d="M75.3041 40.0225L76.3155 40.0268C76.354 40.0946 76.372 40.1529 76.3766 40.2313C76.4002 40.6229 76.4264 44.8061 76.3598 44.9413C76.3423 44.9769 76.3067 45.0002 76.2801 45.0296C75.8968 45.0506 75.5036 45.0345 75.1191 45.0359C75.2917 44.7221 75.1861 41.621 75.1839 41.0543C75.1827 40.7582 75.1195 40.3383 75.204 40.0611L75.3041 40.0225Z" fill="#EAAE31"/>
<path d="M77.9035 40.0225L83.3173 40.0285C83.3224 40.0599 83.3259 40.0675 83.3189 40.1033C83.2793 40.3059 83.0366 40.6648 82.8788 40.7948C82.8785 40.8137 82.88 40.8329 82.8778 40.8517C82.8653 40.9593 82.7809 41.0493 82.7059 41.1197L77.6787 41.1177C77.8481 40.7892 77.6292 40.3514 77.7943 40.0466L77.9035 40.0225Z" fill="#EAAE31"/>
<path d="M45.488 40.0205L51.0285 40.0284L50.5902 40.7833L50.3911 41.1199L45.4017 41.118C45.3984 40.7863 45.3699 40.4329 45.4143 40.1043C45.4211 40.0535 45.4486 40.0501 45.488 40.0205Z" fill="#EAAE31"/>
<path d="M77.7222 41.9816C79.1974 41.8875 80.722 41.9627 82.2023 41.9685C82.2033 41.9779 82.2055 41.9873 82.2052 41.9966C82.2005 42.1899 81.9218 42.5733 81.775 42.6957C81.7761 42.7052 81.7783 42.7146 81.7782 42.7241C81.7756 42.8646 81.6637 42.9844 81.5653 43.0721C80.2689 43.0552 78.9704 43.0689 77.6738 43.0681C77.8152 42.828 77.7722 42.2579 77.7222 41.9816Z" fill="#EAAE31"/>
<path d="M45.4027 41.9639L49.9138 41.9692L49.4624 42.7316L49.2668 43.0723L45.4004 43.0699L45.4027 41.9639Z" fill="#EAAE31"/>
<path d="M77.7231 43.9421C78.6251 43.8391 80.0806 43.9222 81.0385 43.9237C81.0417 43.9508 81.045 43.9645 81.0429 43.9905C81.0257 44.2013 80.7855 44.5478 80.6331 44.6886C80.634 44.6968 80.636 44.7049 80.636 44.713C80.6349 44.8405 80.5343 44.9565 80.4444 45.0365L77.6816 45.0349C77.8154 44.8141 77.7688 44.2004 77.7231 43.9421Z" fill="#EAAE31"/>
<path d="M45.4026 43.9238L48.7709 43.9243L48.3703 44.6275L48.143 45.0367L45.4014 45.0353L45.4026 43.9238Z" fill="#EAAE31"/>
</svg>
