<svg width="60" height="60" viewBox="0 0 60 60" fill="none" xmlns="http://www.w3.org/2000/svg">
<path d="M26.7931 6.5H27.44C27.8136 6.77754 27.9513 6.96371 28.0276 7.4421C28.1749 8.3663 28.0452 9.72303 28.0293 10.6974C28.024 11.0243 27.9771 11.4008 28.0486 11.7202C28.0901 11.906 28.1644 12.0232 28.3148 12.1376C28.85 12.5446 29.6372 12.9814 30.2592 13.218C30.9832 12.9006 31.6612 12.4075 32.3517 12.0175C32.4368 10.7933 32.2176 8.12737 32.4649 7.17186C32.5257 6.93626 32.6232 6.7824 32.8023 6.62371C32.8505 6.58034 32.9004 6.5391 32.9519 6.5H33.599C34.1326 6.86385 34.7161 7.13915 35.2414 7.52177C36.7586 8.62683 37.9043 10.4645 38.2677 12.3243C38.7427 14.7562 38.167 16.6947 36.8499 18.7023L36.6627 18.9852C36.8388 19.7047 37.0236 20.4326 37.6968 20.8364C39.1435 21.7042 41.4884 19.8452 43.4529 20.5592C43.7574 20.6699 45.7186 21.8622 45.615 22.6403C45.574 22.9488 45.2178 23.3533 44.9099 23.3533C44.5573 23.3533 44.2047 22.9968 43.3056 22.4371C42.9894 22.2402 42.7094 22.2225 42.3791 22.2209C41.5209 22.2167 40.6349 22.584 39.8008 22.7784C37.834 23.2369 36.1741 22.5862 35.2852 20.6743C35.2339 20.563 35.1832 20.4514 35.1331 20.3394C35.0081 20.575 34.8685 20.8175 34.8076 21.08C34.5585 22.153 34.7207 24.6575 34.7159 25.8928C36.712 27.0334 38.4079 29.03 39.0382 31.299C39.7504 33.8624 39.5923 36.3542 38.3025 38.7074C38.2271 38.845 38.1483 38.9807 38.0663 39.1144C37.9842 39.2481 37.8991 39.3796 37.8109 39.5089C37.7227 39.6383 37.6315 39.7655 37.5371 39.8904C37.4428 40.0153 37.3455 40.1377 37.2453 40.2578C37.1452 40.3778 37.0422 40.4952 36.9365 40.6101C36.8307 40.7249 36.7222 40.8371 36.6111 40.9466C36.5 41.0561 36.3863 41.1627 36.27 41.2666C36.1538 41.3703 36.0352 41.4711 35.9141 41.5689C35.7932 41.6668 35.6699 41.7616 35.5442 41.8534C35.4187 41.9451 35.2911 42.0336 35.1614 42.1189C35.0316 42.2044 34.8998 42.2865 34.7661 42.3652C34.6325 42.4441 34.497 42.5195 34.3596 42.5914C34.2224 42.6635 34.0835 42.7321 33.9429 42.7971C33.8023 42.8622 33.6603 42.9238 33.5168 42.9819C33.3732 43.0399 33.2284 43.0942 33.0823 43.145C32.9362 43.1957 32.789 43.2428 32.6407 43.2864C32.4972 43.3272 32.3529 43.3644 32.2077 43.3978C32.0623 43.4313 31.9163 43.461 31.7695 43.4871C31.623 43.5134 31.4758 43.5358 31.3279 43.5545C31.1801 43.5732 31.0319 43.5881 30.8834 43.5993C30.7349 43.6105 30.5863 43.6178 30.4374 43.6214C30.2885 43.6252 30.1396 43.6252 29.9907 43.6214C29.8418 43.6175 29.6931 43.6099 29.5446 43.5986C29.3961 43.5873 29.248 43.5722 29.1002 43.5533C28.9524 43.5345 28.8052 43.5119 28.6585 43.4855C28.5118 43.4592 28.3659 43.4293 28.2206 43.3957C28.0754 43.3621 27.931 43.3248 27.7876 43.2838C27.6442 43.2429 27.5018 43.1984 27.3605 43.1501C27.2193 43.1021 27.0792 43.0504 26.9404 42.9951C26.8016 42.9399 26.6643 42.8813 26.5283 42.8191C26.3924 42.757 26.258 42.6915 26.1252 42.6225C25.9925 42.5536 25.8614 42.4813 25.7321 42.4057C25.5968 42.3276 25.4634 42.2462 25.332 42.1614C25.2005 42.0764 25.0712 41.9882 24.9441 41.8969C24.8169 41.8055 24.692 41.7109 24.5694 41.6132C24.4468 41.5155 24.3266 41.4148 24.2089 41.3111C24.0911 41.2073 23.976 41.1006 23.8634 40.9911C23.7508 40.8815 23.6409 40.7691 23.5338 40.6541C23.4266 40.539 23.3223 40.4211 23.2208 40.3006C23.1193 40.1803 23.0208 40.0575 22.9252 39.9321C22.8297 39.8067 22.7372 39.6791 22.6478 39.5492C22.5585 39.4191 22.4723 39.2869 22.3893 39.1526C22.3063 39.0181 22.2266 38.8816 22.1502 38.7432C22.0737 38.6048 22.0007 38.4646 21.9311 38.3226C21.8614 38.1804 21.7953 38.0367 21.7326 37.8913C21.6699 37.7459 21.6107 37.5989 21.5551 37.4504C21.4995 37.3021 21.4475 37.1524 21.3992 37.0013C21.3508 36.8503 21.3061 36.6982 21.265 36.5448C21.2268 36.3978 21.1921 36.2499 21.1609 36.1011C21.1298 35.9523 21.1022 35.8029 21.0781 35.6529C21.0541 35.5027 21.0337 35.352 21.0169 35.2009C21 35.0498 20.9868 34.8983 20.9772 34.7463C20.9676 34.5946 20.9617 34.4427 20.9594 34.2906C20.957 34.1384 20.9583 33.9862 20.9633 33.8341C20.9682 33.6822 20.9768 33.5304 20.989 33.3786C21.0012 33.227 21.017 33.0758 21.0365 32.925C21.0559 32.7742 21.0789 32.6239 21.1055 32.4742C21.1321 32.3245 21.1623 32.1756 21.1961 32.0274C21.2298 31.8793 21.267 31.7321 21.3078 31.5858C21.3486 31.4394 21.3928 31.2941 21.4405 31.1501C21.4883 31.006 21.5394 30.8632 21.5939 30.7217C21.6485 30.5801 21.7063 30.44 21.7676 30.3013C21.8288 30.1627 21.8933 30.0257 21.9611 29.8902C22.0289 29.7548 22.0999 29.6211 22.174 29.4892C23.0337 27.9467 24.2397 26.7706 25.7309 25.8754C25.7106 24.6772 25.8695 22.0773 25.6288 21.0958C25.5635 20.8298 25.4266 20.593 25.2833 20.3641C24.8576 21.3704 24.1917 22.2747 23.1644 22.6884C20.8724 23.6113 18.3121 21.2932 16.8855 22.73C16.2563 23.3638 15.8419 24.3744 15.4107 25.158C14.9294 26.0327 14.3437 26.8793 13.9501 27.7988C13.7623 28.2375 13.73 28.6531 13.9054 29.1064C14.5254 30.7082 16.4962 31.2901 16.9427 33.4941C17.0839 34.1912 17.0038 34.8701 16.7363 35.5256C16.0067 37.3142 13.1772 38.5865 13.9584 40.5337C14.3777 41.5788 15.0783 42.5898 15.6368 43.5672C15.9858 44.1778 16.2779 44.8654 16.7147 45.4143C16.9107 45.6605 17.1538 45.8587 17.443 45.9789C19.1221 46.6778 21.2997 44.3774 23.7268 45.941C24.3487 46.3416 24.8179 46.9236 25.1104 47.6108C25.5875 48.7315 25.7347 51.0982 26.9436 51.5964C27.5533 51.8478 32.0256 51.8271 32.7412 51.7606C32.9996 51.7366 33.2556 51.6869 33.4932 51.577C33.9924 51.3461 34.314 50.9021 34.4974 50.3875C35.1202 48.6408 35.137 46.6743 37.014 45.7628C39.489 44.561 42.0671 47.0612 43.5446 45.6139C44.0973 45.0726 44.461 44.1625 44.842 43.4859C45.4025 42.4903 46.1534 41.4379 46.5392 40.3596C46.6908 39.9354 46.6678 39.5136 46.4781 39.1054C46.2308 38.5736 45.7948 38.1579 45.3967 37.7438C44.0853 36.3792 42.9332 35.0254 43.6244 32.9834C44.2132 31.2434 46.2142 30.3993 46.6003 28.8275C46.6699 28.5437 46.6457 28.2045 46.6447 27.9119C46.8448 27.6331 45.9676 25.4922 46.6727 25.1357C47.1539 24.8925 47.4889 25.1259 47.7305 25.4922C48.4356 26.5617 48.4477 28.5905 48.3959 29.0007C48.3777 29.1492 48.3505 29.296 48.3143 29.4411C48.2779 29.5861 48.2327 29.7282 48.1788 29.8674C48.125 30.0066 48.0628 30.1418 47.9921 30.273C47.9214 30.404 47.8429 30.53 47.7565 30.651C46.8084 32.0078 44.2132 33.4401 45.6777 35.3765C46.9153 37.0128 48.6817 37.8011 48.3986 40.2248C48.3521 40.624 48.2417 41.0024 48.0852 41.3703C47.7282 42.2111 47.1898 43.0196 46.742 43.8147C46.2792 44.6369 45.8519 45.5328 45.3128 46.3039C45.078 46.6399 44.8143 46.9446 44.4949 47.1989C43.6802 47.8469 42.7463 48.0434 41.7329 47.9119C40.5077 47.7527 38.6374 46.7193 37.5397 47.6025C36.3032 48.5975 36.692 51.2052 35.1559 52.6627C34.5666 53.2219 33.96 53.2499 33.4412 53.6303H26.9968C26.6342 53.4377 26.245 53.3039 25.8854 53.0977C24.5003 52.3033 24.2122 51.036 23.8323 49.5749C23.6981 49.0584 23.5807 48.5166 23.293 48.0625C22.0726 46.1375 19.4799 48.3569 17.3403 47.8808C16.2821 47.6454 15.5124 46.9644 14.9466 46.052C14.426 45.2123 13.9571 44.3286 13.4706 43.4676C12.4627 41.6844 11.3435 40.0377 12.4734 37.9521C12.8381 37.2791 13.4869 36.7166 14.0106 36.1716C14.4662 35.6974 14.9982 35.2023 15.1375 34.5246C15.47 32.9073 13.3358 31.7093 12.5598 30.515C12.0334 29.7051 11.9061 28.643 12.0981 27.7001C12.2917 26.749 14.5624 22.7718 15.2149 21.8797C15.4653 21.5373 15.7794 21.1829 16.1327 20.9489C17.8331 19.8226 19.4087 20.6661 21.137 21.0254C21.7106 21.1447 22.2871 21.1413 22.7908 20.7919C23.4224 20.3539 23.6185 19.6523 23.7578 18.9273C23.6153 18.7443 23.4724 18.5601 23.3416 18.3682C22.1752 16.6567 21.7764 14.5496 22.1332 12.5046C22.4599 10.6318 23.5615 8.69969 25.0821 7.57165C25.6282 7.16652 26.2436 6.89083 26.7931 6.5ZM30.2355 15.2816C29.5366 15.0729 27.1943 13.7062 26.5873 13.2103C26.4455 13.0944 26.3454 12.9586 26.2503 12.8018C26.2295 12.1229 26.3279 9.4857 26.1977 9.12007L26.1509 9.08116C24.8701 10.2096 23.9522 11.6243 23.8245 13.3902C23.707 15.0157 24.1604 16.575 25.2167 17.812C25.9545 18.6761 26.9594 19.2697 27.3289 20.4141C27.6837 21.5126 27.5098 26.0876 27.51 27.5423L27.5145 41.2746C28.1066 41.4685 28.6902 41.6387 29.3019 41.7591C29.3835 40.06 29.3344 38.3419 29.3341 36.6403L29.3326 27.7623C29.3322 26.2825 29.2261 24.2985 29.3525 22.8696C29.3756 22.6085 29.4056 22.338 29.6057 22.152C29.8005 21.9709 30.0785 21.9196 30.3337 21.9362C30.5321 21.9492 30.7181 22.0249 30.8506 22.1801C31.0113 22.3681 31.0719 22.6182 31.0977 22.8608C31.1862 23.6951 31.1 24.6265 31.1002 25.4733L31.1 31.4496L31.0991 37.9309C31.0993 39.202 31.0657 40.4842 31.127 41.7539C31.7412 41.638 32.33 41.4735 32.9277 41.2894L32.9263 27.1526L32.9207 23.458C32.9182 22.6133 32.856 21.7209 32.997 20.8875C33.1173 20.1757 33.4575 19.5764 33.9526 19.0669C34.3273 18.6811 34.7472 18.3386 35.1068 17.9379C35.1679 17.8701 35.2275 17.8008 35.2854 17.7302C35.3433 17.6595 35.3996 17.5875 35.4543 17.5141C35.5089 17.4408 35.5618 17.3661 35.6131 17.2902C35.6643 17.2143 35.7137 17.1373 35.7613 17.059C35.8091 16.9807 35.8551 16.9014 35.8992 16.8209C35.9431 16.7405 35.9853 16.659 36.0257 16.5765C36.0659 16.494 36.1044 16.4106 36.1409 16.3263C36.1775 16.242 36.2121 16.1569 36.2446 16.0709C36.2772 15.9849 36.3079 15.8982 36.3366 15.8108C36.3652 15.7233 36.3918 15.6353 36.4163 15.5465C36.4411 15.4578 36.4637 15.3686 36.4841 15.2788C36.5047 15.189 36.5231 15.0988 36.5394 15.0081C36.5558 14.9174 36.5702 14.8264 36.5825 14.735C36.5946 14.6437 36.6048 14.552 36.6129 14.4602C36.6209 14.3684 36.6268 14.2764 36.6307 14.1842C36.6345 14.0921 36.6362 13.9999 36.6357 13.9077C36.6383 12.2557 35.9584 10.7475 34.8224 9.58878C34.6168 9.38274 34.4055 9.18307 34.1886 8.98977C34.1934 9.71329 34.3836 12.6448 33.9431 13.1031C33.4928 13.5716 30.8633 15.1173 30.2355 15.2816ZM34.7028 28.1384C34.7634 30.5748 34.7148 33.0235 34.7134 35.4611C34.7127 37.0449 34.7952 38.6791 34.6979 40.2578C35.2626 39.7693 35.8187 39.2473 36.2386 38.6195C37.4141 36.9181 37.8916 34.9101 37.5466 32.8498C37.2746 31.2243 36.2877 29.2414 34.9284 28.2684C34.8583 28.2182 34.7832 28.169 34.7028 28.1384ZM25.6066 28.1618C23.9808 29.554 22.9984 31.3301 22.8067 33.5049C22.7959 33.6235 22.7879 33.7423 22.7827 33.8612C22.7774 33.9803 22.7749 34.0994 22.7752 34.2185C22.7754 34.3376 22.7784 34.4566 22.7842 34.5755C22.7899 34.6944 22.7985 34.8132 22.8097 34.9318C22.821 35.0503 22.835 35.1684 22.8517 35.2862C22.8685 35.4042 22.8879 35.5216 22.9101 35.6385C22.9323 35.7554 22.9572 35.8717 22.9847 35.9875C23.0123 36.1032 23.0425 36.2181 23.0754 36.3323C23.1083 36.4467 23.1438 36.5601 23.182 36.6726C23.2201 36.785 23.2608 36.8966 23.3042 37.0072C23.3475 37.1178 23.3933 37.2272 23.4417 37.3354C23.4901 37.4438 23.5409 37.551 23.5943 37.6569C23.6476 37.7628 23.7034 37.8673 23.7615 37.9705C23.8197 38.0736 23.8803 38.1752 23.9431 38.2755C24.006 38.3757 24.0712 38.4743 24.1387 38.5714C24.2061 38.6685 24.2758 38.764 24.3477 38.8578C24.7511 39.3776 25.2047 39.8456 25.727 40.242C25.6737 37.2914 25.7191 34.3325 25.7208 31.3812C25.7212 30.7565 25.8274 28.6591 25.6787 28.2023L25.6066 28.1618Z" fill="#EE021B"/>
</svg>
