<svg width="60" height="60" viewBox="0 0 60 60" fill="none" xmlns="http://www.w3.org/2000/svg">
<g clip-path="url(#clip0_28012_8352)">
<path d="M20.494 12.887C21.9929 12.8386 23.5035 12.8772 25.0041 12.8774L33.4161 12.879L39.3067 12.8754C40.3766 12.8734 41.4789 12.8204 42.5448 12.887C42.8999 12.9091 43.3945 12.9619 43.682 13.1845C43.8311 13.2998 43.8818 13.4321 43.896 13.6185C43.9134 13.8484 43.8603 14.0753 43.7058 14.2515C43.4891 14.4983 43.2381 14.5261 42.9283 14.5445C38.3364 14.6493 33.7197 14.5527 29.1252 14.5519L23.7184 14.5546C22.6924 14.5595 21.6331 14.6165 20.6104 14.5545C20.2847 14.5348 19.9194 14.4803 19.6502 14.2843C19.5051 14.1786 19.3944 14.0333 19.3717 13.8519C19.3426 13.6191 19.4747 13.3565 19.6206 13.1826C19.8507 12.9082 20.1639 12.9113 20.494 12.887Z" fill="#E53935"/>
<path d="M15.6881 7.06207C18.0508 7.00122 20.4257 7.049 22.7896 7.04907L36.0679 7.05006L43.6131 7.04792C44.8984 7.04385 46.2635 6.93758 47.537 7.05523C47.7918 7.07878 48.0165 7.25805 48.2169 7.40767C49.2943 8.21252 50.6004 9.71097 51.5976 10.7072C52.9124 12.0205 54.3376 13.2947 55.5738 14.6754C55.7435 14.8652 56.0228 15.1594 56.0576 15.4171C56.1611 16.1795 56.1056 16.975 56.1035 17.7439L56.0962 21.6227L56.0954 34.9343L56.0962 51.4781L56.1056 56.2113C56.1078 57.1484 56.1721 58.1376 56.0437 59.0656C56.0211 59.2287 55.9782 59.5402 55.8782 59.6661C55.7237 59.8603 55.1733 59.918 54.9317 59.9418C53.7486 60.0584 52.4948 59.9715 51.3026 59.9707L44.259 59.9669L34.4831 59.9696C32.8964 59.9696 31.2595 60.0509 29.6793 59.9624C29.3791 59.9455 29.0583 59.887 28.8229 59.687C28.6627 59.5509 28.5996 59.3982 28.5885 59.1889C28.5762 58.9566 28.6413 58.6681 28.808 58.4956C28.9782 58.3194 29.3635 58.3101 29.5969 58.2919C31.0536 58.1788 32.5772 58.266 34.04 58.2665L42.6095 58.271C46.5325 58.2705 50.4784 58.1817 54.3996 58.2769C54.3639 56.9593 54.4057 55.6279 54.4079 54.3089L54.4049 46.6724L54.4001 16.3869C52.3529 16.3455 50.3129 16.3608 48.266 16.3753C47.851 16.3782 47.3409 16.3786 47.0314 16.06C46.8557 15.8793 46.7839 15.6207 46.7541 15.3773C46.6677 14.6734 46.7538 13.8833 46.7578 13.1688C46.7645 11.7065 46.7623 10.2442 46.7514 8.78194C45.0842 8.89006 43.2631 8.78153 41.5758 8.78078L30.8779 8.77889L21.3852 8.78023C19.8019 8.7811 18.158 8.88993 16.5839 8.75907C16.5533 11.0744 16.7586 24.0443 16.4347 24.8354C16.3676 24.9995 16.2511 25.1084 16.0864 25.1744C15.8749 25.2593 15.5887 25.2677 15.3783 25.1745C15.2038 25.0972 15.0966 24.9173 15.0294 24.7471C14.9372 24.5135 14.904 24.2431 14.8934 23.9928C14.8567 23.1229 14.9034 22.2404 14.908 21.3689L14.9056 16.8249C14.903 14.0183 14.7953 11.1711 14.899 8.36853C14.9092 8.09418 14.9215 7.75974 15.0391 7.50756C15.1684 7.23025 15.4194 7.15397 15.6881 7.06207ZM48.4478 10.0274L48.4215 14.6323C49.9559 14.6797 51.5 14.6016 53.0301 14.6811C53.0277 14.6411 53.0344 14.5473 53.0199 14.5143C52.9191 14.2824 49.1419 10.5795 48.6605 10.1566C48.5956 10.0995 48.5269 10.0615 48.4478 10.0274Z" fill="#E53935"/>
<path d="M3.99767 26.2528C5.40847 26.1925 6.8333 26.2359 8.24621 26.2368L15.9625 26.2409L22.3838 26.2373C23.5541 26.2344 24.7509 26.181 25.9187 26.2438C26.2369 26.2609 26.65 26.3089 26.9223 26.4814C27.1046 26.5969 27.1488 26.7495 27.1872 26.9527C27.3421 27.7736 27.2132 28.7896 27.2148 29.6347L27.2171 36.4621L27.2175 51.464C27.2178 53.9005 27.2715 56.3466 27.2227 58.7818C27.2172 59.0609 27.2021 59.37 27.0372 59.6066C26.8631 59.8563 26.5773 59.9109 26.2963 59.9646L11.6712 59.9713L6.7117 59.9702C5.85505 59.9694 4.97832 60.0093 4.12516 59.9539C3.87085 59.9376 3.59286 59.8935 3.37917 59.7464C3.22475 59.6403 3.11939 59.4793 3.09093 59.2943C2.91582 58.1556 3.04733 56.8624 3.04836 55.7063L3.04982 48.2473L3.05138 33.4245L3.05406 29.0411C3.0524 28.4857 3.00222 27.9222 3.01996 27.3687C3.02859 27.0996 3.08502 26.7937 3.25151 26.5743C3.44092 26.3248 3.70851 26.2938 3.99767 26.2528ZM5.81278 27.9274C5.44346 27.934 5.07203 27.9486 4.70319 27.9265C4.75751 29.4709 4.71172 31.0299 4.71024 32.5758L4.71062 40.9704C4.71151 46.7239 4.81947 52.4957 4.69746 58.2457C11.3374 58.3334 17.9823 58.2422 24.6231 58.2711C24.9327 58.2714 25.2438 58.265 25.5531 58.2727L25.5572 38.4222C25.5572 34.9346 25.4914 31.4336 25.5749 27.9476C22.7503 27.8438 19.8979 27.9222 17.07 27.9245C13.3188 27.9276 9.5634 27.8803 5.81278 27.9274Z" fill="#E53935"/>
<path d="M13.3209 52.2449C14.3064 52.2326 16.3128 52.0436 17.1892 52.3516C17.3376 52.4037 17.456 52.4598 17.5239 52.608C17.8155 53.2427 17.794 56.1725 17.5376 56.8048C17.4413 57.042 17.3029 57.1243 17.0748 57.2259C16.2601 57.3168 13.6703 57.4016 12.9562 57.1246C12.8695 57.0401 12.8253 56.9529 12.7891 56.838C12.5775 56.1677 12.4988 53.155 12.814 52.581C12.9313 52.3673 13.0951 52.3066 13.3209 52.2449ZM14.3449 53.8809L14.3125 55.5575C14.8731 55.5567 15.4317 55.5581 15.9918 55.5835C15.9736 55.0382 15.9752 54.493 15.9966 53.9477C15.4661 53.9424 14.8625 53.9932 14.3449 53.8809Z" fill="#E53935"/>
<path d="M19.1528 52.2493C20.0675 52.2057 22.3185 52.0565 23.1114 52.3755C23.2514 52.4319 23.358 52.4958 23.4154 52.6401C23.6697 53.28 23.7054 56.1817 23.4029 56.8276C23.2866 57.076 23.1342 57.1458 22.8846 57.2418C22.071 57.3017 19.5152 57.4137 18.8781 57.1399C18.7731 57.0947 18.7161 56.9883 18.6765 56.8843C18.4237 56.2199 18.3927 53.1907 18.6839 52.5907C18.7869 52.3787 18.9375 52.3209 19.1528 52.2493ZM20.213 53.8762L20.1851 55.5592C20.6502 55.5651 21.4259 55.6742 21.8493 55.5504C21.8579 55.0133 21.8568 54.474 21.8801 53.9374C21.3386 53.9337 20.7446 53.9778 20.213 53.8762Z" fill="#E53935"/>
<path d="M13.3598 40.3506C14.2294 40.3185 16.5825 40.1624 17.2868 40.4958C17.4217 40.5594 17.4833 40.6132 17.5333 40.7538C17.776 41.4364 17.8186 44.3381 17.5168 44.9619C17.4015 45.2001 17.2342 45.2664 16.9934 45.3509C16.0222 45.4683 14.8603 45.4413 13.8813 45.3972C13.583 45.3838 13.0594 45.3565 12.8476 45.1271C12.5507 44.3788 12.5352 41.3268 12.8054 40.6185C12.939 40.4632 13.1706 40.4135 13.3598 40.3506ZM14.3959 42.0262C14.2218 42.4532 14.3093 43.2104 14.2987 43.6833L15.9972 43.6876C15.984 43.1424 15.9843 42.5972 15.9981 42.0521C15.4722 42.0487 14.9177 42.0816 14.3959 42.0262Z" fill="#E53935"/>
<path d="M7.42575 52.2478C8.21572 52.2184 10.6545 52.0823 11.2948 52.3333C11.482 52.4069 11.5826 52.5149 11.6617 52.7002C11.9397 53.3517 11.9415 56.1636 11.6587 56.8133C11.5531 57.0558 11.415 57.1315 11.1753 57.228C10.4374 57.3005 7.66311 57.4021 7.11391 57.1267C6.98755 57.0636 6.92399 56.8975 6.88413 56.7689C6.67351 56.0904 6.62462 53.1392 6.94432 52.5694C7.06024 52.3627 7.20491 52.3103 7.42575 52.2478ZM8.45915 53.8937L8.43013 55.5495C8.99087 55.558 9.55372 55.5564 10.1139 55.5821L10.1172 53.9407C9.58178 53.9397 8.98459 53.9918 8.45915 53.8937Z" fill="#E53935"/>
<path d="M19.2527 40.3493C20.1814 40.3223 22.3068 40.1571 23.1039 40.4804C23.2422 40.5365 23.3491 40.6023 23.4082 40.744C23.6649 41.3608 23.696 44.3727 23.405 45.0074C23.3107 45.213 23.0219 45.2945 22.8245 45.3651C22.0667 45.4368 19.5631 45.5205 18.9224 45.256C18.8021 45.2063 18.7247 45.1539 18.6768 45.0323C18.4553 44.4687 18.4053 41.1718 18.6786 40.6325C18.7632 40.4657 19.0824 40.4082 19.2527 40.3493ZM20.2434 42.0172C20.1543 42.5564 20.1844 43.135 20.1762 43.6813L21.8544 43.6922C21.875 43.1457 21.8722 42.5982 21.8822 42.0514C21.3464 42.0471 20.7738 42.0843 20.2434 42.0172Z" fill="#E53935"/>
<path d="M13.3116 46.3061C14.2176 46.2585 16.4059 46.1133 17.1818 46.4037C17.3406 46.463 17.4431 46.5066 17.5149 46.6705C17.8014 47.3231 17.7911 50.2134 17.5433 50.8417C17.4363 51.1131 17.2764 51.1866 17.0171 51.3029C16.1755 51.3991 13.6577 51.49 12.9563 51.166C12.8769 51.1294 12.8318 51.0767 12.803 50.9919C12.5722 50.3142 12.5061 47.2191 12.8174 46.6267C12.9312 46.4098 13.089 46.3705 13.3116 46.3061ZM14.3632 47.9584C14.3313 48.5088 14.312 49.0597 14.3053 49.611C14.8716 49.6142 15.4378 49.6203 16.004 49.6294C15.9729 49.0808 15.9797 48.5421 15.9978 47.9934C15.453 47.9779 14.9081 47.9662 14.3632 47.9584Z" fill="#E53935"/>
<path d="M7.4552 40.3495C8.33545 40.3166 10.6829 40.1578 11.4033 40.4973C11.556 40.5692 11.6143 40.6462 11.6675 40.8026C11.9031 41.497 11.9605 44.3621 11.6323 44.9741C11.5018 45.2174 11.338 45.2743 11.0821 45.3543C10.2451 45.4513 7.77134 45.5329 7.0681 45.2142C6.99681 45.13 6.9518 45.0449 6.91696 44.9404C6.68454 44.2428 6.61405 41.3334 6.93003 40.7088C7.04841 40.4749 7.21419 40.4294 7.4552 40.3495ZM8.45067 42.0427C8.44035 42.587 8.44156 43.1343 8.41565 43.6782C8.98086 43.679 9.56778 43.7108 10.1306 43.6758C10.1086 43.1317 10.1093 42.5929 10.1202 42.0488C9.56403 42.0475 9.00667 42.0534 8.45067 42.0427Z" fill="#E53935"/>
<path d="M19.2156 46.3039C20.1423 46.2595 22.2951 46.1133 23.0988 46.416C23.2107 46.4582 23.3435 46.5218 23.3928 46.6371C23.6749 47.2959 23.6876 50.2155 23.4168 50.8534C23.2991 51.1307 23.1161 51.2098 22.8467 51.3173C21.9652 51.3932 19.5029 51.5012 18.7739 51.1427C18.7248 51.0882 18.6976 51.0398 18.6762 50.97C18.4535 50.2428 18.3525 47.2079 18.7118 46.5887C18.8289 46.3871 19.0027 46.3569 19.2156 46.3039ZM20.2415 47.9557C20.1907 48.5062 20.1905 49.0594 20.1826 49.6118L21.8367 49.6297C21.8907 49.0872 21.8512 48.5383 21.8853 47.9942C21.3375 47.9741 20.7896 47.9612 20.2415 47.9557Z" fill="#E53935"/>
<path d="M7.48412 46.3036C8.40637 46.2496 10.3931 46.1212 11.2122 46.3734C11.3882 46.4274 11.551 46.4717 11.6345 46.649C11.9433 47.3043 11.9535 50.1429 11.6728 50.8293C11.5522 51.1242 11.3703 51.1953 11.093 51.3145C10.1856 51.3846 7.79856 51.5153 7.03412 51.1509C6.93982 51.0549 6.91397 50.9434 6.88243 50.817C6.70042 50.0868 6.58423 47.172 6.96082 46.5776C7.08734 46.3779 7.26363 46.349 7.48412 46.3036ZM8.47503 47.961C8.44936 48.5087 8.43082 49.0566 8.41943 49.6047C8.97937 49.6095 9.57015 49.6515 10.1269 49.6133C10.1129 49.0705 10.1091 48.5278 10.1156 47.985L8.47503 47.961Z" fill="#E53935"/>
<path d="M7.38274 29.3217C10.1792 29.2198 13.0027 29.3044 15.8027 29.3059C17.9565 29.307 20.2221 29.2096 22.359 29.299C22.6102 29.3096 22.8902 29.3442 23.1219 29.4437C23.261 29.5034 23.3684 29.5826 23.4222 29.7247C23.6357 30.2886 23.6469 37.9021 23.425 38.3884C23.3147 38.6299 23.1425 38.705 22.9046 38.7975C22.439 38.847 21.9589 38.8341 21.4909 38.8352L12.3318 38.8299C10.7635 38.8309 9.06767 38.9571 7.51044 38.79C7.27466 38.7649 7.0867 38.724 6.91362 38.5523C6.67747 37.9278 6.67717 30.1582 6.87302 29.7246C6.98188 29.4835 7.14479 29.415 7.38274 29.3217ZM8.47335 30.9844C8.38983 31.6708 8.42531 32.3865 8.4258 33.0779C8.42671 34.4274 8.45227 35.7808 8.41719 37.1297L17.2273 37.1366C18.7344 37.1361 20.3265 37.0313 21.8246 37.1655C21.9607 36.492 21.8837 35.6846 21.8831 34.9934L21.8741 31.0015C18.8719 31.0656 15.8601 31.0091 12.8568 31.0103C11.5618 31.0109 9.68435 31.1631 8.47335 30.9844Z" fill="#E53935"/>
<path d="M32.9527 29.2319H49.2157C49.4447 29.3889 49.6751 29.5292 49.7304 29.8227C49.819 30.2923 49.7706 30.8281 49.7693 31.3069L49.7643 33.8463L49.7659 38.5577C49.7662 39.3659 49.803 40.1924 49.7589 40.9982L51.6746 41.0054C52.1219 41.0045 52.6197 40.9583 53.0578 41.0395C53.2102 41.0677 53.3594 41.139 53.4695 41.2488C53.561 41.34 53.6378 41.4535 53.706 41.5625V42.0066C53.2457 42.7073 52.1769 43.6459 51.5441 44.2753L47.6231 48.1845L43.5367 52.2589C42.9444 52.8493 41.9738 53.9354 41.3203 54.3643H40.8657C40.1076 53.8206 39.255 52.8511 38.5823 52.1797L34.4715 48.0813L30.5591 44.1834C29.972 43.6007 28.9474 42.6956 28.4946 42.0474V41.5575C28.574 41.4435 28.6569 41.307 28.7587 41.2123C28.8648 41.1135 28.9915 41.063 29.1326 41.0375C29.5351 40.9645 29.9873 41.0013 30.3963 41.0022C31.0703 41.001 31.7443 41.0054 32.4182 41.0154L32.4339 33.2733L32.4302 31.1847C32.4285 30.7425 32.3923 30.2673 32.4647 29.8309C32.5137 29.5358 32.7252 29.3945 32.9527 29.2319ZM41.1154 52.435C42.3195 51.3109 43.4599 50.1025 44.6275 48.9396L51.0181 42.5767C50.4249 42.6017 48.8296 42.7319 48.3974 42.3479C48.2283 42.1979 48.2009 41.9739 48.1923 41.7619C48.1463 40.6207 48.1898 39.4637 48.1904 38.3204L48.1861 30.8285C47.0029 30.8572 45.8148 30.8351 44.6312 30.8346L38.0931 30.833L35.4173 30.836C34.9909 30.8368 34.4572 30.9035 34.0482 30.8037C33.9302 31.2724 34.0104 32.3646 34.0112 32.9165L34.0073 39.245C34.0077 39.8481 34.0852 41.5137 33.968 42.0154C33.9297 42.1795 33.7903 42.365 33.6455 42.4555C33.2863 42.6799 31.6277 42.6103 31.1681 42.5614L38.3583 49.7368L40.1263 51.5027C40.4271 51.8029 40.7567 52.207 41.1154 52.435Z" fill="#E53935"/>
<path d="M44.9162 33.9519C45.0564 33.941 45.1942 33.953 45.3255 34.0063C45.52 34.0851 45.6888 34.2424 45.7691 34.4368C45.8494 34.631 45.8388 34.8603 45.7536 35.0516C45.6937 35.1859 45.5489 35.3239 45.4483 35.4291C43.9896 36.9557 42.4505 38.4202 40.9551 39.9118L38.8582 42.0024C38.4805 42.3789 38.1106 42.7762 37.713 43.1316C37.5844 43.2466 37.4551 43.3113 37.2954 43.3734C37.1057 43.3981 36.9195 43.3648 36.7541 43.2662C36.732 43.253 36.7107 43.2387 36.6901 43.2233C36.6695 43.208 36.6497 43.1917 36.6307 43.1743C36.6117 43.1571 36.5936 43.1389 36.5764 43.1198C36.5591 43.1008 36.5429 43.0809 36.5277 43.0602C36.5125 43.0395 36.4983 43.0182 36.4851 42.9961C36.472 42.9741 36.46 42.9514 36.4491 42.9282C36.4383 42.905 36.4285 42.8812 36.42 42.857C36.4115 42.8328 36.4042 42.8083 36.398 42.7834C36.3447 42.5668 36.3882 42.3394 36.5054 42.1507C36.7397 41.7734 37.245 41.3606 37.5669 41.04L39.7527 38.8658L42.8245 35.8011C43.3407 35.2857 43.8451 34.7329 44.3903 34.2493C44.5636 34.0955 44.6889 34.0076 44.9162 33.9519Z" fill="#E53935"/>
<path d="M37.6882 33.1736C37.7266 33.1694 37.765 33.1662 37.8036 33.1639C37.8421 33.1616 37.8807 33.1602 37.9193 33.1598C37.9579 33.1594 37.9965 33.1599 38.0351 33.1614C38.0736 33.1628 38.1122 33.1653 38.1506 33.1686C38.1891 33.172 38.2275 33.1762 38.2657 33.1815C38.304 33.1867 38.3421 33.1928 38.38 33.1999C38.418 33.207 38.4557 33.215 38.4933 33.2239C38.5308 33.2329 38.5681 33.2427 38.6052 33.2535C38.6423 33.2642 38.6791 33.2759 38.7156 33.2884C38.7521 33.301 38.7882 33.3144 38.8241 33.3287C38.8599 33.343 38.8954 33.3582 38.9305 33.3743C38.9656 33.3903 39.0002 33.4072 39.0345 33.4249C39.0688 33.4427 39.1026 33.4613 39.1359 33.4806C39.1693 33.5 39.2021 33.5202 39.2345 33.5412C39.2668 33.5622 39.2987 33.584 39.3299 33.6066C39.3612 33.6291 39.3919 33.6524 39.4221 33.6765C39.4522 33.7005 39.4817 33.7253 39.5107 33.7508C39.5396 33.7763 39.5679 33.8025 39.5955 33.8294C39.6231 33.8563 39.6501 33.8838 39.6764 33.912C39.7027 33.9402 39.7282 33.969 39.7531 33.9984C39.778 34.0279 39.8021 34.0579 39.8255 34.0885C39.8489 34.1192 39.8715 34.1504 39.8933 34.1821C39.9152 34.2138 39.9363 34.2461 39.9565 34.2788C39.9768 34.3116 39.9962 34.3448 40.0149 34.3785C40.0335 34.4122 40.0513 34.4464 40.0683 34.4809C40.0852 34.5155 40.1013 34.5505 40.1166 34.5859C40.1318 34.6212 40.1462 34.6569 40.1596 34.693C40.1731 34.7291 40.1857 34.7654 40.1974 34.8021C40.2091 34.8388 40.2199 34.8757 40.2298 34.913C40.2396 34.9502 40.2486 34.9876 40.2566 35.0252C40.2647 35.0629 40.2718 35.1007 40.278 35.1387C40.2841 35.1767 40.2894 35.2148 40.2937 35.253C40.298 35.2913 40.3013 35.3296 40.3038 35.368C40.3062 35.4064 40.3077 35.4449 40.3082 35.4834C40.3087 35.5219 40.3083 35.5603 40.3069 35.5988C40.3056 35.6373 40.3033 35.6757 40.3 35.714C40.2968 35.7524 40.2926 35.7906 40.2874 35.8288C40.2823 35.8669 40.2763 35.9049 40.2693 35.9428C40.2623 35.9806 40.2543 36.0183 40.2455 36.0557C40.2366 36.0932 40.2269 36.1304 40.2162 36.1674C40.2055 36.2044 40.1939 36.2411 40.1814 36.2775C40.169 36.314 40.1556 36.35 40.1413 36.3858C40.1271 36.4216 40.1119 36.457 40.0959 36.492C40.0799 36.527 40.0631 36.5617 40.0454 36.5959C40.0277 36.6301 40.0092 36.6638 39.9898 36.6971C39.9704 36.7304 39.9503 36.7632 39.9293 36.7955C39.9083 36.8278 39.8866 36.8596 39.864 36.8909C39.8415 36.9221 39.8182 36.9528 39.7942 36.9829C39.7701 37.013 39.7453 37.0426 39.7199 37.0715C39.6944 37.1004 39.6682 37.1286 39.6413 37.1562C39.6144 37.1839 39.5868 37.2108 39.5586 37.2371C39.5304 37.2634 39.5016 37.289 39.4721 37.3138C39.4427 37.3387 39.4126 37.3628 39.3819 37.3862C39.3513 37.4096 39.3201 37.4323 39.2883 37.4542C39.2566 37.476 39.2243 37.4971 39.1915 37.5174C39.1587 37.5377 39.1254 37.5572 39.0916 37.5759C39.0579 37.5945 39.0237 37.6124 38.989 37.6294C38.9544 37.6464 38.9193 37.6625 38.8839 37.6778C38.8485 37.6931 38.8127 37.7075 38.7766 37.7211C38.7404 37.7346 38.704 37.7473 38.6672 37.759C38.6304 37.7708 38.5934 37.7816 38.5561 37.7916C38.5188 37.8015 38.4813 37.8106 38.4436 37.8187C38.4058 37.8268 38.3679 37.834 38.3298 37.8403C38.2917 37.8466 38.2535 37.8519 38.2151 37.8563C38.1766 37.8607 38.1381 37.8642 38.0994 37.8667C38.0607 37.8692 38.022 37.8708 37.9833 37.8714C37.9445 37.872 37.9058 37.8717 37.8671 37.8704C37.8283 37.8692 37.7897 37.867 37.751 37.8638C37.7124 37.8606 37.6739 37.8565 37.6355 37.8514C37.5971 37.8464 37.5588 37.8404 37.5207 37.8334C37.4826 37.8265 37.4446 37.8187 37.4069 37.8099C37.3692 37.8011 37.3317 37.7914 37.2944 37.7807C37.2572 37.7701 37.2202 37.7586 37.1835 37.7461C37.1469 37.7337 37.1105 37.7203 37.0745 37.7061C37.0384 37.6919 37.0028 37.6768 36.9675 37.6608C36.9322 37.6448 36.8974 37.628 36.8629 37.6103C36.8285 37.5926 36.7945 37.5741 36.7609 37.5547C36.7274 37.5354 36.6944 37.5152 36.6618 37.4943C36.6293 37.4733 36.5973 37.4515 36.5658 37.429C36.5343 37.4064 36.5035 37.3831 36.4731 37.3591C36.4428 37.335 36.4131 37.3103 36.384 37.2847C36.3549 37.2592 36.3265 37.233 36.2987 37.2061C36.2709 37.1792 36.2437 37.1516 36.2173 37.1234C36.1909 37.0952 36.1651 37.0663 36.1401 37.0368C36.1151 37.0073 36.0908 36.9772 36.0673 36.9465C36.0438 36.9158 36.021 36.8846 35.999 36.8528C35.977 36.821 35.9558 36.7886 35.9354 36.7558C35.915 36.7229 35.8955 36.6896 35.8767 36.6558C35.858 36.622 35.84 36.5878 35.823 36.5531C35.8059 36.5184 35.7897 36.4833 35.7744 36.4479C35.7591 36.4124 35.7446 36.3765 35.7311 36.3404C35.7175 36.3042 35.7048 36.2677 35.6931 36.2309C35.6813 36.1941 35.6705 36.157 35.6605 36.1197C35.6506 36.0823 35.6416 36.0448 35.6335 36.007C35.6254 35.9692 35.6183 35.9313 35.6121 35.8931C35.6059 35.855 35.6006 35.8167 35.5963 35.7784C35.592 35.74 35.5886 35.7015 35.5862 35.6629C35.5837 35.6244 35.5823 35.5858 35.5818 35.5472C35.5812 35.5086 35.5817 35.4699 35.5831 35.4313C35.5844 35.3927 35.5868 35.3542 35.5901 35.3157C35.5934 35.2772 35.5976 35.2388 35.6028 35.2005C35.608 35.1623 35.6141 35.1241 35.6212 35.0862C35.6282 35.0482 35.6362 35.0104 35.6452 34.9728C35.6541 34.9352 35.6639 34.8979 35.6747 34.8608C35.6855 34.8237 35.6972 34.7868 35.7097 34.7503C35.7223 34.7138 35.7358 34.6776 35.7502 34.6417C35.7646 34.6058 35.7798 34.5703 35.7959 34.5352C35.8121 34.5001 35.829 34.4654 35.8469 34.4311C35.8647 34.3968 35.8834 34.3629 35.9029 34.3296C35.9224 34.2962 35.9427 34.2633 35.9639 34.2309C35.985 34.1986 36.0069 34.1667 36.0296 34.1354C36.0523 34.1041 36.0758 34.0734 36.1 34.0432C36.1242 34.0131 36.1491 33.9835 36.1748 33.9546C36.2005 33.9257 36.2269 33.8974 36.2539 33.8697C36.281 33.8421 36.3087 33.8151 36.3372 33.7889C36.3655 33.7626 36.3946 33.737 36.4242 33.7122C36.4539 33.6873 36.4842 33.6632 36.515 33.6398C36.5459 33.6165 36.5773 33.5939 36.6092 33.572C36.6412 33.5502 36.6737 33.5292 36.7067 33.5089C36.7397 33.4887 36.7732 33.4693 36.8072 33.4507C36.8411 33.4321 36.8755 33.4143 36.9104 33.3974C36.9452 33.3805 36.9804 33.3644 37.0161 33.3493C37.0517 33.3341 37.0877 33.3198 37.124 33.3064C37.1604 33.293 37.197 33.2804 37.234 33.2688C37.2709 33.2572 37.3081 33.2465 37.3456 33.2367C37.3831 33.2269 37.4208 33.218 37.4587 33.2101C37.4966 33.2021 37.5347 33.1951 37.573 33.189C37.6113 33.183 37.6497 33.1778 37.6882 33.1736ZM38.1831 36.2576C38.1994 36.2525 38.2156 36.2468 38.2316 36.2405C38.2476 36.2343 38.2633 36.2276 38.2789 36.2203C38.2944 36.2131 38.3097 36.2053 38.3247 36.1971C38.3397 36.1888 38.3545 36.1801 38.3689 36.1708C38.3834 36.1616 38.3975 36.1519 38.4113 36.1418C38.4251 36.1316 38.4385 36.121 38.4516 36.11C38.4647 36.0989 38.4775 36.0875 38.4898 36.0756C38.5022 36.0637 38.5141 36.0515 38.5256 36.0388C38.5372 36.0262 38.5483 36.0131 38.5589 35.9997C38.5696 35.9863 38.5798 35.9726 38.5896 35.9586C38.5994 35.9445 38.6087 35.9301 38.6175 35.9155C38.6263 35.9008 38.6346 35.8858 38.6424 35.8706C38.6503 35.8554 38.6576 35.84 38.6644 35.8243C38.6712 35.8086 38.6775 35.7927 38.6832 35.7766C38.689 35.7604 38.6942 35.7441 38.6989 35.7277C38.7036 35.7112 38.7077 35.6947 38.7113 35.6779C38.7149 35.6612 38.7179 35.6444 38.7204 35.6275C38.7228 35.6105 38.7247 35.5935 38.7261 35.5765C38.7274 35.5595 38.7282 35.5424 38.7284 35.5253C38.7286 35.5082 38.7283 35.4911 38.7274 35.474C38.7265 35.4569 38.725 35.4399 38.723 35.4229C38.7209 35.4059 38.7183 35.389 38.7152 35.3722C38.712 35.3554 38.7083 35.3387 38.704 35.3222C38.6998 35.3056 38.695 35.2892 38.6896 35.273C38.6843 35.2567 38.6784 35.2406 38.672 35.2248C38.6656 35.2089 38.6587 35.1933 38.6512 35.1779C38.6438 35.1624 38.6359 35.1473 38.6274 35.1324C38.619 35.1175 38.6101 35.1029 38.6007 35.0886C38.5913 35.0743 38.5814 35.0603 38.5711 35.0467C38.5607 35.033 38.55 35.0197 38.5387 35.0068C38.5275 34.9938 38.5159 34.9813 38.5039 34.9691C38.4918 34.9569 38.4794 34.9451 38.4666 34.9338C38.4538 34.9224 38.4406 34.9115 38.427 34.901C38.4135 34.8905 38.3996 34.8804 38.3854 34.8708C38.3712 34.8613 38.3567 34.8522 38.3419 34.8435C38.3271 34.8349 38.312 34.8267 38.2967 34.8191C38.2813 34.8114 38.2657 34.8043 38.2499 34.7977C38.2341 34.7911 38.2181 34.785 38.2019 34.7794C38.1857 34.7738 38.1693 34.7688 38.1527 34.7643C38.1362 34.7598 38.1195 34.7559 38.1027 34.7525C38.0858 34.7491 38.0689 34.7463 38.0519 34.744C38.0349 34.7417 38.0179 34.74 38.0008 34.7388C37.9836 34.7376 37.9665 34.737 37.9494 34.737C37.9322 34.7369 37.9151 34.7375 37.8979 34.7386C37.8808 34.7396 37.8638 34.7413 37.8467 34.7435C37.8297 34.7457 37.8128 34.7485 37.796 34.7518C37.7792 34.7551 37.7624 34.759 37.7459 34.7634C37.7293 34.7678 37.7129 34.7728 37.6967 34.7783C37.6846 34.7823 37.6727 34.7867 37.6609 34.7914C37.6491 34.796 37.6374 34.8009 37.6258 34.8061C37.6143 34.8114 37.6028 34.8169 37.5915 34.8226C37.5803 34.8284 37.5691 34.8344 37.5581 34.8407C37.5471 34.8471 37.5362 34.8536 37.5256 34.8605C37.5149 34.8673 37.5044 34.8744 37.4941 34.8818C37.4837 34.8891 37.4736 34.8967 37.4636 34.9045C37.4536 34.9124 37.4439 34.9205 37.4343 34.9288C37.4247 34.9371 37.4154 34.9457 37.4062 34.9544C37.3971 34.9632 37.3882 34.9722 37.3795 34.9814C37.3707 34.9906 37.3623 35 37.354 35.0097C37.3458 35.0193 37.3378 35.0291 37.33 35.0391C37.3222 35.0491 37.3147 35.0593 37.3074 35.0697C37.3002 35.08 37.2932 35.0906 37.2864 35.1013C37.2796 35.112 37.2732 35.1229 37.2669 35.1339C37.2607 35.145 37.2548 35.1561 37.2491 35.1674C37.2434 35.1788 37.238 35.1902 37.2329 35.2018C37.2278 35.2134 37.223 35.2251 37.2184 35.2369C37.2139 35.2487 37.2096 35.2606 37.2057 35.2727C37.2017 35.2847 37.1981 35.2968 37.1947 35.309C37.1913 35.3212 37.1883 35.3335 37.1855 35.3458C37.1827 35.3582 37.1803 35.3706 37.1781 35.3831C37.1759 35.3955 37.1741 35.408 37.1725 35.4206C37.171 35.4332 37.1698 35.4458 37.1688 35.4584C37.1679 35.471 37.1673 35.4836 37.167 35.4963C37.1667 35.5089 37.1667 35.5216 37.167 35.5343C37.1673 35.5469 37.1679 35.5595 37.1688 35.5722C37.1697 35.5848 37.171 35.5974 37.1725 35.6099C37.1741 35.6225 37.1759 35.635 37.1781 35.6475C37.1802 35.66 37.1827 35.6724 37.1854 35.6847C37.1882 35.6971 37.1912 35.7093 37.1946 35.7216C37.198 35.7338 37.2016 35.7459 37.2056 35.7579C37.2095 35.7699 37.2138 35.7818 37.2183 35.7937C37.2229 35.8055 37.2277 35.8172 37.2328 35.8288C37.2379 35.8404 37.2433 35.8518 37.249 35.8631C37.2546 35.8744 37.2606 35.8856 37.2668 35.8967C37.273 35.9077 37.2795 35.9186 37.2862 35.9293C37.293 35.94 37.3 35.9506 37.3073 35.9609C37.3145 35.9713 37.322 35.9815 37.3298 35.9915C37.3376 36.0015 37.3456 36.0113 37.3538 36.021C37.3621 36.0306 37.3705 36.04 37.3793 36.0492C37.388 36.0584 37.3969 36.0674 37.406 36.0762C37.4152 36.085 37.4245 36.0935 37.4341 36.1018C37.4437 36.1102 37.4534 36.1183 37.4634 36.1261C37.4733 36.1339 37.4835 36.1415 37.4938 36.1489C37.5041 36.1563 37.5146 36.1634 37.5253 36.1702C37.536 36.177 37.5468 36.1836 37.5578 36.1899C37.5688 36.1963 37.58 36.2023 37.5913 36.2081C37.6026 36.2139 37.614 36.2194 37.6256 36.2246C37.6371 36.2298 37.6488 36.2347 37.6606 36.2394C37.6724 36.244 37.6843 36.2484 37.6964 36.2525C37.7084 36.2565 37.7205 36.2603 37.7327 36.2638C37.7449 36.2673 37.7572 36.2705 37.7695 36.2733C37.7819 36.2762 37.7943 36.2788 37.8068 36.2811C37.8193 36.2834 37.8318 36.2854 37.8444 36.287C37.857 36.2887 37.8696 36.2901 37.8823 36.2911C37.8949 36.2922 37.9076 36.2929 37.9203 36.2934C37.933 36.2938 37.9457 36.294 37.9584 36.2938C37.971 36.2936 37.9837 36.2931 37.9964 36.2923C38.0091 36.2915 38.0217 36.2904 38.0343 36.289C38.0469 36.2876 38.0595 36.2859 38.072 36.2839C38.0846 36.2819 38.0971 36.2796 38.1095 36.2769C38.1219 36.2743 38.1342 36.2714 38.1465 36.2682C38.1588 36.265 38.171 36.2614 38.1831 36.2576Z" fill="#E53935"/>
<path d="M43.9931 39.4566C44.0316 39.4525 44.07 39.4493 44.1085 39.447C44.1471 39.4447 44.1856 39.4434 44.2242 39.443C44.2628 39.4426 44.3014 39.4432 44.3399 39.4446C44.3785 39.4461 44.417 39.4486 44.4554 39.452C44.4939 39.4553 44.5323 39.4597 44.5705 39.4649C44.6087 39.4701 44.6468 39.4763 44.6847 39.4834C44.7227 39.4906 44.7604 39.4986 44.7979 39.5075C44.8355 39.5165 44.8728 39.5263 44.9098 39.5371C44.9469 39.5479 44.9837 39.5596 45.0201 39.5721C45.0566 39.5847 45.0927 39.5982 45.1285 39.6125C45.1643 39.6268 45.1998 39.642 45.2349 39.6581C45.27 39.6742 45.3046 39.6911 45.3389 39.7088C45.3731 39.7266 45.4069 39.7452 45.4403 39.7646C45.4736 39.784 45.5064 39.8042 45.5387 39.8252C45.5711 39.8462 45.6029 39.868 45.6342 39.8906C45.6654 39.9132 45.6961 39.9365 45.7262 39.9605C45.7563 39.9846 45.7858 40.0094 45.8147 40.0349C45.8436 40.0604 45.8719 40.0866 45.8995 40.1135C45.9271 40.1404 45.954 40.1679 45.9803 40.1961C46.0065 40.2243 46.0321 40.2532 46.057 40.2826C46.0817 40.312 46.1058 40.3421 46.1292 40.3727C46.1525 40.4033 46.1752 40.4345 46.197 40.4662C46.2189 40.498 46.2399 40.5302 46.2602 40.563C46.2804 40.5957 46.2998 40.629 46.3184 40.6627C46.337 40.6964 46.3548 40.7305 46.3717 40.7651C46.3887 40.7997 46.4048 40.8346 46.42 40.87C46.4352 40.9054 46.4495 40.9411 46.463 40.9771C46.4764 41.0132 46.489 41.0496 46.5007 41.0862C46.5124 41.1229 46.5231 41.1598 46.5329 41.197C46.5428 41.2342 46.5517 41.2717 46.5598 41.3093C46.5678 41.3469 46.5749 41.3847 46.5811 41.4227C46.5872 41.4607 46.5924 41.4988 46.5967 41.5371C46.601 41.5753 46.6044 41.6136 46.6068 41.652C46.6092 41.6904 46.6106 41.7289 46.6111 41.7673C46.6117 41.8058 46.6113 41.8443 46.6098 41.8828C46.6085 41.9212 46.6062 41.9596 46.6029 41.9979C46.5996 42.0363 46.5954 42.0745 46.5903 42.1126C46.5852 42.1507 46.5791 42.1887 46.572 42.2266C46.565 42.2645 46.5571 42.3021 46.5483 42.3396C46.5394 42.377 46.5296 42.4142 46.5189 42.4511C46.5083 42.4881 46.4967 42.5248 46.4842 42.5612C46.4717 42.5977 46.4584 42.6337 46.4441 42.6694C46.4298 42.7052 46.4147 42.7406 46.3987 42.7756C46.3826 42.8106 46.3658 42.8452 46.3481 42.8794C46.3304 42.9136 46.3119 42.9473 46.2926 42.9807C46.2731 43.0139 46.253 43.0467 46.232 43.079C46.211 43.1113 46.1893 43.1431 46.1667 43.1743C46.1442 43.2056 46.1209 43.2362 46.0969 43.2663C46.0728 43.2964 46.048 43.3259 46.0225 43.3548C45.9971 43.3837 45.9709 43.412 45.944 43.4396C45.9171 43.4672 45.8895 43.4941 45.8613 43.5204C45.8332 43.5466 45.8043 43.5722 45.7748 43.5971C45.7454 43.6219 45.7154 43.6461 45.6847 43.6694C45.654 43.6928 45.6228 43.7154 45.591 43.7373C45.5593 43.7592 45.527 43.7802 45.4942 43.8005C45.4615 43.8209 45.4282 43.8403 45.3944 43.8589C45.3607 43.8776 45.3265 43.8955 45.2919 43.9125C45.2572 43.9295 45.2222 43.9456 45.1868 43.9608C45.1513 43.9762 45.1155 43.9906 45.0794 44.0041C45.0433 44.0176 45.0069 44.0303 44.9701 44.042C44.9334 44.0538 44.8963 44.0647 44.859 44.0746C44.8218 44.0845 44.7843 44.0936 44.7466 44.1017C44.7089 44.1098 44.6709 44.117 44.6328 44.1233C44.5947 44.1296 44.5565 44.1349 44.5182 44.1393C44.4797 44.1437 44.4411 44.1472 44.4025 44.1497C44.3637 44.1522 44.325 44.1538 44.2862 44.1544C44.2475 44.155 44.2087 44.1547 44.17 44.1535C44.1313 44.1521 44.0926 44.1499 44.054 44.1468C44.0154 44.1436 43.9768 44.1395 43.9384 44.1344C43.9 44.1294 43.8618 44.1234 43.8236 44.1164C43.7854 44.1095 43.7475 44.1016 43.7098 44.0928C43.672 44.084 43.6346 44.0743 43.5973 44.0636C43.56 44.053 43.523 44.0414 43.4864 44.029C43.4497 44.0166 43.4133 44.0032 43.3772 43.989C43.3413 43.9748 43.3056 43.9596 43.2703 43.9436C43.235 43.9276 43.2002 43.9108 43.1657 43.8931C43.1313 43.8754 43.0973 43.8569 43.0637 43.8376C43.0302 43.8182 42.9971 43.798 42.9645 43.777C42.932 43.7561 42.9 43.7343 42.8686 43.7118C42.8371 43.6892 42.8062 43.6658 42.7758 43.6418C42.7456 43.6178 42.7159 43.593 42.6867 43.5674C42.6576 43.5419 42.6292 43.5156 42.6014 43.4887C42.5736 43.4618 42.5465 43.4342 42.52 43.4059C42.4936 43.3777 42.4679 43.3488 42.4429 43.3193C42.4179 43.2899 42.3936 43.2597 42.37 43.229C42.3465 43.1983 42.3237 43.1671 42.3017 43.1353C42.2798 43.1034 42.2586 43.0711 42.2382 43.0382C42.2178 43.0054 42.1983 42.9721 42.1794 42.9382C42.1607 42.9044 42.1428 42.8701 42.1259 42.8354C42.1088 42.8007 42.0926 42.7656 42.0772 42.7301C42.0619 42.6947 42.0475 42.6589 42.034 42.6227C42.0204 42.5865 42.0077 42.55 41.996 42.5131C41.9843 42.4763 41.9734 42.4393 41.9635 42.4019C41.9536 42.3645 41.9446 42.327 41.9365 42.2892C41.9285 42.2514 41.9213 42.2134 41.9151 42.1753C41.9089 42.1371 41.9036 42.0988 41.8993 42.0605C41.8951 42.0221 41.8917 41.9836 41.8893 41.945C41.8869 41.9064 41.8855 41.8679 41.885 41.8292C41.8845 41.7906 41.8849 41.752 41.8862 41.7134C41.8877 41.6748 41.89 41.6362 41.8933 41.5977C41.8967 41.5592 41.9009 41.5208 41.9061 41.4825C41.9114 41.4443 41.9175 41.4061 41.9246 41.3681C41.9316 41.3302 41.9396 41.2924 41.9486 41.2548C41.9575 41.2172 41.9674 41.1798 41.9783 41.1427C41.989 41.1056 42.0007 41.0688 42.0133 41.0323C42.0259 40.9957 42.0394 40.9595 42.0538 40.9237C42.0682 40.8878 42.0835 40.8523 42.0996 40.8172C42.1158 40.782 42.1328 40.7473 42.1507 40.713C42.1685 40.6788 42.1872 40.6449 42.2068 40.6116C42.2263 40.5782 42.2466 40.5453 42.2678 40.5129C42.2889 40.4806 42.3108 40.4487 42.3336 40.4174C42.3563 40.3861 42.3798 40.3554 42.4041 40.3253C42.4283 40.2951 42.4532 40.2656 42.479 40.2367C42.5047 40.2077 42.5311 40.1795 42.5581 40.1518C42.5853 40.1242 42.613 40.0973 42.6414 40.071C42.6698 40.0447 42.6989 40.0192 42.7285 39.9943C42.7582 39.9695 42.7885 39.9454 42.8194 39.9221C42.8503 39.8987 42.8817 39.8761 42.9137 39.8543C42.9457 39.8325 42.9783 39.8115 43.0113 39.7912C43.0443 39.771 43.0778 39.7516 43.1118 39.7331C43.1457 39.7145 43.1801 39.6968 43.215 39.6799C43.2499 39.663 43.2851 39.6469 43.3208 39.6318C43.3564 39.6166 43.3924 39.6024 43.4288 39.589C43.4651 39.5756 43.5017 39.5631 43.5387 39.5515C43.5757 39.5399 43.613 39.5292 43.6505 39.5194C43.688 39.5097 43.7257 39.5008 43.7636 39.4929C43.8015 39.485 43.8396 39.478 43.8779 39.4719C43.9162 39.4659 43.9546 39.4608 43.9931 39.4566ZM44.4862 42.5405C44.5025 42.5353 44.5187 42.5296 44.5347 42.5234C44.5507 42.5172 44.5664 42.5105 44.582 42.5032C44.5975 42.496 44.6128 42.4882 44.6277 42.4799C44.6428 42.4717 44.6575 42.463 44.672 42.4537C44.6864 42.4444 44.7005 42.4348 44.7143 42.4246C44.7281 42.4145 44.7415 42.4039 44.7547 42.3928C44.7678 42.3818 44.7805 42.3703 44.7929 42.3585C44.8052 42.3466 44.8171 42.3344 44.8287 42.3217C44.8403 42.3091 44.8514 42.296 44.8621 42.2826C44.8727 42.2692 44.8829 42.2555 44.8927 42.2414C44.9024 42.2273 44.9117 42.213 44.9205 42.1983C44.9294 42.1837 44.9377 42.1687 44.9455 42.1535C44.9533 42.1383 44.9606 42.1228 44.9674 42.1071C44.9742 42.0914 44.9806 42.0755 44.9863 42.0595C44.9921 42.0433 44.9973 42.027 45.002 42.0106C45.0066 41.9942 45.0107 41.9776 45.0143 41.9608C45.0179 41.9441 45.021 41.9272 45.0234 41.9103C45.0258 41.8934 45.0277 41.8764 45.0291 41.8594C45.0304 41.8423 45.0312 41.8252 45.0315 41.8081C45.0317 41.7911 45.0314 41.774 45.0305 41.7569C45.0295 41.7398 45.0281 41.7228 45.0261 41.7058C45.024 41.6889 45.0214 41.672 45.0182 41.6552C45.015 41.6383 45.0113 41.6217 45.007 41.6051C45.0028 41.5885 44.998 41.5721 44.9927 41.5559C44.9874 41.5396 44.9815 41.5236 44.975 41.5077C44.9686 41.4918 44.9617 41.4762 44.9543 41.4608C44.9469 41.4454 44.9389 41.4302 44.9305 41.4154C44.922 41.4005 44.9131 41.3859 44.9037 41.3716C44.8943 41.3573 44.8845 41.3433 44.8742 41.3296C44.8638 41.316 44.853 41.3027 44.8418 41.2897C44.8306 41.2768 44.819 41.2642 44.807 41.2521C44.795 41.2399 44.7825 41.2281 44.7697 41.2167C44.7568 41.2054 44.7436 41.1944 44.7301 41.1839C44.7165 41.1734 44.7027 41.1634 44.6885 41.1538C44.6743 41.1442 44.6598 41.1351 44.645 41.1265C44.6302 41.1178 44.6151 41.1097 44.5997 41.102C44.5844 41.0944 44.5688 41.0873 44.553 41.0806C44.5372 41.074 44.5212 41.0679 44.5049 41.0623C44.4887 41.0568 44.4723 41.0517 44.4558 41.0473C44.4392 41.0428 44.4225 41.0388 44.4057 41.0354C44.3889 41.032 44.372 41.0292 44.3551 41.0269C44.338 41.0246 44.3209 41.0229 44.3039 41.0217C44.2867 41.0206 44.2696 41.02 44.2524 41.0199C44.2353 41.0199 44.2182 41.0204 44.201 41.0215C44.1839 41.0226 44.1668 41.0242 44.1498 41.0264C44.1328 41.0286 44.1158 41.0314 44.099 41.0347C44.0822 41.0381 44.0655 41.0419 44.049 41.0463C44.0324 41.0508 44.0159 41.0557 43.9997 41.0612C43.9877 41.0653 43.9758 41.0696 43.9639 41.0743C43.9521 41.0789 43.9405 41.0839 43.9289 41.0891C43.9173 41.0943 43.9059 41.0998 43.8946 41.1055C43.8833 41.1113 43.8722 41.1174 43.8612 41.1237C43.8502 41.13 43.8393 41.1366 43.8286 41.1434C43.818 41.1502 43.8075 41.1573 43.7971 41.1647C43.7868 41.172 43.7766 41.1796 43.7666 41.1875C43.7566 41.1953 43.7469 41.2034 43.7374 41.2117C43.7278 41.22 43.7184 41.2286 43.7093 41.2374C43.7001 41.2461 43.6912 41.2551 43.6824 41.2643C43.6738 41.2735 43.6653 41.283 43.6571 41.2926C43.6488 41.3022 43.6407 41.312 43.633 41.322C43.6253 41.332 43.6178 41.3422 43.6104 41.3526C43.6031 41.363 43.5961 41.3735 43.5894 41.3842C43.5827 41.3949 43.5762 41.4058 43.57 41.4168C43.5638 41.4279 43.5578 41.4391 43.5521 41.4504C43.5464 41.4617 43.5411 41.4731 43.5359 41.4847C43.5308 41.4963 43.526 41.508 43.5214 41.5198C43.5169 41.5317 43.5127 41.5436 43.5087 41.5556C43.5048 41.5676 43.5011 41.5797 43.4976 41.5919C43.4943 41.6041 43.4912 41.6164 43.4885 41.6288C43.4858 41.6411 43.4833 41.6535 43.4811 41.666C43.4789 41.6785 43.4771 41.691 43.4756 41.7036C43.474 41.7161 43.4727 41.7287 43.4718 41.7413C43.4709 41.754 43.4703 41.7666 43.47 41.7792C43.4697 41.7919 43.4697 41.8045 43.47 41.8172C43.4703 41.8298 43.4709 41.8425 43.4718 41.8551C43.4727 41.8677 43.474 41.8803 43.4756 41.8928C43.4771 41.9054 43.4789 41.9179 43.4811 41.9304C43.4832 41.9429 43.4856 41.9553 43.4884 41.9677C43.4912 41.98 43.4943 41.9923 43.4976 42.0045C43.501 42.0167 43.5046 42.0288 43.5086 42.0409C43.5125 42.0529 43.5168 42.0649 43.5213 42.0767C43.5259 42.0885 43.5307 42.1002 43.5358 42.1117C43.5409 42.1233 43.5463 42.1347 43.5519 42.146C43.5577 42.1574 43.5636 42.1686 43.5698 42.1796C43.5761 42.1907 43.5825 42.2015 43.5893 42.2123C43.596 42.223 43.603 42.2335 43.6103 42.2439C43.6175 42.2543 43.6251 42.2645 43.6329 42.2745C43.6406 42.2845 43.6486 42.2943 43.6568 42.3039C43.6651 42.3135 43.6736 42.3229 43.6823 42.3321C43.6909 42.3414 43.6999 42.3504 43.709 42.3592C43.7182 42.368 43.7275 42.3765 43.7371 42.3848C43.7467 42.3931 43.7565 42.4012 43.7664 42.4091C43.7764 42.4169 43.7865 42.4245 43.7969 42.4318C43.8072 42.4392 43.8177 42.4463 43.8284 42.4532C43.8391 42.46 43.8499 42.4666 43.8609 42.4729C43.8719 42.4792 43.8831 42.4852 43.8943 42.491C43.9057 42.4968 43.9171 42.5023 43.9286 42.5076C43.9402 42.5128 43.9519 42.5177 43.9637 42.5223C43.9755 42.527 43.9874 42.5313 43.9995 42.5353C44.0115 42.5394 44.0236 42.5433 44.0358 42.5468C44.0479 42.5502 44.0602 42.5534 44.0726 42.5563C44.0849 42.5592 44.0974 42.5617 44.1099 42.564C44.1224 42.5663 44.1349 42.5682 44.1474 42.5699C44.16 42.5716 44.1727 42.573 44.1854 42.574C44.198 42.5751 44.2106 42.5759 44.2233 42.5763C44.236 42.5767 44.2487 42.5769 44.2614 42.5767C44.2741 42.5765 44.2868 42.576 44.2995 42.5752C44.3122 42.5744 44.3248 42.5733 44.3374 42.5719C44.35 42.5705 44.3626 42.5688 44.3751 42.5668C44.3876 42.5647 44.4001 42.5624 44.4125 42.5598C44.425 42.5572 44.4373 42.5543 44.4496 42.551C44.4619 42.5479 44.4741 42.5443 44.4862 42.5405Z" fill="#E53935"/>
<path d="M19.9205 18.0954C21.8163 17.9209 23.8088 18.0483 25.7166 18.0485L36.775 18.0485L43.1821 18.0455C43.9389 18.0457 45.2762 17.94 45.976 18.0983C46.2077 18.1508 46.4188 18.274 46.5389 18.4834C46.6355 18.6518 46.6548 18.8394 46.6017 19.0254C46.5215 19.3062 46.3456 19.4625 46.0967 19.5987C44.0307 19.7264 41.9188 19.6369 39.8461 19.6349L28.7148 19.6297L23.2108 19.6353C22.2857 19.6386 20.8039 19.7777 19.9375 19.5655C19.7407 19.5172 19.582 19.4194 19.4798 19.2415C19.4535 19.1952 19.4321 19.1468 19.4156 19.0962C19.399 19.0456 19.3877 18.9939 19.3817 18.9411C19.3756 18.8882 19.3748 18.8353 19.3794 18.7823C19.384 18.7293 19.3938 18.6773 19.4089 18.6263C19.4889 18.364 19.691 18.2217 19.9205 18.0954Z" fill="#E53935"/>
<path d="M32.9409 23.15C35.4774 23.0679 38.0321 23.1274 40.5704 23.1273C42.0336 23.1272 45.1394 22.9527 46.4146 23.2971C46.4998 23.3895 46.5777 23.4804 46.6201 23.6007C46.6987 23.8238 46.6728 24.0314 46.5685 24.2415C46.439 24.5025 46.2806 24.5835 46.0098 24.67C44.6282 24.7764 33.2679 24.7873 32.6954 24.573C32.5241 24.5088 32.3714 24.3674 32.2994 24.1997C32.208 23.9869 32.2537 23.789 32.3439 23.5832C32.4636 23.3098 32.6802 23.2507 32.9409 23.15Z" fill="#E53935"/>
</g>
<defs>
<clipPath id="clip0_28012_8352">
<rect width="60" height="60" fill="white"/>
</clipPath>
</defs>
</svg>
