<svg width="60" height="60" viewBox="0 0 60 60" fill="none" xmlns="http://www.w3.org/2000/svg">
<g clip-path="url(#clip0_28012_8337)">
<path d="M28.4639 2.05541C29.1972 2.01044 33.2139 1.894 33.5587 2.24077C34.0479 2.73281 34.0834 3.85954 34.1772 4.51268C34.2307 4.88475 34.2439 5.21682 34.5472 5.47934C35.218 5.73795 36.8477 4.2051 37.6527 3.9015C37.8879 4.02508 38.1117 4.1335 38.3196 4.30344C38.8444 4.73254 41.0809 6.88458 41.4114 7.36772C42.1456 8.44172 40.1194 9.83384 39.9263 10.881C40.2759 11.7429 42.5618 11.1769 43.2888 11.961C43.6907 12.3943 43.524 13.4066 43.5058 13.9641C45.72 13.9956 48.4505 13.5079 50.1803 15.1993C50.4763 15.4919 50.7295 15.8179 50.9399 16.177C52.0673 18.0899 52.993 20.1987 53.9958 22.1833C54.614 23.4062 55.5517 24.9041 55.9706 26.179C56.1239 26.6455 56.0728 27.2602 56.0761 27.7483L56.0809 47.3813L56.0791 53.2108C56.0788 54.2076 56.1687 55.3106 56.0187 56.2925C55.8816 57.1932 55.4262 58.0389 54.7864 58.6814C54.1855 59.2846 53.4015 59.7446 52.5594 59.8988C51.7018 60.0559 50.7654 59.9941 49.8946 59.9929L46.02 59.986L31.5815 59.9884L15.1175 59.989L10.5332 59.9938C9.59327 59.9941 8.57451 60.0619 7.64724 59.9042C6.78377 59.7575 5.93297 59.3246 5.31118 58.7071C4.69536 58.0956 4.24814 57.3225 4.09757 56.4625C3.93298 55.5221 4.02651 54.4392 4.02609 53.4811L4.0251 48.0084L4.02149 28.2682C4.0214 27.6609 3.9426 26.8523 4.10895 26.2705C4.43313 25.1368 5.52716 23.3253 6.08797 22.213C7.09893 20.208 8.03378 18.0732 9.17386 16.1419C9.39412 15.776 9.65628 15.4432 9.96033 15.1433C10.4177 14.6895 10.9286 14.3818 11.5472 14.1983C13.0763 13.7449 16.3991 13.9721 18.1277 13.9721C18.0755 13.3726 18.0357 12.5697 18.3513 12.0396C18.8781 11.1553 20.3579 11.5719 21.2014 11.3317C21.3822 11.2802 21.6106 11.1603 21.6973 10.9858C21.9272 10.5231 20.2733 8.71837 20.095 8.12649C20.0239 7.89074 20.1016 7.69841 20.2193 7.49372C20.5627 6.89647 23.2598 4.14312 23.7927 4.01258C24.6608 3.79993 25.7453 5.05924 26.4439 5.48152C26.6666 5.61613 26.831 5.65882 27.0837 5.59516C27.7397 5.08167 27.478 3.35767 27.8633 2.56165C28.007 2.26457 28.1543 2.15816 28.4639 2.05541ZM53.4896 57.4955C53.815 57.1427 54.1533 56.7705 54.2357 56.2793C54.4192 55.1899 54.3463 54.0165 54.3448 52.9132L54.3373 47.8993L54.3382 34.6601C54.3388 32.2574 54.2958 29.845 54.3511 27.4433C50.1385 27.3598 45.9136 27.4229 41.6998 27.425L19.5166 27.4262L10.4346 27.425C8.89062 27.4245 7.31162 27.4997 5.77392 27.4065L5.76863 46.734L5.75975 52.5661C5.75793 53.6959 5.68714 54.8807 5.83084 56.0021C5.90351 56.5691 6.10673 57.016 6.5115 57.4241C7.46751 58.3881 8.82832 58.2145 10.0746 58.2136L38.7523 58.2062L47.3028 58.2092C48.8401 58.2127 50.4567 58.3245 51.983 58.1724C52.609 58.11 53.0288 57.9119 53.4896 57.4955ZM28.7847 6.71535C28.194 7.12996 27.3489 7.64637 26.5987 7.51607C25.7703 7.37217 24.8025 6.44571 24.1303 5.94271C23.4414 6.62136 22.6667 7.3037 22.0704 8.06433C22.6718 8.87105 23.7577 9.97394 23.5977 11.0376C23.5122 11.6064 23.145 12.2727 22.7571 12.6937C21.8885 13.0238 20.8648 13.1924 19.9389 13.2775C19.8784 14.2398 19.8948 15.2058 19.8981 16.1695C20.8334 16.31 21.869 16.4271 22.7519 16.7715C23.1921 17.1941 23.6021 17.9955 23.6199 18.6112C23.6491 19.612 22.5903 20.6207 22.0796 21.4342C22.469 21.837 23.6905 23.3477 24.2486 23.3455C25.1938 23.3419 25.9911 20.6301 28.8116 22.7613C29.0821 23.6855 29.2097 24.6538 29.3445 25.6055C30.296 25.6365 31.2476 25.6464 32.1994 25.6352C32.3348 25.4793 32.365 25.2551 32.4131 25.0597C32.5478 24.5129 32.5254 23.9748 32.6315 23.433C32.8287 22.4276 34.0879 22.0007 34.9825 21.8256C35.8978 22.2802 36.655 23 37.5577 23.4544C38.2285 22.7827 38.9964 22.1189 39.5974 21.3881C39.0027 20.5958 38.2984 19.7604 37.895 18.8497C38.1616 18.177 38.4009 17.3482 38.8363 16.7657C39.7817 16.4815 40.7585 16.3479 41.7309 16.1882C41.7437 15.2164 41.7766 14.2396 41.7482 13.2682C40.7552 13.0953 39.1659 13.1141 38.5512 12.2298C38.2431 11.7863 38.0875 11.1391 37.9106 10.6289C38.3636 9.6716 39.0487 8.92264 39.5872 8.02899C38.9041 7.33593 38.2133 6.63439 37.4904 5.98354C36.7533 6.52825 35.5799 7.68025 34.6028 7.52927C34.0506 7.44392 33.2608 7.04879 32.8075 6.71579C32.7077 6.15433 32.5708 4.24755 32.1468 3.94648C31.7166 3.64095 29.9749 3.8414 29.3751 3.82497C29.1522 4.77219 29.1566 5.81067 28.7847 6.71535ZM18.1402 15.7818C16.7021 15.7423 15.2651 15.7765 13.8273 15.7546L13.833 22.1442C13.8337 23.2919 13.8984 24.4846 13.8026 25.6267C18.4088 25.7064 23.0288 25.6566 27.6357 25.6506C27.4667 25.1302 27.5358 24.1385 27.0866 23.8205C26.8016 23.7971 26.6353 23.8787 26.4043 24.0516C25.6693 24.5844 24.922 25.2096 24.0622 25.5254C23.8471 25.4472 23.6028 25.366 23.4198 25.2264C22.7928 24.7481 20.4629 22.4766 20.1424 21.8114C20.0327 21.5836 20.067 21.4393 20.1514 21.2109C20.4119 20.506 21.9691 19.067 21.6954 18.4251C20.8415 17.7221 18.2365 18.3878 18.1202 16.9444C18.0895 16.5637 18.1248 16.1631 18.1402 15.7818ZM37.7032 25.5421C37.463 25.4601 37.2176 25.3694 37.0001 25.2376C36.5101 24.9409 35.0049 23.6768 34.4931 23.902C34.2696 24.3063 34.2203 24.8612 34.1333 25.3143L34.099 25.5137C34.2343 25.6295 34.3413 25.6365 34.5188 25.6484C35.5637 25.7182 36.6284 25.6212 37.676 25.6171C40.5335 25.6057 43.4374 25.5625 46.2904 25.6616C46.184 24.5128 46.2563 23.3092 46.2596 22.1546L46.2674 15.7859C45.3599 15.7695 44.4419 15.796 43.5366 15.7524C43.5303 16.3992 43.5987 17.1326 43.0976 17.6307C42.41 18.3143 40.1657 17.7386 39.9204 18.5915C40.0859 19.781 42.2618 20.9211 41.2973 22.1905C40.9408 22.6595 38.7897 24.8083 38.3095 25.1969C38.1296 25.3423 37.9124 25.4458 37.7032 25.5421ZM6.64958 25.6438L12.1115 25.6467C12.0531 23.3897 12.0976 21.1221 12.0994 18.8641C12.1 18.0079 12.1902 17.0564 12.1004 16.2153C12.0918 16.1344 12.0511 16.0672 11.9982 16.007L11.823 15.9737C11.382 16.2314 11.0724 16.4919 10.7834 16.9163C10.319 17.5985 9.97643 18.3845 9.60791 19.1222L7.8144 22.7144C7.47127 23.3948 6.60449 24.7729 6.44373 25.4451C6.43127 25.4972 6.43904 25.5318 6.44803 25.5835C6.50941 25.6036 6.58599 25.6399 6.64958 25.6438ZM47.9951 25.636L53.5804 25.6478L53.6626 25.5175C53.0199 23.9222 52.1025 22.352 51.3268 20.8119C50.7289 19.6246 49.9406 17.7141 49.1811 16.7184C48.8855 16.331 48.5004 16.0993 48.0737 15.8818C47.9661 16.8945 48.0124 17.9433 48.0124 18.9621C48.0121 21.1804 48.0814 23.4202 47.9951 25.636Z" fill="#E53935"/>
<path d="M23.6479 31.4339C26.3342 31.3306 29.0553 31.4219 31.7453 31.4228C33.3306 31.4234 35.0711 31.2595 36.6349 31.4688C37.2515 31.5511 37.8308 31.7436 38.3407 32.1142C39.0486 32.628 39.4945 33.3942 39.6352 34.2663C39.7897 35.225 39.6041 36.204 39.0407 36.9939C38.4183 37.8672 37.5723 38.2853 36.55 38.446C33.7477 38.5111 30.9366 38.4499 28.1332 38.4553C26.647 38.4583 24.8774 38.6361 23.4222 38.4069C22.7828 38.306 22.1925 38.0576 21.6837 37.6462C21.597 37.5765 21.5139 37.5026 21.4344 37.4246C21.3549 37.3465 21.2794 37.2645 21.2079 37.1786C21.1364 37.0929 21.0693 37.0037 21.0065 36.911C20.9437 36.8183 20.8855 36.7227 20.8321 36.6242C20.7786 36.5255 20.73 36.4244 20.6864 36.3209C20.6428 36.2173 20.6043 36.1118 20.571 36.0043C20.5377 35.897 20.5097 35.7882 20.487 35.6779C20.4643 35.5675 20.447 35.4563 20.4351 35.3442C20.4229 35.2249 20.4164 35.1053 20.4156 34.9856C20.4148 34.8657 20.4198 34.746 20.4305 34.6267C20.4412 34.5072 20.4576 34.3886 20.4797 34.2708C20.5018 34.1531 20.5294 34.0368 20.5627 33.9219C20.5959 33.8069 20.6345 33.6939 20.6786 33.5828C20.7227 33.4717 20.772 33.363 20.8265 33.2569C20.881 33.1508 20.9404 33.0476 21.0048 32.9473C21.0692 32.8472 21.1382 32.7505 21.2119 32.6572C21.8501 31.8514 22.6671 31.5388 23.6479 31.4339ZM36.709 36.5827C37.2468 36.3995 37.5532 36.1611 37.8102 35.6298C38.0067 35.2235 38.0622 34.8508 37.9207 34.4105C37.7852 33.9885 37.4891 33.5861 37.092 33.3903C36.7836 33.2383 36.4026 33.2044 36.0645 33.1843C33.7157 33.0455 31.2891 33.1743 28.934 33.1776C27.1395 33.18 25.2128 33.0188 23.4369 33.2347C22.9517 33.3951 22.5962 33.6233 22.3492 34.1026C22.3214 34.1557 22.2963 34.2102 22.2739 34.266C22.2515 34.3217 22.2318 34.3784 22.215 34.4363C22.1982 34.494 22.1843 34.5524 22.1733 34.6117C22.1623 34.671 22.1542 34.7306 22.1491 34.7907C22.1439 34.8508 22.1418 34.9109 22.1426 34.9712C22.1434 35.0315 22.1472 35.0915 22.1539 35.1514C22.1607 35.2113 22.1704 35.2706 22.183 35.3295C22.1956 35.3883 22.2111 35.4464 22.2294 35.5037C22.2445 35.5517 22.2619 35.5989 22.2816 35.6451C22.3012 35.6914 22.323 35.7365 22.347 35.7806C22.371 35.8246 22.3971 35.8674 22.4252 35.9088C22.4534 35.9503 22.4834 35.9902 22.5154 36.0286C22.5474 36.0671 22.5812 36.1037 22.6167 36.1386C22.6522 36.1736 22.6894 36.2067 22.7281 36.238C22.7668 36.2692 22.807 36.2984 22.8485 36.3257C22.8901 36.3529 22.9328 36.3779 22.9768 36.4007C23.3309 36.5809 23.7588 36.6221 24.1487 36.647C26.3848 36.7891 28.6942 36.647 30.9378 36.6485C32.6218 36.6494 35.1457 36.8212 36.709 36.5827Z" fill="#E53935"/>
<path d="M15.4069 49.2718C15.4311 49.2707 15.4552 49.2698 15.4794 49.2689C15.8476 49.2563 16.204 49.2775 16.4843 49.5192C16.9582 50.2937 16.9194 53.3724 16.6525 54.2616C16.5518 54.5971 16.3895 54.8047 16.0655 54.9785C15.854 54.9997 15.6342 55.0064 15.4246 54.9656C15.2418 54.9302 15.108 54.8332 15.0153 54.6875C14.5914 54.0214 14.6635 50.6669 14.8807 49.8857C14.9711 49.5609 15.0993 49.4443 15.4069 49.2718Z" fill="#E53935"/>
<path d="M24.5197 49.2662C24.5551 49.2659 24.5889 49.2665 24.6242 49.2697C24.8302 49.2886 25.0764 49.2974 25.216 49.5377C25.5055 50.0358 25.4127 53.3943 25.3316 54.1083C25.2843 54.525 25.1908 54.746 24.9426 54.9938C24.7823 55.0007 24.6335 54.9856 24.478 54.9272C24.3574 54.8817 24.2245 54.7848 24.1652 54.6257C23.9481 54.0442 23.9349 50.5043 24.086 49.8505C24.1567 49.5443 24.3217 49.407 24.5197 49.2662Z" fill="#E53935"/>
<path d="M11.2054 49.2661C11.3664 49.2696 11.5272 49.2762 11.685 49.3077C11.9469 49.3598 12.1734 49.4481 12.3158 49.6663C12.6771 50.2195 12.5999 53.641 12.374 54.3253C12.2616 54.6656 12.0847 54.8154 11.749 54.981C11.5398 55.0024 11.2662 55.0065 11.0661 54.946C10.8944 54.8942 10.7376 54.7842 10.6608 54.6328C10.3409 54.0017 10.353 50.3494 10.6481 49.7035C10.7669 49.4434 10.9278 49.3733 11.2054 49.2661Z" fill="#E53935"/>
<path d="M20.2131 49.2675C20.3534 49.2596 20.5068 49.2867 20.6435 49.3277C20.7713 49.3658 20.8991 49.4673 20.9659 49.6246C21.2092 50.1969 21.1489 53.581 21.0167 54.2915C20.9515 54.6416 20.8238 54.8162 20.6012 54.9908C20.4812 55.0025 20.3367 54.9927 20.2204 54.948C20.0938 54.8994 19.9922 54.7532 19.9284 54.6003C19.6214 53.8644 19.6703 50.7438 19.8361 49.9079C19.9006 49.5823 20.0059 49.4358 20.2131 49.2675Z" fill="#E53935"/>
<path d="M30.3123 9.88438C30.4706 9.87458 30.627 9.87443 30.7844 9.89463C31.0828 9.93286 31.3923 10.0969 31.5685 10.349C31.6774 10.5047 31.7086 10.6576 31.6798 10.8436C31.5621 11.5998 29.616 11.8195 28.9333 12.3248C28.3905 12.7265 28.0177 13.2633 27.9207 13.947C27.8075 14.7454 28.0125 15.6588 28.499 16.3054C28.9392 16.8906 29.6758 17.2782 30.3951 17.3701C31.6722 17.5333 32.9503 16.7626 33.4381 15.5618C33.6537 15.0311 33.4788 14.213 33.9863 13.8349C34.178 13.6919 34.3957 13.6468 34.6292 13.6884C34.8669 13.7308 35.1185 13.8087 35.2541 14.0196C35.5509 14.4818 35.3381 15.2195 35.2413 15.7201C35.0637 16.2962 34.8029 16.8604 34.4433 17.3445C34.3547 17.4658 34.2603 17.5823 34.1601 17.694C34.0598 17.8058 33.9543 17.9122 33.8435 18.0133C33.7325 18.1144 33.6169 18.2097 33.4966 18.2991C33.3764 18.3885 33.2519 18.4716 33.1231 18.5485C32.9945 18.6254 32.8624 18.6955 32.7268 18.759C32.5911 18.8225 32.4527 18.879 32.3114 18.9286C32.1701 18.9781 32.0267 19.0204 31.8811 19.0554C31.7356 19.0905 31.5887 19.1181 31.4405 19.1383C30.2247 19.3136 28.971 19.0245 27.9899 18.2722C27.0059 17.5177 26.3409 16.4292 26.1754 15.1918C26.153 15.0362 26.1384 14.8799 26.1316 14.7229C26.1247 14.5659 26.1255 14.4089 26.1341 14.2519C26.1427 14.095 26.159 13.9389 26.1831 13.7836C26.2071 13.6282 26.2387 13.4745 26.2779 13.3224C26.3171 13.1702 26.3637 13.0204 26.4177 12.8729C26.4717 12.7254 26.5328 12.581 26.601 12.4396C26.6693 12.2982 26.7443 12.1606 26.8262 12.0267C26.908 11.8929 26.9962 11.7634 27.0908 11.6383C27.9213 10.5555 28.9888 10.059 30.3123 9.88438Z" fill="#E53935"/>
</g>
<defs>
<clipPath id="clip0_28012_8337">
<rect width="60" height="60" fill="white"/>
</clipPath>
</defs>
</svg>
