<svg width="53" height="48" viewBox="0 0 53 48" fill="none" xmlns="http://www.w3.org/2000/svg">
<path d="M9.96336 33.2155C8.72683 33.1184 7.65141 32.912 6.80853 31.9113C6.27569 31.2786 6.04687 30.4811 6.11654 29.6593C6.15162 29.2452 6.26322 28.7712 6.44076 28.3963C6.66161 27.9294 7.54481 27.0044 7.43607 26.5081C7.19243 26.4096 5.77578 26.9547 5.28508 26.9821C3.93117 27.0582 0.713704 25.5026 0.155089 24.2386C-0.130015 23.5934 0.0195954 23.117 0.269213 22.4985C0.603951 21.6689 1.13269 20.8816 1.58552 20.1119L3.84101 16.2813L6.84341 11.1719C7.39362 10.233 7.91836 9.24708 8.52514 8.34543C8.77227 7.97834 9.20711 7.31622 9.6214 7.14597C10.2841 6.87361 11.0429 7.01504 11.6742 7.30225C13.0457 7.92623 14.7673 8.92702 15.321 10.4136C15.5756 11.0974 15.6142 11.8005 15.617 12.5228C16.5879 13.0983 17.4845 13.2949 18.5901 13.0063C19.2885 12.8243 19.9633 12.5245 20.6373 12.268C22.8797 11.4151 23.9083 11.9345 25.9455 12.8581C27.5353 12.6125 29.2139 11.8032 30.8151 11.8641C32.943 11.9446 34.0412 13.327 36.5834 13.1257C36.3116 11.992 36.3979 10.7757 37.0095 9.76236C37.685 8.64316 39.6418 7.40588 40.8912 7.10781C41.3345 7.00201 42.14 6.94927 42.5332 7.21787C42.9079 7.47388 43.2806 8.03518 43.5286 8.41242C44.9756 10.6136 46.2435 13.0022 47.5806 15.2765C48.8768 17.4804 50.305 19.6735 51.4909 21.9349C51.6848 22.3047 51.9301 22.7776 51.9883 23.1955C52.0588 23.703 51.8007 24.291 51.4943 24.6798C50.7237 25.6585 48.6301 26.818 47.3928 26.9567C46.7046 27.0339 46.0593 26.9141 45.3859 26.7869L44.2175 27.4439C44.7535 28.5533 45.1198 29.5599 44.7004 30.788C44.6668 30.8881 44.6282 30.9864 44.5848 31.0827C44.5415 31.1788 44.4935 31.2726 44.4406 31.3642C44.388 31.4555 44.3308 31.5439 44.2692 31.6294C44.2076 31.7151 44.1418 31.7975 44.072 31.8764C44.0021 31.9554 43.9285 32.0306 43.8512 32.1021C43.7739 32.1736 43.6932 32.2409 43.6092 32.3041C43.5252 32.3674 43.4382 32.4264 43.3481 32.481C43.2583 32.5356 43.1659 32.5854 43.0709 32.6306C42.4629 32.9259 41.7394 33.0853 41.0663 32.9885C40.9454 32.9713 40.6584 32.8718 40.5542 32.8897C40.0669 32.9729 39.7151 36.3793 36.3334 35.681C36.0024 36.8296 35.5797 37.762 34.4935 38.3629C34.405 38.4119 34.3144 38.4563 34.2217 38.4962C34.1289 38.5361 34.0345 38.5714 33.9384 38.6021C33.8423 38.633 33.7448 38.6591 33.646 38.6803C33.5475 38.7012 33.448 38.7175 33.3476 38.729C33.2475 38.7405 33.147 38.747 33.0462 38.7486C32.9451 38.7502 32.8443 38.7468 32.7437 38.7385C32.6434 38.7301 32.5434 38.7169 32.444 38.6989C32.3447 38.6808 32.2466 38.6579 32.1496 38.6302C31.8727 38.5487 31.6079 38.4309 31.3495 38.3034C30.8548 39.6997 30.2966 40.4755 28.9386 41.1186C28.8845 41.1443 28.8385 41.1667 28.7908 41.2032H27.2026C26.0997 40.6111 25.0124 39.9914 23.9406 39.3441C23.1136 40.0718 22.2879 40.5939 21.1451 40.5161C20.2465 40.4552 19.4401 40.0038 18.8521 39.3251C18.6207 39.0582 18.4517 38.7601 18.2866 38.4488C17.1283 38.6762 16.0756 38.732 15.0495 38.029C14.3035 37.5178 13.9463 36.8154 13.7109 35.9618C12.6462 35.9533 11.6075 35.7178 10.8374 34.9258C10.3499 34.4244 10.1363 33.8848 9.96336 33.2155ZM22.5456 13.821C19.4037 14.3298 18.2186 16.302 14.742 14.3515L10.7619 21.1131C10.1388 22.17 9.40804 23.2253 8.86048 24.3208C8.77398 24.494 8.69185 24.6581 8.72945 24.856C9.5978 25.3936 11.4051 23.4993 13.6308 26.276C14.4262 25.622 15.2576 25.2816 16.2999 25.3858C17.2052 25.4762 17.9965 25.9343 18.5657 26.6434C18.9065 27.068 19.0901 27.5207 19.2282 28.0465C20.3859 28.1301 21.4749 28.3422 22.2758 29.2642C22.882 29.9615 23.1025 30.879 23.0346 31.7895C23.0138 32.0638 22.9597 32.3335 22.9005 32.6018C23.867 32.886 24.6994 33.3549 25.2018 34.2738C25.6407 35.076 25.6786 36.0602 25.4195 36.9284C25.3335 37.218 25.2266 37.4996 25.0989 37.7732C25.969 38.1985 27.4671 39.4466 28.4359 39.113C28.7659 38.9993 29.0563 38.7567 29.1998 38.4326C29.3372 38.122 29.3644 37.7607 29.2377 37.4423C28.8106 36.3688 25.8218 35.6069 26.3232 34.4156C26.426 34.1717 26.6098 33.9399 26.8598 33.8397C27.2292 33.6919 27.6596 33.8441 28.0004 34.0042C29.2186 34.5766 32.2591 37.0569 33.4874 36.6168C33.8077 36.5021 34.1434 36.1885 34.2862 35.8792C34.3994 35.6332 34.3897 35.3775 34.2963 35.1271C34.1659 34.779 33.9021 34.487 33.6191 34.2542C32.9477 33.7014 32.1116 33.2957 31.3592 32.8596C30.4387 32.3217 29.5245 31.7731 28.6167 31.214C28.3976 30.9237 28.2924 30.6787 28.3445 30.3082C28.3788 30.0623 28.4816 29.8444 28.6822 29.6928C28.9141 29.5182 29.1998 29.4976 29.477 29.5456C30.0832 29.6502 33.9475 32.0659 34.7704 32.5676C35.4089 32.9574 36.0615 33.4804 36.7928 33.6709C37.1591 33.7663 37.5637 33.7582 37.8806 33.5285C38.1521 33.3316 38.303 32.9936 38.3433 32.6664C38.35 32.6132 38.354 32.5598 38.3551 32.5064C38.3564 32.4527 38.355 32.3991 38.3507 32.3457C38.3465 32.2922 38.3396 32.2392 38.3302 32.1867C38.3206 32.1339 38.3084 32.0818 38.2936 32.0303C38.2788 31.9787 38.2614 31.9281 38.2415 31.8784C38.2218 31.8288 38.1995 31.7802 38.1746 31.7326C38.1498 31.6853 38.1225 31.6392 38.093 31.5946C38.0636 31.5499 38.032 31.5069 37.9982 31.4657C37.5923 30.9636 36.8217 30.6608 36.2682 30.3427C35.2712 29.7693 31.3646 27.6097 30.8619 27.0027C30.718 26.8295 30.6932 26.6052 30.7093 26.3873C30.7271 26.1454 30.8104 25.8429 31.007 25.6863C31.1898 25.5405 31.504 25.4694 31.7319 25.506C32.4722 25.6251 33.3201 26.2604 33.9602 26.6448C35.6361 27.6506 40.1822 30.6303 41.648 31.016C42.1571 30.8371 42.6017 30.653 42.8608 30.1337C42.9976 29.8596 42.9919 29.5683 42.8938 29.2828C42.8013 29.0141 42.6901 28.8406 42.4663 28.6629C41.1174 27.5931 39.2997 26.6986 37.809 25.8098C34.965 24.1137 32.1375 22.371 29.2535 20.7453C28.6765 21.9663 27.8183 22.9796 26.5214 23.4506C25.802 23.7121 24.903 23.8194 24.194 23.4777C23.7716 23.2743 23.3481 22.8981 23.1966 22.442C22.7621 21.1323 22.8686 16.2837 23.4963 15.0738C23.6721 14.7345 23.905 14.431 24.1358 14.1279C23.6244 13.9837 23.0833 13.7993 22.5456 13.821ZM41.4451 8.96221C40.4235 9.50523 38.7688 10.2225 38.3867 11.4178C38.2455 11.8597 38.3699 12.2768 38.5786 12.672C39.0514 13.5662 40.1388 14.6005 39.83 15.6805C39.7752 15.8716 39.6472 16.0208 39.4745 16.1159C39.2261 16.2529 38.9015 16.2732 38.6337 16.1876C38.225 16.0574 38.0009 15.6561 37.8245 15.2907C37.7523 15.1396 37.684 14.9867 37.6195 14.8319C35.75 15.3875 34.4505 15.1263 32.6691 14.4307C32.1005 14.2084 31.5225 13.979 30.9123 13.9049C30.049 13.7997 26.9949 14.6019 26.2039 15.0339C25.8383 15.2335 25.5375 15.5025 25.3322 15.8696C25.1497 16.1961 25.0569 16.5547 25.0089 16.9232C24.9222 17.5897 24.8372 20.8816 25.0163 21.4477C25.0338 21.5028 25.0647 21.5532 25.0973 21.6003C25.5987 21.6649 26.0251 21.6496 26.4361 21.3232C27.5316 20.4533 27.3817 18.0518 28.4588 18.1557C29.3802 18.2443 36.7938 22.9174 38.3168 23.8014C39.6267 24.6013 41.0166 25.5905 42.4213 26.1924C42.8511 25.9454 43.2826 25.6684 43.7383 25.4745C43.0181 23.9293 42.0328 22.4772 41.1816 20.9997C40.94 20.5802 40.6033 20.1356 40.4309 19.6887C40.3408 19.4542 40.3257 19.1497 40.4171 18.9139C40.5071 18.6801 40.7054 18.4971 40.9343 18.4034C41.151 18.315 41.3688 18.3255 41.5828 18.4165C42.8961 18.9765 44.4631 23.5477 45.7344 24.5708C46.3326 25.0523 46.962 25.0986 47.6657 24.8313C48.4816 24.5214 49.2632 23.9253 50.017 23.478C49.5391 22.3994 48.8754 21.3844 48.2783 20.3687L45.4256 15.5238L42.9049 11.227C42.5144 10.5612 42.1447 9.80973 41.6974 9.18449C41.6312 9.09179 41.5402 9.02243 41.4451 8.96221ZM10.481 8.91721L5.21082 17.8383C4.1198 19.6921 2.92427 21.5414 1.96764 23.4678C2.89282 24.0501 4.03034 24.9321 5.14471 25.0303C5.87216 24.9237 6.293 24.6087 6.72939 24.0247C7.6749 22.7597 8.40107 21.2075 9.21346 19.8416L11.8214 15.4264C12.3094 14.5971 12.8692 13.7581 13.2699 12.8831C13.4583 12.4717 13.6807 11.9013 13.6095 11.4445C13.5179 10.8569 12.9391 10.369 12.4772 10.0496C11.9398 9.67778 11.0992 9.11479 10.481 8.91721ZM19.5366 30.0416C19.2933 30.154 19.0625 30.2724 18.866 30.4588C18.1331 31.1541 16.196 33.8299 15.8542 34.7519C15.7121 35.1349 15.6508 35.6055 15.8322 35.9871C15.9687 36.274 16.2313 36.449 16.5237 36.5494C16.7272 36.6191 16.9785 36.6452 17.1937 36.6374C17.3818 36.5796 17.5938 36.5153 17.7447 36.3837C18.4232 35.7926 20.2911 33.1384 20.7314 32.303C20.9507 31.8869 21.1045 31.4149 20.9645 30.9457C20.874 30.6425 20.6706 30.4104 20.3909 30.2676C20.1228 30.131 19.8304 30.086 19.5366 30.0416ZM15.745 27.3526C15.5574 27.4091 15.3661 27.4734 15.2142 27.6019C14.5167 28.1937 12.6978 30.7795 12.242 31.6288C12.0101 32.0611 11.8256 32.568 11.971 33.0602C12.0545 33.3427 12.2414 33.5627 12.5001 33.6993C12.7717 33.8421 13.0811 33.8661 13.3808 33.8979C13.5663 33.8448 13.7718 33.7849 13.9239 33.6614C14.6767 33.0487 16.3899 30.5847 16.8847 29.6891C17.1246 29.2547 17.3143 28.7387 17.1804 28.2393C17.0992 27.9365 16.9061 27.6923 16.6306 27.5458C16.3745 27.4094 16.0307 27.3793 15.745 27.3526ZM10.4501 26.6729C9.61188 26.9726 8.74827 28.264 8.37438 29.0524C8.17454 29.4736 8.0466 29.9611 8.2155 30.4155C8.31682 30.6879 8.52957 30.8824 8.793 30.9951C9.10186 31.127 9.42565 31.124 9.75397 31.1162C10.5871 30.8381 11.4803 29.3941 11.8649 28.6173C11.9746 28.3957 12.0332 28.1541 12.0846 27.9132C11.9344 27.4953 11.8057 27.0325 11.3748 26.8238C11.1009 26.6911 10.7497 26.6742 10.4501 26.6729ZM21.8243 34.6088C21.0903 35.029 20.3904 35.9878 20.1591 36.811C20.0387 37.24 20.1178 37.6037 20.2322 38.0192C20.7858 38.3646 21.1371 38.4955 21.7951 38.4566C22.5366 37.9907 23.3354 37.0018 23.5323 36.1259C23.6055 35.7997 23.6025 35.4242 23.4164 35.1352C23.2214 34.8338 22.8871 34.6835 22.5453 34.6247C22.3114 34.5844 22.0606 34.6 21.8243 34.6088Z" fill="#E53935"/>
</svg>
