<svg width="53" height="58" viewBox="0 0 53 58" fill="none" xmlns="http://www.w3.org/2000/svg">
<path d="M32.4079 41.6402C33.4998 41.599 40.5207 41.4966 41.0436 41.757C41.2628 41.8661 41.4514 42.0696 41.5205 42.3087C41.5991 42.5801 41.5333 42.8697 41.3929 43.1093C41.2418 43.3668 40.9853 43.4475 40.717 43.52C38.9253 43.57 37.122 43.5284 35.3286 43.5286C34.4186 43.5286 33.4396 43.6141 32.536 43.5397C32.3284 43.5227 32.1106 43.4535 31.9359 43.3374C31.8829 43.3026 31.8338 43.2628 31.7887 43.218C31.7437 43.173 31.7035 43.124 31.6681 43.071C31.6327 43.0179 31.603 42.9616 31.5789 42.9023C31.5548 42.8431 31.5368 42.782 31.5249 42.7192C31.514 42.664 31.5088 42.6083 31.5093 42.5521C31.5098 42.4958 31.5158 42.4402 31.5275 42.3853C31.5391 42.3302 31.5561 42.277 31.5784 42.2256C31.6008 42.1741 31.628 42.1254 31.6601 42.0796C31.8434 41.8152 32.104 41.6981 32.4079 41.6402Z" fill="#EE021B"/>
<path d="M33.0992 24.7618C34.4792 24.7038 35.8778 24.7455 37.2599 24.745C38.2715 24.7447 39.3212 24.685 40.3269 24.7643C40.5976 24.7857 41.0221 24.8234 41.2545 24.9742C41.3871 25.0603 41.4985 25.3425 41.5355 25.4915C41.5929 25.7225 41.5667 25.9491 41.4386 26.151C41.2219 26.4923 40.9543 26.5639 40.5879 26.6378C39.1775 26.6794 37.7557 26.6473 36.3443 26.6503C35.3346 26.6525 34.2805 26.7154 33.2753 26.6272C33.0225 26.605 32.7247 26.5733 32.5086 26.4293C32.3266 26.3081 32.2072 26.1136 32.1669 25.8978C32.1164 25.6291 32.1884 25.3535 32.3408 25.1297C32.5249 24.8596 32.8045 24.8193 33.0992 24.7618Z" fill="#EE021B"/>
<path d="M26.9623 41.1942C27.3005 41.1758 27.6853 41.2093 27.9579 41.4381C28.0846 41.5444 28.1396 41.7005 28.1483 41.8632C28.1745 42.3393 27.8722 42.7667 27.5695 43.1009C27.1296 43.5865 24.4905 46.4232 23.9452 46.4302C23.4656 46.4362 23.1635 46.0755 22.8422 45.7672C22.5183 45.4455 22.1388 45.1186 21.9013 44.7246C21.7659 44.5001 21.6734 44.2323 21.7408 43.9685C21.8027 43.7268 21.9992 43.5128 22.2112 43.3931C22.9388 42.9831 23.2898 43.8383 23.8519 44.0044C24.1545 44.0939 26.3681 41.5245 26.9623 41.1942Z" fill="#EE021B"/>
<path d="M32.4093 46.0709C33.2921 46.0187 34.1881 46.0589 35.073 46.052C35.9006 46.0455 36.781 45.9761 37.6033 46.0647C37.8403 46.0903 38.0918 46.1341 38.2962 46.265C38.4892 46.3883 38.6272 46.5709 38.6742 46.7995C38.728 47.0599 38.6546 47.3375 38.5062 47.5534C38.3077 47.8428 38.0701 47.9246 37.7404 47.9818C36.8091 48.0314 35.8562 47.9988 34.9229 48.0038C34.1772 48.0079 33.3737 48.0701 32.6337 47.9778C32.3959 47.9481 32.1549 47.8815 31.9466 47.7592C31.7507 47.6441 31.5744 47.4627 31.5197 47.2339C31.4581 46.9754 31.557 46.6929 31.6938 46.4756C31.8675 46.1994 32.1158 46.1405 32.4093 46.0709Z" fill="#EE021B"/>
<path d="M32.7765 29.2471C33.5422 29.1541 37.567 29.1045 38.1328 29.3095C38.3367 29.3834 38.5198 29.5205 38.6109 29.7247C38.7157 29.9598 38.7018 30.2798 38.6098 30.5168C38.4974 30.8057 38.2624 30.9213 38.0009 31.0405C37.0846 31.1221 33.6144 31.1886 32.8442 31.0031C32.6226 30.95 32.3954 30.8346 32.2762 30.6284C32.1478 30.4063 32.132 30.0503 32.2054 29.8085C32.2955 29.5113 32.5254 29.3843 32.7765 29.2471Z" fill="#EE021B"/>
<path d="M24.8061 25.1025C25.0619 25.136 25.3144 25.2286 25.5124 25.3992C25.658 25.5246 25.7406 25.6926 25.7524 25.8863C25.779 26.3216 25.4624 26.7437 25.1868 27.0489C24.4203 27.8983 23.5591 28.6718 22.7591 29.489C22.1015 30.1607 21.4596 30.9599 20.7282 31.5427C20.5463 31.6877 20.2933 31.855 20.0544 31.8584C19.341 31.8687 18.2782 30.4965 17.7944 29.9923C17.4472 29.6487 16.8836 29.215 16.7864 28.7161C16.7749 28.6572 16.7691 28.5977 16.769 28.5376C16.769 28.4775 16.7747 28.418 16.7862 28.359C16.7976 28.3 16.8145 28.2427 16.837 28.1871C16.8595 28.1315 16.8871 28.0787 16.9197 28.0285C17.0452 27.84 17.2514 27.6989 17.4727 27.6586C18.3822 27.493 19.3537 29.0569 20.0385 29.5539L20.0588 29.5685C21.0897 28.6279 22.043 27.5485 23.0228 26.5502C23.4402 26.1248 23.8679 25.6265 24.3574 25.287C24.4936 25.1926 24.6476 25.1436 24.8061 25.1025Z" fill="#EE021B"/>
<path d="M23.3799 39.9004C23.5898 39.9059 23.8038 39.9562 24.0106 39.9918C24.231 40.2048 24.3854 40.4243 24.4827 40.7175C24.5264 40.8492 24.5379 40.9992 24.4712 41.1258C24.1331 41.7675 23.1119 41.7872 22.5062 41.9793C22.4169 42.0085 22.3291 42.042 22.2429 42.0796C22.1568 42.1174 22.0726 42.1593 21.9904 42.2053C21.9082 42.2512 21.8283 42.301 21.7509 42.3546C21.6734 42.4084 21.5986 42.4658 21.5265 42.5267C21.4545 42.5877 21.3855 42.6521 21.3195 42.7199C21.2535 42.7875 21.1909 42.8582 21.1316 42.9319C21.0724 43.0058 21.0167 43.0824 20.9647 43.1617C20.9127 43.2409 20.8645 43.3224 20.8202 43.4063C20.4455 44.1318 20.3596 45.087 20.6017 45.8692C20.8317 46.6124 21.4733 47.306 22.1494 47.6602C23.3648 48.2969 24.91 48.0312 25.8277 46.9853C26.1939 46.5676 26.4063 45.7285 26.9741 45.5612C27.2093 45.4917 27.4908 45.5379 27.702 45.6593C27.9069 45.777 28.0805 45.9554 28.1386 46.1923C28.2625 46.6971 27.8665 47.2696 27.6256 47.6808C27.5293 47.8266 27.4246 47.966 27.3115 48.0989C27.2596 48.1621 27.2062 48.224 27.1513 48.2844C27.0964 48.3447 27.04 48.4037 26.9821 48.4613C26.9243 48.5191 26.8652 48.5752 26.8046 48.6298C26.7441 48.6845 26.6822 48.7377 26.6192 48.7892C26.5559 48.8408 26.4915 48.8907 26.4259 48.939C26.3604 48.9874 26.2937 49.0341 26.2258 49.0791C26.158 49.1239 26.0892 49.1671 26.0193 49.2088C25.9493 49.2503 25.8783 49.29 25.8065 49.328C25.7346 49.366 25.6618 49.4021 25.5882 49.4364C25.5146 49.4707 25.4401 49.5032 25.3647 49.5338C25.2895 49.5643 25.2136 49.5929 25.137 49.6197C25.0604 49.6465 24.9831 49.6714 24.9053 49.6942C24.8274 49.7172 24.7491 49.7381 24.6702 49.7571C24.5913 49.7761 24.512 49.7931 24.4324 49.8081C24.3527 49.8231 24.2727 49.8361 24.1923 49.8471C24.112 49.858 24.0315 49.8669 23.9507 49.8739C23.8696 49.8803 23.7883 49.8846 23.707 49.8869C23.6257 49.8891 23.5443 49.8893 23.4629 49.8876C23.3816 49.8858 23.3003 49.8821 23.2192 49.8763C23.138 49.8704 23.057 49.8626 22.9762 49.8529C22.8954 49.843 22.8149 49.8311 22.7347 49.8172C22.6545 49.8035 22.5746 49.7877 22.4952 49.7698C22.4157 49.7519 22.3368 49.7322 22.2583 49.7105C22.1798 49.6888 22.1018 49.6651 22.0245 49.6396C21.9471 49.6139 21.8704 49.5864 21.7944 49.557C21.7184 49.5275 21.6431 49.4962 21.5686 49.4632C21.4941 49.43 21.4204 49.395 21.3476 49.3581C21.2747 49.3213 21.2028 49.2827 21.1319 49.2423C21.0609 49.2019 20.991 49.1598 20.922 49.1159C20.8531 49.072 20.7853 49.0265 20.7186 48.9793C20.6518 48.932 20.5863 48.8832 20.5219 48.8328C20.4576 48.7822 20.3945 48.7301 20.3326 48.6765C19.3314 47.8022 18.7487 46.6272 18.655 45.2926C18.5603 43.9434 18.9492 42.627 19.8289 41.6005C20.7803 40.4904 21.9549 40.0028 23.3799 39.9004Z" fill="#EE021B"/>
<path d="M25.8137 6.90771H34.6862C35.7669 7.49844 36.7545 7.95561 37.1386 9.25061C37.2975 9.7852 37.3274 10.3721 37.2965 10.9271L42.7315 10.9359C43.7686 10.9376 44.965 10.8198 45.9759 11.0457C46.4476 11.1511 46.7815 11.3307 47.1227 11.6801C47.4739 12.0393 47.6501 12.4909 47.7053 12.9871C47.8196 14.0117 47.7469 15.1105 47.7445 16.1423L47.7379 21.8138L47.7398 33.1704C47.7403 34.8283 47.7842 36.4959 47.7547 38.1524C47.7466 38.6052 47.6574 39.1057 47.32 39.4314C47.1749 39.5717 46.9847 39.6684 46.781 39.6622C46.5595 39.6555 46.3527 39.5324 46.2062 39.3687C46.037 39.1794 45.9318 38.9142 45.9108 38.6605C45.8419 37.83 45.9006 36.9408 45.9009 36.1055L45.9032 30.9306L45.9053 13.9685C45.9044 13.7776 45.9518 13.1248 45.8534 12.9777C45.8034 12.903 45.343 12.8752 45.2543 12.869C44.2252 12.7963 43.0932 12.9964 42.0861 12.8299C42.07 13.952 42.0653 15.0866 41.2182 15.9292C40.8548 16.2905 40.3156 16.6025 39.8096 16.6862C39.1277 16.7991 38.3667 16.7403 37.6755 16.7409L33.9084 16.7411C29.8926 16.7398 25.8683 16.8017 21.8536 16.7392C20.8468 16.7235 19.9808 16.6208 19.2495 15.853C18.4718 15.0365 18.5026 13.9406 18.5104 12.8817C17.2659 12.848 15.9688 12.7773 14.7309 12.9132C14.5085 14.2508 14.6414 15.904 14.6433 17.2726C14.6451 18.5868 14.5583 19.9699 14.6961 21.2753C16.396 19.539 18.7647 18.6321 21.1633 18.6244C21.3189 18.6231 21.4745 18.6258 21.63 18.6324C21.7855 18.639 21.9407 18.6495 22.0957 18.6641C22.2507 18.6786 22.4052 18.697 22.5593 18.7194C22.7134 18.7418 22.8668 18.7681 23.0196 18.7982C23.1723 18.8284 23.3242 18.8625 23.4753 18.9004C23.6264 18.9383 23.7765 18.9801 23.9255 19.0257C24.0745 19.0712 24.2223 19.1206 24.3689 19.1737C24.5155 19.2267 24.6607 19.2835 24.8045 19.344C24.9481 19.4045 25.0903 19.4686 25.2309 19.5363C25.3715 19.604 25.5104 19.6753 25.6474 19.7501C25.7844 19.8249 25.9195 19.9031 26.0528 19.9847C26.186 20.0664 26.3172 20.1514 26.4462 20.2398C26.5752 20.3281 26.7019 20.4197 26.8263 20.5145C26.9508 20.6093 27.0728 20.7072 27.1923 20.8082C27.312 20.9092 27.4291 21.0132 27.5434 21.1202C27.658 21.2271 27.7697 21.3369 27.8788 21.4496C27.9887 21.5598 28.0959 21.6726 28.2004 21.7882C28.3049 21.9037 28.4065 22.0219 28.5053 22.1425C28.6039 22.2632 28.6996 22.3863 28.7922 22.5118C28.8849 22.6373 28.9744 22.7651 29.0608 22.8951C29.1471 23.0252 29.2303 23.1573 29.3102 23.2915C29.3901 23.4257 29.4666 23.5618 29.5398 23.6999C29.6131 23.838 29.6829 23.9778 29.7493 24.1194C29.8157 24.261 29.8786 24.4042 29.9379 24.549C29.9972 24.6937 30.053 24.8399 30.1052 24.9875C30.1574 25.1351 30.206 25.2839 30.251 25.4339C30.2959 25.5839 30.337 25.735 30.3744 25.8871C30.412 26.0392 30.4458 26.1922 30.4757 26.346C30.5057 26.4998 30.532 26.6542 30.5545 26.8094C30.5768 26.9645 30.5954 27.1201 30.6102 27.2762C30.6251 27.4322 30.6361 27.5886 30.6432 27.7452C30.6503 27.9018 30.6536 28.0585 30.6531 28.2153C30.6533 28.3719 30.6497 28.5283 30.6423 28.6847C30.6347 28.8411 30.6234 28.9972 30.6083 29.153C30.5932 29.3089 30.5743 29.4642 30.5516 29.6191C30.529 29.7739 30.5026 29.9281 30.4724 30.0817C30.442 30.2352 30.408 30.3879 30.3704 30.5397C30.3327 30.6916 30.2913 30.8424 30.2463 30.9921C30.2013 31.1419 30.1526 31.2905 30.1002 31.4378C30.0478 31.5851 29.992 31.7309 29.9327 31.8753C29.8732 32.0199 29.8103 32.1628 29.7439 32.3042C29.6774 32.4456 29.6075 32.5851 29.5344 32.7228C29.4611 32.8607 29.3844 32.9966 29.3045 33.1307C29.2248 33.2645 29.1417 33.3964 29.0553 33.5263C28.969 33.656 28.8795 33.7835 28.787 33.9088C28.6945 34.0342 28.599 34.1571 28.5003 34.2776C28.4017 34.3981 28.3002 34.516 28.1959 34.6314C28.0916 34.7469 27.9846 34.8596 27.8748 34.9696C27.7649 35.0806 27.6525 35.1889 27.5373 35.2944C27.4222 35.3997 27.3045 35.5021 27.1843 35.6017C27.0641 35.7011 26.9416 35.7975 26.8166 35.8908C26.6917 35.9841 26.5646 36.0743 26.4353 36.1613C26.306 36.2481 26.1746 36.3316 26.0412 36.4119C25.9078 36.4923 25.7725 36.5692 25.6354 36.6426C25.4982 36.7161 25.3593 36.7861 25.2189 36.8525C25.0782 36.919 24.9361 36.982 24.7925 37.0413C24.6487 37.1007 24.5036 37.1564 24.3572 37.2084C24.2108 37.2604 24.0633 37.3087 23.9145 37.3532C23.7657 37.3979 23.616 37.4387 23.4652 37.4757C23.3145 37.5128 23.1629 37.546 23.0105 37.5753C22.8581 37.6048 22.7051 37.6304 22.5515 37.6521C22.3978 37.6738 22.2437 37.6916 22.0892 37.7055C21.9347 37.7194 21.78 37.7295 21.625 37.7357C21.47 37.7417 21.3149 37.744 21.1598 37.7424C19.7424 37.7366 18.4361 37.4025 17.1319 36.8628C16.4469 37.5444 15.7049 38.2151 15.0757 38.9482C15.3159 39.2268 15.5647 39.4946 15.5353 39.8943C15.5007 40.3651 14.9775 40.8173 14.7013 41.1768C14.6105 41.9094 14.6506 42.6758 14.65 43.4144L14.6468 47.0254L14.6464 50.4689C14.6467 51.1955 14.5877 51.9921 14.7214 52.7063C14.8232 52.8341 14.9806 52.8578 15.1336 52.8731C15.6904 52.9293 16.282 52.886 16.8426 52.8858L20.2121 52.8855L31.0316 52.8853L40.9614 52.8865L43.9255 52.8877C44.5464 52.8875 45.2 52.9207 45.8159 52.8396C46.0231 51.3748 45.9034 49.7877 45.8999 48.3069C45.8987 47.7767 45.8541 47.1824 45.9518 46.6626C45.9889 46.4656 46.0807 46.2691 46.2411 46.1456C46.4396 45.9924 46.7173 45.9407 46.9606 45.9783C47.1897 46.0139 47.4156 46.1202 47.5562 46.3134C47.8724 46.748 47.7898 52.174 47.6556 52.9566C47.5385 53.6385 47.2627 54.0021 46.7107 54.3905C46.5042 54.5358 46.26 54.6301 46.0604 54.7769H14.4912C14.1186 54.5629 13.7208 54.3456 13.4048 54.0483C13.0991 53.7608 12.9675 53.4274 12.8948 53.0222C12.717 52.032 12.8173 50.8925 12.8181 49.8837C12.8199 47.6022 12.88 45.3055 12.8075 43.0259L10.2344 45.6408C9.59283 46.2949 8.95723 47.0233 8.20138 47.5436C7.7131 47.8799 7.17064 48.135 6.58399 48.2255C5.38538 48.4107 4.16749 48.153 3.18651 47.4172C3.07734 47.3352 2.97238 47.248 2.87161 47.1556C2.77085 47.0632 2.67476 46.9661 2.58336 46.8643C2.49195 46.7624 2.40567 46.6562 2.3245 46.5458C2.24333 46.4352 2.16766 46.3209 2.0975 46.203C2.02734 46.0851 1.96302 45.964 1.90453 45.8397C1.84605 45.7152 1.79368 45.5882 1.74742 45.4586C1.70117 45.3292 1.66126 45.1978 1.62768 45.0642C1.5941 44.9306 1.56703 44.7958 1.54644 44.6597C1.37067 43.4692 1.62846 42.2277 2.33985 41.2545C3.15837 40.1351 4.91791 38.5557 5.9423 37.5186C6.96289 36.4851 7.9555 35.302 9.05542 34.3626C9.23783 34.2068 9.44051 34.0555 9.6838 34.0246C10.0745 33.9751 10.3815 34.2264 10.6742 34.4492C11.3417 33.7521 12.0182 33.0639 12.7036 32.3846C12.1247 31.0366 11.8314 29.7039 11.8137 28.2347C11.802 27.2655 11.9104 26.2627 12.2146 25.3403C12.4341 24.6748 12.7458 24.059 12.8024 23.3484C12.874 22.4497 12.8247 21.5118 12.8234 20.6081C12.8199 18.2412 12.7366 15.8478 12.8234 13.4841C12.8549 12.6262 13.0071 12.0634 13.6433 11.4688C13.9741 11.1596 14.3669 11.0609 14.8029 10.9953C15.8901 10.8317 17.1002 10.9317 18.2036 10.9327C19.8753 10.9343 21.5587 10.8901 23.2283 10.9568C23.2163 10.3924 23.2599 9.80906 23.4201 9.26646C23.8006 7.97716 24.7283 7.50078 25.8137 6.90771ZM21.2803 35.8614C21.4044 35.8604 21.5283 35.8563 21.6521 35.8492C21.7759 35.842 21.8994 35.8317 22.0228 35.8183C22.1461 35.805 22.269 35.7887 22.3915 35.7692C22.514 35.7497 22.636 35.7272 22.7575 35.7017C22.8789 35.6762 22.9996 35.6477 23.1197 35.6163C23.2397 35.5847 23.359 35.5502 23.4773 35.5129C23.5957 35.4754 23.7131 35.435 23.8296 35.3918C23.946 35.3484 24.0613 35.3022 24.1755 35.2532C24.2897 35.2042 24.4027 35.1523 24.5143 35.0976C24.626 35.0429 24.7363 34.9854 24.8453 34.9253C24.9542 34.8651 25.0615 34.8023 25.1674 34.7369C25.2733 34.6713 25.3775 34.6032 25.4801 34.5325C25.5827 34.4618 25.6835 34.3887 25.7826 34.313C25.8816 34.2372 25.9787 34.1591 26.074 34.0787C26.1692 33.9981 26.2624 33.9152 26.3537 33.83C26.4449 33.7448 26.534 33.6575 26.621 33.568C26.708 33.4783 26.7928 33.3865 26.8754 33.2927C26.958 33.1989 27.0383 33.1031 27.1163 33.0053C27.1942 32.9073 27.2697 32.8076 27.3429 32.7061C27.416 32.6044 27.4867 32.501 27.5548 32.3959C27.6227 32.2907 27.6883 32.184 27.7513 32.0756C27.8143 31.9673 27.8745 31.8574 27.9321 31.7461C27.9897 31.6347 28.0446 31.5219 28.0968 31.4079C28.149 31.2938 28.1984 31.1784 28.245 31.0618C28.2916 30.9453 28.3353 30.8277 28.3762 30.7089C28.4171 30.5901 28.4551 30.4704 28.4902 30.3498C28.5254 30.2292 28.5576 30.1077 28.5867 29.9855C28.6159 29.8633 28.6422 29.7404 28.6655 29.6168C28.6888 29.4933 28.7091 29.3692 28.7264 29.2447C28.7437 29.1201 28.758 28.9952 28.7693 28.8699C28.7805 28.7447 28.7887 28.6192 28.7939 28.4935C28.7991 28.3679 28.8012 28.2421 28.8002 28.1164C28.7993 27.9906 28.7954 27.8649 28.7884 27.7393C28.7814 27.6137 28.7713 27.4884 28.7582 27.3633C28.7452 27.2382 28.7291 27.1135 28.7101 26.9892C28.6911 26.865 28.669 26.7412 28.6438 26.618C28.6188 26.4949 28.5908 26.3724 28.5598 26.2506C28.5286 26.1288 28.4947 26.0078 28.4578 25.8878C28.421 25.7677 28.3813 25.6485 28.3387 25.5304C28.296 25.4123 28.2506 25.2953 28.2023 25.1794C28.154 25.0636 28.1029 24.949 28.0491 24.8357C27.9953 24.7224 27.9388 24.6104 27.8795 24.4999C27.8203 24.3894 27.7585 24.2805 27.694 24.1731C27.6293 24.0656 27.5622 23.9599 27.4927 23.8558C27.423 23.7517 27.3509 23.6494 27.2763 23.5489C27.2018 23.4484 27.1248 23.3498 27.0455 23.2532C26.9661 23.1565 26.8844 23.0619 26.8006 22.9693C26.7166 22.8767 26.6305 22.7862 26.5422 22.6979C26.4539 22.6096 26.3636 22.5236 26.2711 22.4397C26.1786 22.3559 26.0841 22.2745 25.9877 22.1953C25.8912 22.1162 25.793 22.0396 25.6929 21.9654C25.5927 21.8911 25.4909 21.8195 25.3873 21.7503C25.2837 21.6812 25.1784 21.6146 25.0716 21.5507C24.9648 21.4868 24.8566 21.4256 24.7469 21.3671C24.6371 21.3086 24.5259 21.2528 24.4134 21.1998C24.301 21.1468 24.1873 21.0967 24.0724 21.0493C23.9575 21.002 23.8415 20.9575 23.7245 20.916C23.6074 20.8744 23.4894 20.8358 23.3705 20.8001C23.2516 20.7645 23.1319 20.7317 23.0114 20.702C22.8909 20.6723 22.7697 20.6456 22.6479 20.6219C22.5261 20.5982 22.4038 20.5775 22.281 20.5599C22.1583 20.5423 22.0351 20.5278 21.9116 20.5163C21.7881 20.5048 21.6644 20.4964 21.5405 20.4911C21.4166 20.4858 21.2927 20.4836 21.1687 20.4844C21.0446 20.4853 20.9205 20.4892 20.7966 20.4963C20.6727 20.5033 20.5491 20.5134 20.4256 20.5266C20.3022 20.5398 20.1792 20.556 20.0565 20.5754C19.9339 20.5947 19.8118 20.617 19.6903 20.6424C19.5687 20.6678 19.4478 20.6963 19.3277 20.7277C19.2075 20.7591 19.0881 20.7935 18.9696 20.8309C18.8511 20.8682 18.7336 20.9085 18.617 20.9518C18.5005 20.995 18.385 21.0411 18.2707 21.09C18.1564 21.139 18.0433 21.1908 17.9315 21.2454C17.8196 21.3 17.7092 21.3574 17.6002 21.4175C17.4911 21.4776 17.3836 21.5404 17.2776 21.6059C17.1716 21.6714 17.0672 21.7394 16.9645 21.8101C16.8618 21.8807 16.7609 21.9539 16.6617 22.0296C16.5626 22.1053 16.4653 22.1834 16.3699 22.264C16.2745 22.3445 16.1812 22.4274 16.0898 22.5126C15.9984 22.5977 15.9092 22.6852 15.8221 22.7748C15.7349 22.8644 15.65 22.9562 15.5673 23.0501C15.4846 23.1439 15.4043 23.2398 15.3262 23.3377C15.2482 23.4355 15.1725 23.5353 15.0993 23.6369C15.0261 23.7386 14.9554 23.842 14.8872 23.9471C14.8189 24.0523 14.7533 24.1591 14.6903 24.2675C14.6272 24.376 14.5669 24.4859 14.5091 24.5973C14.4514 24.7088 14.3965 24.8216 14.3442 24.9358C14.292 25.0499 14.2425 25.1654 14.1958 25.282C14.1492 25.3986 14.1053 25.5164 14.0644 25.6352C14.0234 25.754 13.9854 25.8738 13.9502 25.9945C13.915 26.1152 13.8828 26.2368 13.8535 26.3591C13.8243 26.4814 13.798 26.6044 13.7746 26.728C13.7513 26.8517 13.731 26.9758 13.7137 27.1004C13.6964 27.2251 13.6821 27.3501 13.6708 27.4755C13.6596 27.6008 13.6513 27.7264 13.6462 27.8522C13.641 27.9779 13.6389 28.1038 13.6398 28.2296C13.6407 28.3555 13.6446 28.4813 13.6517 28.607C13.6587 28.7326 13.6687 28.8581 13.6818 28.9832C13.6949 29.1084 13.711 29.2332 13.7301 29.3576C13.7492 29.482 13.7713 29.6058 13.7965 29.729C13.8216 29.8523 13.8496 29.9749 13.8807 30.0968C13.9118 30.2186 13.9457 30.3397 13.9827 30.4599C14.0196 30.58 14.0594 30.6992 14.1021 30.8174C14.1447 30.9356 14.1903 31.0527 14.2386 31.1685C14.287 31.2845 14.3381 31.3992 14.392 31.5127C14.4459 31.626 14.5025 31.7379 14.5619 31.8485C14.6212 31.9591 14.6832 32.0681 14.7478 32.1754C14.8124 32.283 14.8795 32.3889 14.9493 32.4931C15.019 32.5971 15.0912 32.6994 15.1659 32.7999C15.2406 32.9004 15.3177 32.999 15.3971 33.0957C15.4766 33.1924 15.5583 33.2871 15.6424 33.3798C15.7264 33.4724 15.8127 33.5628 15.9011 33.6512C15.9895 33.7395 16.08 33.8256 16.1726 33.9095C16.2652 33.9933 16.3598 34.0747 16.4563 34.1539C16.5529 34.2329 16.6513 34.3094 16.7515 34.3836C16.8518 34.4578 16.9537 34.5296 17.0575 34.5988C17.1612 34.6679 17.2665 34.7344 17.3735 34.7982C17.4804 34.862 17.5888 34.9232 17.6987 34.9818C17.8086 35.0402 17.9199 35.0959 18.0325 35.1488C18.1451 35.2018 18.2589 35.2519 18.3739 35.2991C18.4889 35.3464 18.605 35.3907 18.7222 35.4322C18.8394 35.4737 18.9575 35.5122 19.0765 35.5478C19.1956 35.5834 19.3154 35.616 19.436 35.6457C19.5567 35.6752 19.6779 35.7018 19.7998 35.7254C19.9217 35.749 20.0441 35.7696 20.167 35.7872C20.2899 35.8046 20.4132 35.8189 20.5368 35.8302C20.6604 35.8416 20.7842 35.8499 20.9082 35.8551C21.0322 35.8602 21.1562 35.8623 21.2803 35.8614ZM13.8223 37.5686C14.379 36.9832 14.9969 36.4152 15.5142 35.7975C15.1261 35.4789 14.7609 35.1512 14.4084 34.7922C14.1747 34.5543 13.9433 34.2477 13.6781 34.0524C13.1175 34.6404 12.5483 35.2196 11.9704 35.79C12.2731 36.1644 13.4162 37.4647 13.8223 37.5686ZM27.3778 8.79105C26.7008 8.80289 25.9763 8.77539 25.4692 9.32042C24.4366 10.43 26.1304 12.7526 23.8254 12.8552C23.0906 12.8878 21.0022 12.9443 20.3755 12.8238C20.3566 13.3431 20.228 14.1453 20.6027 14.5576C20.8841 14.8672 21.5809 14.864 21.9704 14.8698C25.709 14.9251 29.4572 14.8693 33.1969 14.8691L37.2441 14.8725C38.016 14.8725 38.878 14.9402 39.6386 14.7985C39.9578 14.5562 40.1303 14.341 40.1865 13.9215C40.2318 13.582 40.2044 13.2112 40.1985 12.8683C39.4724 12.8569 38.7461 12.8517 38.0198 12.8527C37.4825 12.8567 36.9072 12.9071 36.3772 12.8282C36.1348 12.7922 35.8722 12.7348 35.699 12.5466C34.8804 11.6581 36.4848 8.95528 33.8541 8.80218C32.8253 8.74229 31.7811 8.77655 30.7503 8.77753C29.6285 8.77861 28.4989 8.75261 27.3778 8.79105ZM9.78159 36.3274C8.59846 37.3388 7.5323 38.5672 6.43603 39.6763C5.5895 40.5329 4.49207 41.4434 3.80954 42.4115C3.53465 42.8014 3.36291 43.2442 3.32159 43.7229C3.26506 44.3775 3.4636 44.9919 3.88036 45.4934C4.33777 46.0436 4.88282 46.3449 5.59256 46.4048C5.93775 46.434 6.31469 46.4029 6.63534 46.2648C6.9245 46.1475 7.15911 46.006 7.3998 45.805C8.26045 45.0867 9.04065 44.1918 9.8301 43.3902C10.9917 42.211 12.1902 41.0506 13.3096 39.8307C12.7097 39.2232 10.2737 36.5851 9.78159 36.3274Z" fill="#EE021B"/>
<path d="M28.5665 10.8793C29.4481 10.842 31.596 10.7134 32.3077 10.9977C32.5347 11.0884 32.7537 11.244 32.8464 11.4818C32.937 11.7138 32.8896 11.9867 32.7962 12.2097C32.6609 12.5319 32.3848 12.65 32.0878 12.7762C31.2703 12.8311 28.7733 12.9365 28.1066 12.5945C27.9188 12.4982 27.7557 12.3524 27.693 12.1427C27.6134 11.8761 27.7156 11.532 27.8504 11.2987C28.0127 11.0172 28.2777 10.9551 28.5665 10.8793Z" fill="#EE021B"/>
<path d="M45.8528 31.3111C45.8518 30.7886 46.2759 30.3649 46.7984 30.3664C47.3182 30.3678 47.7389 30.7896 47.7389 31.3094V41.6365C47.7389 42.1523 47.3208 42.5704 46.805 42.5704C46.2899 42.5704 45.8721 42.1533 45.8712 41.6382L45.8528 31.3111Z" fill="#EE021B"/>
</svg>
