<svg width="233" height="49" viewBox="0 0 233 49" fill="none" xmlns="http://www.w3.org/2000/svg">
<path d="M53.735 3.63672C54.5309 4.41761 55.3516 5.05489 56.323 5.60488C55.9344 6.66611 55.323 7.91512 55.2964 9.04429C55.5348 9.30619 55.6505 9.30554 55.9845 9.38064C56.1125 9.44669 56.4724 9.68436 56.594 9.64255C57.488 9.33492 58.6245 6.39359 59.1112 5.55674C59.7323 6.45273 60.4789 7.20549 61.2392 7.98026C60.628 9.06726 59.9918 10.1394 59.3308 11.1968C59.8194 11.5306 60.3054 11.8955 60.822 12.1841C61.8642 10.9981 62.9455 9.86316 64.054 8.7392C64.3815 9.8754 64.8025 10.7578 65.4477 11.7453C64.8922 12.2848 62.9351 13.7013 62.885 14.3724C63.1709 14.8167 63.282 15.1136 63.7759 15.3435C65.2677 15.1846 66.5615 13.8255 67.6973 12.9208C67.9331 14.0467 68.2099 15.1803 68.3477 16.3228C67.2782 16.9625 66.1177 17.5613 65.1092 18.2899L66.093 19.7279C67.4926 19.2005 68.8746 18.6952 70.3197 18.3045C70.2625 19.3738 70.1761 20.452 70.2073 21.5227C69.0091 21.8357 67.8129 22.166 66.6004 22.4173C66.655 22.9332 66.6485 23.5145 67.0254 23.9073C68.2814 24.6153 70.1501 24.0676 71.5316 23.9445C71.1807 25.0778 70.8434 26.1922 70.3204 27.2611C69.5348 27.11 67.8519 26.5869 67.1469 27.0631C66.8987 27.2305 66.7499 27.42 66.7005 27.7196C66.6414 28.0746 66.7115 28.526 66.7395 28.8862C67.5309 29.0002 70.1638 29.1669 70.6206 29.7596C70.6401 29.785 70.6563 29.8117 70.6745 29.8378C70.6946 29.8665 70.7154 29.8951 70.7349 29.9238C70.7837 29.9948 70.8265 30.0671 70.8688 30.142L71.1124 30.1244C71.8142 29.1213 73.9741 20.6088 74.5764 18.5674C75.3977 18.5302 76.234 18.4621 77.0553 18.4864L79.9169 27.0917C80.3542 28.4394 80.9351 29.871 81.1501 31.2714C77.0832 31.3268 78.9468 30.465 77.3905 29.9446C76.7252 29.7219 75.1079 29.5108 74.4822 29.8417C74.4055 30.1335 74.2541 30.7647 74.0241 30.9522C73.4243 31.4407 72.4055 31.3404 71.6771 31.2538C71.1553 31.1913 70.9208 30.9106 70.6076 30.5119L69.3444 32.6842C68.2288 32.2373 66.9676 31.627 65.7876 31.4271C65.4244 31.1385 65.2905 31.1248 64.8285 31.0897L64.5998 32.1168L64.7791 32.6164L65.347 32.8007C65.7863 33.7908 68.401 34.7522 69.4205 35.2739C68.5374 36.0242 67.6693 36.8156 66.757 37.5282C65.8902 36.9316 64.7122 35.75 63.6303 35.9246L62.9494 36.4802C63.0358 37.6969 65.2268 39.3422 66.1287 40.2098C65.1086 40.6507 64.104 41.0988 63.117 41.6121C62.4335 40.8585 61.4373 39.2809 60.4322 39.1403L59.8448 39.4438C59.6745 39.7779 59.4919 39.9824 59.6128 40.3746C60.0079 41.657 61.1995 42.864 61.8422 44.0677C60.6641 44.2396 59.4783 44.4474 58.2879 44.5047C58.0098 43.8019 57.3899 41.8388 56.6544 41.5216C56.5712 41.4851 56.501 41.4669 56.412 41.4486C56.0761 41.6707 55.5738 41.8837 55.4685 42.298C55.182 43.43 56.2652 45.4961 56.6121 46.6242C55.5082 46.5271 54.375 46.3708 53.2671 46.3949C53.0079 45.3749 52.9409 43.514 52.0455 42.8933C51.644 42.8243 51.2613 42.8067 50.8545 42.8028C50.8812 44.4448 50.7648 46.0595 50.8422 47.7093C49.8064 47.3843 48.8019 46.9876 47.7551 46.6854C47.7649 45.7781 48.1242 44.295 47.7603 43.5023C47.6446 43.2502 47.3821 42.9721 47.1053 42.8868C46.733 42.7728 46.6219 42.879 46.3068 43.0574C45.4893 44.1295 45.4432 46.064 45.2554 47.3758C44.2522 46.9772 43.3016 46.2405 42.3946 45.6537C42.6788 44.4982 43.0234 43.3655 43.373 42.2283L41.8836 41.3724C41.0689 42.7116 40.2751 44.1504 39.7553 45.6315C38.8763 44.8402 38.0884 43.9152 37.2802 43.0509C37.8409 42.2941 38.612 41.418 38.9144 40.5224C39.1088 39.9466 38.997 39.761 38.7379 39.249C38.5936 39.236 38.4504 39.2243 38.3055 39.2223C37.2752 39.2086 35.3723 41.717 34.6486 42.4328C34.2072 41.5209 33.2811 40.0118 33.6076 39.0445C34.1666 38.4564 35.4052 37.7334 35.6461 36.9661C35.7714 36.5668 35.5327 36.3356 35.3439 35.9904C35.2487 35.8992 35.0973 35.6947 34.9673 35.7005C34.1563 35.7363 33.055 36.6443 32.3949 37.0911L30.827 38.0369C30.7118 36.9817 30.4026 35.9187 30.163 34.885C31.1502 34.2122 32.3473 33.8019 33.2776 33.0684L32.8985 31.7938L32.7703 31.6694C32.0784 31.4179 29.1538 32.5259 28.3137 32.748C28.3754 31.6025 28.4512 30.4579 28.541 29.3141C28.7683 29.3215 28.9953 29.3159 29.222 29.2972C29.942 29.2386 31.3506 29.1161 31.8168 28.4856C32.0428 28.1795 31.8706 27.6304 31.8219 27.2617C31.7768 27.2083 31.7672 27.192 31.7113 27.1471C30.9258 26.5075 28.1059 27.0592 27.1455 27.1907C27.497 26.1434 27.7879 25.0706 28.1005 24.0109C29.2321 24.0636 30.5534 24.4421 31.5935 23.8963C31.9519 23.3812 31.9192 22.9941 31.9725 22.3825C30.4694 22.2139 28.9806 21.6019 27.4752 21.3354C28.122 20.3776 28.7552 19.4197 29.5112 18.5431C30.3413 18.9632 31.5647 19.4711 32.4924 19.4785C32.7404 19.4805 32.8041 19.3417 32.9748 19.1757C33.1406 18.7285 33.1893 18.4598 33.1014 17.9888C32.6641 17.3804 30.0883 16.2832 29.2488 15.8233C30.101 15.075 30.9446 14.3506 31.8755 13.6996C32.5927 14.144 33.3081 14.6131 34.0481 15.0184C34.5482 15.2922 34.7862 15.2992 35.3109 15.1442C35.4901 14.9025 35.5986 14.6768 35.704 14.3953C35.4758 13.2588 33.3519 11.7786 32.4859 10.975L35.5333 9.53221C36.2591 10.5 37.2278 11.3399 38.0877 12.1901L39.3352 11.1668C38.4711 9.81192 37.638 8.43822 36.8358 7.04565C37.5951 6.99413 39.3177 6.41587 39.9021 6.4883C40.7163 6.58932 40.8685 8.99909 41.922 9.40051C42.1665 9.49365 42.558 9.4889 42.7986 9.37133C42.9126 9.31571 43.1807 9.16368 43.2151 9.04579C43.4478 8.25558 42.2947 5.32343 41.9046 4.54514C43.0275 4.71391 44.195 4.71964 45.3289 4.77794C45.5777 5.64663 45.6375 6.60423 45.9559 7.44941C46.1573 7.98521 46.3126 8.05125 46.8058 8.26913L47.9201 8.0054C48.3529 7.53982 48.8656 7.23695 49.438 6.9755C49.8422 6.79065 50.2613 6.64631 50.6817 6.8068L50.7681 8.13945C51.3769 8.13665 51.8422 8.22028 52.3789 7.90516C53.1664 6.7145 53.2405 5.0018 53.735 3.63672ZM34.1482 27.0618C33.6183 26.9217 33.2476 26.8462 32.7576 27.1354C32.6528 27.1973 32.5543 27.2669 32.4562 27.3386C32.9855 28.3254 33.4287 28.0069 34.0512 28.6094C34.4643 29.0086 34.5966 30.1166 35.0844 30.6689L35.3448 30.6728L35.4487 30.4051C35.3376 29.5805 34.8493 28.4478 34.2729 27.8414C34.1129 27.6734 34.1601 27.2982 34.1482 27.0618ZM59.6784 38.6263C59.7375 38.5319 59.8149 38.4179 59.8396 38.3085C59.9312 37.9001 59.5413 37.5627 59.3158 37.2618C58.7388 37.495 58.5075 37.7138 58.2632 38.289C58.1909 38.4609 58.1239 38.635 58.0624 38.8113C58.6797 38.8947 59.1047 38.8804 59.6784 38.6263ZM60.9292 35.7175C61.5108 35.92 61.9617 35.965 62.5744 35.9304C62.6089 35.5214 62.5972 35.1931 62.5101 34.7919C62.1501 34.5268 62.0247 34.5496 61.5894 34.5209C61.3672 34.9124 61.1131 35.3078 60.9292 35.7175ZM48.4413 17.7633C48.3143 23.8342 48.3146 29.9049 48.4419 35.9754C48.8838 36.3629 49.616 36.3206 50.2002 36.2809C50.4867 36.2607 50.785 36.2483 51.0585 36.1565C51.299 35.8327 51.6966 35.7253 52.0579 35.582C52.0832 35.5742 52.1086 35.5663 52.1339 35.5592C53.1021 35.2798 53.9552 34.2852 54.6238 33.5674C54.5537 32.5415 54.2827 28.4478 54.6524 27.7164C55.2366 28.1756 55.6518 29.7648 56.015 30.5009L56.1326 30.5347C56.7811 29.2548 57.1027 27.7978 57.6297 26.458C57.6427 27.6916 57.0488 30.6826 57.7311 31.6414C57.809 31.7508 58.0105 31.7417 58.1404 31.7632C58.863 31.4766 59.4198 30.7002 59.9351 30.1355C60.0241 28.5905 60.26 20.9511 59.9474 19.9558C59.8539 19.6586 59.579 19.2695 59.299 19.1273C58.9585 18.9545 58.8233 19.0069 58.4744 19.1155C57.6173 19.9164 56.336 25.5617 56.0683 26.9341C55.49 24.3287 54.5693 21.7956 53.9422 19.1962C53.3223 19.1065 52.6979 18.9989 52.0761 18.9282L52.0852 20.9775C52.1099 25.266 51.991 29.5616 52.0663 33.8475C51.7421 33.8898 51.4049 33.9562 51.0787 33.9608C51.1294 30.5862 51.0455 27.2064 51.067 23.8311C51.0774 22.2859 50.9994 20.6703 51.1989 19.1375C51.1826 18.7215 51.1411 18.3595 51.3509 17.9836C51.9767 17.5961 53.0488 17.7899 53.7817 17.7917L57.3594 17.7702C56.746 16.7803 55.9676 15.9305 55.2008 15.0601C51.334 15.2453 47.4621 15.0376 43.594 15.1454C43.0572 15.9047 42.2234 16.7222 41.8771 17.5683L41.9921 17.9193C44.1365 17.7071 46.2892 17.7756 48.4413 17.7633ZM76.4406 27.224L76.8493 27.082C77.1774 26.3303 76.4009 24.4154 76.1144 23.6954C76.0436 23.5172 75.9377 23.3911 75.796 23.263C75.4965 24.2389 74.5543 26.0248 75.0403 26.9693C75.3905 27.2774 75.9955 27.2129 76.4406 27.224ZM39.2728 30.183C40.0387 30.9659 40.7918 31.7579 41.6453 32.4464C42.6433 29.8319 43.7804 27.2715 44.8903 24.7033C44.8662 27.8023 44.6732 31.0376 44.926 34.121C45.5491 34.6493 46.4601 35.6211 47.3146 35.681C47.1619 30.1934 47.3087 24.6544 47.3094 19.163L45.043 19.2161C43.694 21.7294 42.6207 24.3568 41.4579 26.9595C41.5589 24.3958 41.3139 21.776 41.5485 19.227C40.8521 19.0568 39.8001 19.2427 39.0771 19.3219C39.0497 22.206 38.7292 27.5268 39.2728 30.183ZM35.8428 35.6673C36.0585 35.8191 36.2992 35.9161 36.5392 36.0229C37.1014 35.9155 37.292 35.7077 37.7189 35.3442C37.3793 34.9665 37.043 34.4988 36.53 34.3757C36.1703 34.5281 36.1064 34.6121 35.963 34.9762C35.879 35.1892 35.8643 35.44 35.8428 35.6673ZM64.6284 28.3462L65.2021 28.455C65.5809 28.3267 65.6147 28.201 65.8253 27.8766C65.8415 27.4311 65.8019 27.3679 65.5673 27.0136C65.0598 26.856 64.8772 26.9328 64.3678 27.0468C64.4399 27.4721 64.4828 27.9411 64.6284 28.3462Z" fill="#999999"/>
<path d="M61.5142 34.3506C62.1081 33.8843 62.4525 33.1873 62.9742 32.6558C63.4213 32.2012 63.8046 32.4116 64.3712 32.4181L64.5987 32.1172L64.778 32.6168L65.3459 32.8011C65.7851 33.7911 68.3998 34.7525 69.4193 35.2742C68.5363 36.0246 67.6682 36.816 66.7559 37.5285C65.8891 36.9319 64.7111 35.7504 63.6292 35.9249L62.9482 36.4805C63.0347 37.6972 65.2257 39.3425 66.1276 40.2101C65.1074 40.6511 64.1029 41.0992 63.1159 41.6124C62.4323 40.8588 61.4362 39.2813 60.431 39.1406L59.8436 39.4441L59.6773 38.6267C59.7364 38.5323 59.8137 38.4183 59.8384 38.3088C59.9301 37.9004 59.5402 37.5631 59.3147 37.2621L59.2822 37.1332C59.6279 36.6766 60.3894 35.908 60.9281 35.7178C61.5096 35.9204 61.9606 35.9653 62.5733 35.9308C62.6078 35.5217 62.5961 35.1935 62.509 34.7922C62.149 34.5272 62.0236 34.55 61.5883 34.5213L61.5142 34.3506Z" fill="#999999"/>
<path d="M51.0712 40.5178C51.1953 40.2371 51.346 40.155 51.6118 40.0176C51.9263 40.3413 52.1147 40.6481 52.6027 40.6624C53.1531 40.6781 53.951 40.185 54.4474 39.9453C54.5345 40.2619 54.5371 40.598 54.8431 40.7667C55.0264 40.8676 55.2681 40.8754 55.474 40.8956L55.9477 40.8318C56.1459 41.0233 56.2759 41.2089 56.411 41.4486C56.0751 41.6707 55.5728 41.8837 55.4675 42.298C55.181 43.43 56.2642 45.4961 56.6111 46.6242C55.5072 46.5271 54.374 46.3708 53.2661 46.3949C53.0069 45.3749 52.9399 43.514 52.0445 42.8933C51.643 42.8242 51.2603 42.8067 50.8535 42.8027L50.8646 42.055C51.0595 42.0537 51.2557 42.0537 51.45 42.04C51.8418 42.0114 51.9523 41.8876 52.2005 41.6049L52.1602 41.2656C51.862 40.8461 51.5384 40.7093 51.0712 40.5178Z" fill="#999999"/>
<path d="M31.9725 22.3828L32.0912 23.0745C32.2748 23.1695 32.4542 23.2512 32.6477 23.3241C32.7884 23.8106 32.8127 23.9318 33.1974 24.2594C33.6281 24.2887 33.7028 24.2112 34.0528 23.9871L34.3284 23.4836C34.1461 24.5017 35.125 26.3202 34.2107 27.0243C34.1914 27.0393 34.1691 27.0497 34.1482 27.0621C33.6183 26.9221 33.2476 26.8465 32.7576 27.1357C32.6528 27.1976 32.5543 27.2673 32.4562 27.3389L31.8219 27.2621C31.7768 27.2087 31.7672 27.1924 31.7113 27.1474C30.9258 26.5078 28.1059 27.0595 27.1455 27.1911C27.497 26.1437 27.7879 25.071 28.1005 24.0112C29.2321 24.064 30.5534 24.4424 31.5935 23.8966C31.9519 23.3815 31.9192 22.9944 31.9725 22.3828Z" fill="#999999"/>
<path d="M34.7741 20.3572L35.0922 19.8711C35.4456 20.8187 35.3767 21.5133 34.9723 22.4144C34.8263 22.7396 34.6434 22.9781 34.4138 23.2476C34.3518 23.3203 34.3392 23.3924 34.3282 23.4841L34.0525 23.9876C33.7026 24.2116 33.6279 24.2891 33.1972 24.2598C32.8124 23.9322 32.7882 23.8111 32.6475 23.3245C33.1012 22.772 33.5809 22.9185 34.0676 22.4548C34.0844 22.4389 34.1006 22.4225 34.1174 22.4066C34.149 22.3769 34.1819 22.3484 34.2124 22.3175C34.6157 21.9095 34.784 20.9111 34.7741 20.3572Z" fill="#999999"/>
<path d="M50.865 42.0557C50.6259 41.6271 50.7415 41.2565 50.4283 40.8546C49.8234 40.9549 49.1886 41.0005 48.5817 40.8983C48.2029 40.8338 48.1184 40.8637 47.8975 40.555L48.0424 40.3166C48.8871 40.045 50.2425 40.2157 51.0716 40.5185C51.5388 40.71 51.8624 40.8468 52.1606 41.2663L52.2009 41.6056C51.9527 41.8883 51.8422 42.0121 51.4504 42.0407C51.2561 42.0544 51.0599 42.0544 50.865 42.0557Z" fill="#999999"/>
<path d="M63.8301 30.7803C64.1465 30.8715 64.5358 30.9451 64.8282 31.0897L64.5994 32.1168L64.372 32.4177C63.8054 32.4112 63.422 32.2008 62.975 32.6555C62.4532 33.187 62.1089 33.8839 61.515 34.3503C61.2629 32.9642 62.8002 32.2738 63.4467 31.2896C63.4662 31.2597 63.4851 31.2297 63.5046 31.1997L63.8301 30.7803Z" fill="#999999"/>
<path d="M63.5044 31.2003C63.4206 31.0459 63.3426 30.8857 63.2991 30.7137C63.1646 30.1874 63.292 29.1114 63.5642 28.6294C63.7312 28.3331 63.7845 28.3291 64.1068 28.2412L64.5896 28.5493C64.4154 29.0821 63.7202 30.2877 63.83 30.7808L63.5044 31.2003Z" fill="#999999"/>
<path d="M35.3057 18.5769C36.1205 18.3214 36.1459 17.1835 37.2819 16.9268C37.307 17.552 36.9448 18.1171 36.5185 18.5745C36.174 18.944 35.8313 19.1638 35.3662 19.3515L35.3057 18.5769Z" fill="#999999"/>
<path d="M51.6123 40.0181C52.3439 39.6748 53.4063 39.3798 54.214 39.4723L54.4661 39.7354L54.4479 39.9458C53.9515 40.1855 53.1536 40.6785 52.6032 40.6629C52.1152 40.6486 51.9268 40.3418 51.6123 40.0181Z" fill="#999999"/>
<path d="M34.7737 20.3565C34.6465 20.3341 34.5191 20.31 34.3971 20.2664C34.0486 20.1421 33.9643 20.0201 33.8213 19.6925C33.8497 19.5746 33.8847 19.4617 33.9435 19.3549C34.2223 18.8477 34.7872 18.7094 35.3044 18.5762L35.365 19.3508L35.0918 19.8704L34.7737 20.3565Z" fill="#999999"/>
<path d="M32.8984 31.7937L33.1468 31.4049C33.5755 31.315 33.6324 31.4094 33.9902 31.6289C34.157 32.0074 34.1281 32.1533 34.0843 32.5525C33.8671 32.7909 33.5597 32.9199 33.2775 33.0684L32.8984 31.7937Z" fill="#999999"/>
<path d="M41.9915 17.9199C44.1359 17.7078 46.2886 17.7762 48.4406 17.764C48.3137 23.8349 48.3139 29.9055 48.4413 35.976C48.1008 35.8067 47.6849 35.7591 47.3139 35.6816C47.1612 30.1941 47.3081 24.6551 47.3087 19.1636L45.0423 19.2168C43.6934 21.73 42.62 24.3574 41.4572 26.9602C41.5583 24.3965 41.3133 21.7767 41.5478 19.2276C41.87 18.7704 41.9714 18.4792 41.9915 17.9199Z" fill="#999999"/>
<path d="M51.199 19.1381C51.1828 18.7221 51.1412 18.36 51.3511 17.9841C51.9768 17.5967 53.0489 17.7904 53.7819 17.7923C53.9248 18.1958 53.8715 18.4545 53.7858 18.8611L53.9424 19.1967C53.3225 19.107 52.698 18.9995 52.0762 18.9287L52.0853 20.978C52.11 25.2665 51.9911 29.5621 52.0665 33.848C51.7422 33.8903 51.405 33.9567 51.0788 33.9613C51.1295 30.5867 51.0457 27.2069 51.0671 23.8316C51.0775 22.2864 50.9995 20.6708 51.199 19.1381Z" fill="#999999"/>
<path d="M47.1495 9.14746C47.4711 9.19768 47.809 9.16459 48.0143 9.44395C48.1449 9.62144 48.1865 9.88002 48.2359 10.0918C48.965 10.4853 50.0683 10.1212 50.8928 10.3721C49.833 11.7438 48.4607 10.3444 47.2827 10.559C46.564 10.6899 45.7928 11.3325 45.1021 11.6211C44.5667 11.8449 43.9273 11.926 43.3574 12.0323C44.2794 11.2391 45.4393 10.9825 46.323 10.2315C46.3542 10.0831 46.3821 9.92946 46.4289 9.78539C46.5718 9.34482 46.7609 9.33602 47.1495 9.14746Z" fill="#999999"/>
<path d="M42.5563 11.8525L42.8405 11.9069L42.9797 12.1209L42.9123 12.2557C42.4393 13.2019 40.7715 12.9863 40.0462 13.5442C39.5126 13.9547 39.3197 14.8993 38.7767 15.3723C38.4617 15.6469 38.2425 15.8046 37.8325 15.7721L37.7666 15.515C39.9818 13.4158 38.446 13.8644 39.0397 12.5517C39.3563 12.2988 39.6108 12.0391 40.0399 12.065C40.2747 12.2929 40.4099 12.5512 40.5671 12.8339C41.0847 12.8486 42.0444 12.1125 42.5563 11.8525Z" fill="#999999"/>
<path d="M63.2671 20.1953C64.286 20.8883 63.9643 21.853 64.6109 22.6345C64.8415 22.9138 65.3938 22.7353 65.7785 23.1105C65.8565 23.5459 65.9124 23.6624 65.735 24.0792C65.351 24.2928 65.0566 24.3208 64.6239 24.3397L64.4718 23.4553L64.3938 23.3772C63.427 22.3963 63.2554 21.545 63.2671 20.1953Z" fill="#999999"/>
<path d="M58.8821 11.9883C59.0692 12.0916 59.2563 12.1963 59.4376 12.3102C60.2706 12.8354 59.2674 13.4109 59.563 14.1335C59.8184 14.7579 60.5728 14.9413 60.7502 15.7097L60.5572 15.9925C59.4662 15.1659 58.6884 14.0533 58.1641 12.7935C58.3025 12.3502 58.5201 12.2663 58.8821 11.9883Z" fill="#999999"/>
<path d="M40.6943 37.7471C40.8392 37.751 40.9815 37.7594 41.1247 37.7835C41.9379 37.9171 42.7637 38.6121 43.2399 39.2706C43.7493 39.974 43.9254 40.2345 43.7941 41.0845C43.4816 41.0696 43.1574 40.9836 42.8496 40.925C42.265 40.4013 42.816 40.0984 42.5086 39.5708C42.0781 38.8309 41.1932 38.8153 40.7588 37.8891C40.7368 37.8422 40.7153 37.7948 40.6943 37.7471Z" fill="#999999"/>
<path d="M61.3428 17.0837C61.7092 17.0424 61.858 17.0404 62.1556 17.2759C62.6755 17.6868 62.6391 18.4629 63.2525 18.836C63.6098 18.7496 63.9471 18.6719 64.3148 18.6482C64.615 18.9256 64.6755 19.2805 64.7762 19.6619L64.6852 20.1019L64.3714 20.2977C63.8229 20.1695 63.6982 19.9667 63.3363 19.5456C62.9282 18.87 62.1751 19.002 61.3428 17.0837Z" fill="#999999"/>
<path d="M54.5957 10.9755L54.6815 10.5159C55.0622 10.0929 55.2962 10.0999 55.8517 9.97168C56.1753 10.4984 56.1922 10.89 56.1902 11.4866C56.1896 11.6194 56.1409 11.7568 56.2598 11.8289C56.8075 12.1621 57.3124 12.5006 57.6379 13.0665L57.5645 13.2148C56.0811 12.9382 55.7029 11.7896 54.5957 10.9755Z" fill="#999999"/>
<path d="M61.5002 16.4621C61.4651 16.4294 61.433 16.3939 61.404 16.3553C61.375 16.3168 61.3499 16.276 61.3286 16.2329C61.3074 16.1898 61.2901 16.1451 61.2767 16.0988C61.2637 16.0526 61.2548 16.0055 61.25 15.9576C61.2453 15.9096 61.2448 15.8617 61.2487 15.8137C61.2531 15.7657 61.2615 15.7185 61.2741 15.6721C61.2866 15.6257 61.3033 15.5808 61.3241 15.5374C61.3453 15.494 61.37 15.4529 61.3982 15.414C61.4263 15.3752 61.4579 15.3392 61.493 15.3061C61.5281 15.273 61.5658 15.2434 61.6061 15.2172C61.6464 15.191 61.6886 15.1687 61.7328 15.1502C61.777 15.1318 61.8227 15.1175 61.8699 15.1074C61.9167 15.0973 61.9641 15.0916 62.0122 15.0902C62.0603 15.0888 62.1082 15.0918 62.1558 15.0991C62.203 15.1064 62.2494 15.118 62.2949 15.1339C62.3403 15.1497 62.3839 15.1696 62.4255 15.1933C62.4575 15.2117 62.4883 15.2322 62.5177 15.2548C62.5468 15.2775 62.5743 15.3021 62.6003 15.3287C62.6262 15.3552 62.6501 15.3835 62.6717 15.4134C62.6938 15.4433 62.7135 15.4746 62.7308 15.5072C62.7482 15.5399 62.7633 15.5737 62.7763 15.6085C62.7889 15.6433 62.7991 15.6789 62.8069 15.7151C62.8147 15.7514 62.8199 15.788 62.8225 15.825C62.8251 15.8619 62.8251 15.8989 62.8225 15.9359C62.8199 15.9729 62.8147 16.0096 62.8069 16.0458C62.7991 16.0821 62.7889 16.1177 62.7763 16.1525C62.7638 16.1873 62.7486 16.2211 62.7308 16.2538C62.7135 16.2865 62.694 16.3179 62.6724 16.3478C62.6503 16.3777 62.6265 16.406 62.6009 16.4326C62.5749 16.4591 62.5472 16.4837 62.5177 16.5065C62.4887 16.5292 62.4582 16.5497 62.4261 16.568C62.3936 16.5864 62.3603 16.6024 62.3261 16.6161C62.2918 16.6298 62.2567 16.6409 62.2208 16.6496C62.1848 16.6583 62.1484 16.6645 62.1116 16.6681C62.0748 16.6716 62.038 16.6726 62.0012 16.671C61.9639 16.6694 61.9271 16.6652 61.8907 16.6584C61.8547 16.6516 61.8192 16.6423 61.7841 16.6305C61.7491 16.6187 61.7148 16.6045 61.6815 16.5879C61.6486 16.5713 61.6169 16.5525 61.5866 16.5314C61.5563 16.5103 61.5275 16.4872 61.5002 16.4621Z" fill="#999999"/>
<path d="M26.2531 14.7813C29.7651 8.10848 34.549 3.43393 41.8306 1.15925C42.2259 1.03428 42.6241 0.919231 43.0251 0.814104C43.4262 0.709021 43.8295 0.613991 44.235 0.529013C44.6409 0.444035 45.0485 0.369238 45.4579 0.304625C45.8672 0.240012 46.2781 0.185646 46.6905 0.141529C47.1024 0.0974109 47.5152 0.0635847 47.9289 0.0400495C48.3431 0.0165578 48.7574 0.00340051 49.1719 0.000578031C49.5861 -0.00224445 50.0002 0.00526972 50.4143 0.0231165C50.8284 0.0409633 51.2419 0.0691227 51.6547 0.107595C52.0675 0.146111 52.4791 0.194874 52.8893 0.253885C53.2995 0.31294 53.708 0.382179 54.1148 0.461599C54.5215 0.541019 54.9261 0.630535 55.3285 0.730147C55.731 0.829759 56.1308 0.939357 56.528 1.05894C56.9248 1.17853 57.3184 1.30793 57.7086 1.44714C58.0994 1.58636 58.4862 1.73523 58.8691 1.89377C59.2525 2.05231 59.6315 2.22031 60.0062 2.39778C60.3809 2.57525 60.7511 2.76194 61.1167 2.95786C65.6326 5.35369 70.3902 9.89505 72.0686 14.8903C77.2274 14.9353 82.3861 14.9468 87.5449 14.9249C90.2824 14.9244 93.168 15.1218 95.8899 14.8865C96.7398 18.2761 98.0666 21.6772 98.5208 25.1446C98.7853 27.169 98.6833 29.2506 98.6566 31.2893C93.0666 31.2705 87.3317 31.5349 81.7652 31.2053C81.5065 27.0048 81.6423 22.7633 81.6618 18.5553L84.4156 18.5533L84.5195 28.0665C85.8756 28.1017 87.2343 28.0737 88.5904 28.0639L88.578 18.5703L91.4851 18.5757L91.4961 28.1414L95.1401 28.1251C94.2538 24.5962 93.9926 20.8277 92.849 17.3705C85.5351 17.5676 78.116 17.5477 70.8035 17.3907C70.745 16.9865 70.6606 16.5873 70.5235 16.2021C68.7242 11.1497 63.8925 6.42046 59.1232 4.15412C58.7888 3.99246 58.4507 3.8392 58.1089 3.69434C57.7671 3.54948 57.4219 3.4132 57.0732 3.28549C56.7245 3.15783 56.3727 3.03889 56.0179 2.92868C55.6636 2.81848 55.3067 2.71717 54.9471 2.62477C54.5876 2.53232 54.2259 2.44886 53.862 2.37439C53.4986 2.29992 53.1334 2.23455 52.7665 2.17827C52.3996 2.122 52.0314 2.07487 51.6619 2.03687C51.2928 1.99888 50.9229 1.97008 50.5521 1.9505C50.1813 1.93091 49.8105 1.92056 49.4397 1.91943C49.0684 1.9183 48.6974 1.92638 48.3266 1.94366C47.9558 1.96099 47.5856 1.98752 47.2161 2.02325C46.8466 2.05895 46.4782 2.10383 46.1109 2.15789C45.7435 2.21191 45.3779 2.27505 45.0141 2.3473C44.6497 2.41951 44.2876 2.50074 43.9276 2.59097C43.5672 2.6812 43.2095 2.78033 42.8544 2.88837C42.4992 2.9964 42.1469 3.11319 41.7975 3.23873C34.249 5.97039 30.4922 10.5459 27.1946 17.6213C24.6007 17.3734 21.9045 17.4954 19.2959 17.4892C14.6556 17.4428 10.0158 17.4744 5.37647 17.5839C4.80403 21.1408 3.68772 24.7759 2.68941 28.2306C3.6638 28.1623 4.65627 28.1844 5.63346 28.1707C5.56933 24.9928 5.55666 21.8134 5.77361 18.6405C6.55782 18.6863 7.34951 18.6826 8.13515 18.6964C8.32104 21.504 8.13742 24.3232 8.34171 27.1273C8.42858 28.3199 8.97439 29.2448 8.98381 30.4543L9.14327 32.4807C8.55607 32.5158 7.83196 32.6598 7.32897 32.3002C7.13632 32.0202 7.0204 31.7896 6.90903 31.4685C5.36972 31.0197 3.27173 31.2906 1.6616 31.316C1.10169 30.4713 0.519558 29.6343 0 28.7647C0.786484 25.9058 1.53245 23.0364 2.23788 20.1565C2.6974 18.3073 3.06069 16.3903 3.70935 14.5998C8.78524 14.7441 13.8845 14.641 18.9629 14.6317C21.3138 14.6274 23.9397 14.4048 26.2531 14.7813Z" fill="#999999"/>
<path d="M24.127 18.6445C24.9321 18.6841 25.7292 18.7275 26.5351 18.6818C26.4858 21.0196 26.2109 29.5819 26.5692 31.3861C25.6936 31.3053 24.7976 31.306 23.918 31.2741C24.2684 29.1735 23.9985 26.8045 23.8905 24.6877C23.1707 26.9791 22.0367 29.1839 21.0389 31.3659C20.3131 31.3783 19.07 31.5444 18.4364 31.2154C18.7101 28.5567 18.1479 20.6485 18.6188 19.0006C18.6844 18.7712 18.8194 18.7577 19.0196 18.6486C19.6847 18.6787 20.3501 18.6984 21.0158 18.7079C21.0722 20.9575 21.1379 23.1863 21.0409 25.4361C22.1874 23.2349 23.1323 20.9178 24.127 18.6445Z" fill="#999999"/>
<path d="M9.49414 18.6143C10.4013 18.6814 11.2617 18.7172 12.1683 18.6296C12.2145 20.1708 12.2054 21.7179 12.2219 23.26L14.8637 23.2062L14.9773 18.6726L17.5177 18.678C17.4737 21.2407 17.4722 23.8034 17.5132 26.3661C17.5282 27.9131 17.7407 29.8371 17.4067 31.343C16.7756 31.3938 15.7429 31.5437 15.2112 31.1652C14.4672 30.1752 14.8976 27.691 14.8651 26.3974C14.0704 26.3108 12.8629 26.0496 12.1859 26.5159L11.8727 26.5843C11.4017 28.1912 11.3405 29.6971 11.4612 31.3626C10.9906 31.2896 10.5131 31.3945 10.044 31.2694C9.77614 31.1978 9.74235 31.0317 9.60882 30.8063C9.70837 29.5453 9.57959 28.214 9.56588 26.9458L9.49414 18.6143Z" fill="#999999"/>
<path d="M47.7881 3.40527C48.9973 3.75622 50.0675 4.21143 51.1455 4.86525C50.9297 5.51542 50.7894 6.13146 50.6815 6.80671C50.2611 6.64622 49.842 6.79055 49.4379 6.9754C48.8654 7.23685 48.3527 7.53973 47.92 8.00531C47.7946 6.491 47.8271 4.92668 47.7881 3.40527Z" fill="#999999"/>
<path d="M32.4561 27.3395C32.5541 27.2678 32.6527 27.1981 32.7574 27.1362C33.2475 26.847 33.6181 26.9226 34.1481 27.0626C34.1599 27.2991 34.1127 27.6742 34.2728 27.8423C34.8491 28.4487 35.3375 29.5814 35.4486 30.406L35.3447 30.6737L35.0843 30.6698C34.5964 30.1174 34.4642 29.0095 34.0511 28.6102C33.4286 28.0077 32.9853 28.3262 32.4561 27.3395Z" fill="#999999"/>
<path d="M58.0625 38.8122C58.124 38.6359 58.1909 38.4618 58.2633 38.2899C58.5076 37.7147 58.7389 37.4959 59.3159 37.2627C59.5414 37.5636 59.9312 37.901 59.8396 38.3094C59.8149 38.4188 59.7376 38.5328 59.6785 38.6273C59.1047 38.8813 58.6798 38.8956 58.0625 38.8122Z" fill="#999999"/>
<path d="M61.5899 34.5215C62.0252 34.5501 62.1506 34.5273 62.5106 34.7924C62.5977 35.1937 62.6093 35.5219 62.5749 35.931C61.9622 35.9655 61.5112 35.9206 60.9297 35.718C61.1136 35.3083 61.3676 34.9129 61.5899 34.5215Z" fill="#999999"/>
<path d="M51.0797 33.961C51.4059 33.9564 51.7431 33.89 52.0674 33.8477L52.0589 35.5822C51.6976 35.7255 51.3 35.8329 51.0596 36.1567L51.0797 33.961Z" fill="#999999"/>
<path d="M35.8428 35.6676C35.8643 35.4403 35.879 35.1895 35.963 34.9765C36.1064 34.6124 36.1703 34.5284 36.53 34.376C37.043 34.4991 37.3794 34.9667 37.7189 35.3445C37.292 35.708 37.1014 35.9157 36.5392 36.0232C36.2992 35.9164 36.0585 35.8193 35.8428 35.6676Z" fill="#999999"/>
<path d="M64.3672 27.0473C64.8766 26.9333 65.0592 26.8564 65.5667 27.014C65.8012 27.3684 65.8409 27.4316 65.8246 27.8771C65.6141 28.2014 65.5803 28.3272 65.2015 28.4555L64.6277 28.3467C64.4822 27.9416 64.4393 27.4726 64.3672 27.0473Z" fill="#999999"/>
<path d="M11.4608 31.3632C11.3401 29.6978 11.4013 28.1919 11.8723 26.585L12.1855 26.5166C12.2295 27.6213 12.6338 30.4429 12.0282 31.3456C11.8385 31.3691 11.6492 31.4088 11.4608 31.3632Z" fill="#999999"/>
<path d="M64.8274 31.0898C65.2893 31.125 65.4232 31.1387 65.7864 31.4272L65.3459 32.8009L64.778 32.6166L64.5986 32.117L64.8274 31.0898Z" fill="#999999"/>
<path d="M130.856 2.12793V3.06543H126.645V10.8552H125.589V2.12793H130.856Z" fill="#999999"/>
<path d="M134.304 10.9916C133.713 10.9916 133.195 10.8509 132.749 10.5697C132.306 10.2884 131.959 9.89498 131.709 9.38929C131.462 8.88361 131.338 8.2927 131.338 7.61657C131.338 6.93475 131.462 6.33958 131.709 5.83105C131.959 5.32253 132.306 4.92765 132.749 4.6464C133.195 4.36515 133.713 4.22452 134.304 4.22452C134.895 4.22452 135.412 4.36515 135.856 4.6464C136.302 4.92765 136.648 5.32253 136.895 5.83105C137.145 6.33958 137.27 6.93475 137.27 7.61657C137.27 8.2927 137.145 8.88361 136.895 9.38929C136.648 9.89498 136.302 10.2884 135.856 10.5697C135.412 10.8509 134.895 10.9916 134.304 10.9916ZM134.304 10.0882C134.753 10.0882 135.123 9.9731 135.412 9.74299C135.702 9.51287 135.917 9.21032 136.056 8.83532C136.195 8.46032 136.265 8.05407 136.265 7.61657C136.265 7.17907 136.195 6.7714 136.056 6.39355C135.917 6.01571 135.702 5.71032 135.412 5.47736C135.123 5.24441 134.753 5.12793 134.304 5.12793C133.856 5.12793 133.486 5.24441 133.196 5.47736C132.907 5.71032 132.692 6.01571 132.553 6.39355C132.414 6.7714 132.344 7.17907 132.344 7.61657C132.344 8.05407 132.414 8.46032 132.553 8.83532C132.692 9.21032 132.907 9.51287 133.196 9.74299C133.486 9.9731 133.856 10.0882 134.304 10.0882Z" fill="#999999"/>
<path d="M141.705 10.9916C141.091 10.9916 140.562 10.8467 140.119 10.5569C139.676 10.2671 139.335 9.86799 139.097 9.35946C138.858 8.85094 138.739 8.26998 138.739 7.61657C138.739 6.95179 138.861 6.36515 139.105 5.85662C139.352 5.34526 139.696 4.94611 140.136 4.65918C140.58 4.36941 141.097 4.22452 141.687 4.22452C142.148 4.22452 142.562 4.30975 142.932 4.4802C143.301 4.65066 143.604 4.88929 143.839 5.19611C144.075 5.50293 144.222 5.86088 144.278 6.26998H143.273C143.196 5.97168 143.026 5.70748 142.761 5.47736C142.5 5.24441 142.148 5.12793 141.705 5.12793C141.312 5.12793 140.969 5.2302 140.673 5.43475C140.381 5.63645 140.152 5.92196 139.987 6.29128C139.825 6.65776 139.744 7.08816 139.744 7.58248C139.744 8.08816 139.824 8.5285 139.983 8.9035C140.145 9.2785 140.372 9.56969 140.665 9.77708C140.96 9.98446 141.307 10.0882 141.705 10.0882C141.966 10.0882 142.203 10.0427 142.416 9.95179C142.629 9.86088 142.81 9.7302 142.957 9.55975C143.105 9.38929 143.21 9.18475 143.273 8.94611H144.278C144.222 9.33248 144.081 9.68049 143.857 9.99015C143.635 10.297 143.341 10.5413 142.974 10.7231C142.611 10.9021 142.187 10.9916 141.705 10.9916Z" fill="#999999"/>
<path d="M146.636 13.3097C146.466 13.3097 146.314 13.2955 146.18 13.2671C146.047 13.2416 145.954 13.216 145.903 13.1904L146.159 12.3041C146.403 12.3666 146.619 12.3893 146.807 12.3722C146.994 12.3552 147.16 12.2714 147.305 12.1208C147.453 11.9731 147.588 11.733 147.71 11.4007L147.898 10.8893L145.477 4.30975H146.568L148.375 9.52566H148.443L150.25 4.30975H151.341L148.562 11.8097C148.437 12.1478 148.283 12.4276 148.098 12.6492C147.913 12.8737 147.699 13.0399 147.454 13.1478C147.213 13.2558 146.94 13.3097 146.636 13.3097Z" fill="#999999"/>
<path d="M151.659 12.7302V9.9177H152.204C152.338 9.7785 152.453 9.62793 152.549 9.466C152.646 9.30407 152.73 9.11231 152.801 8.89071C152.875 8.66628 152.937 8.39355 152.988 8.07253C153.039 7.74867 153.085 7.35804 153.125 6.90066L153.346 4.30975H157.505V9.9177H158.511V12.7302H157.505V10.8552H152.664V12.7302H151.659ZM153.346 9.9177H156.5V5.24725H154.284L154.113 6.90066C154.042 7.58532 153.954 8.18333 153.849 8.69469C153.744 9.20605 153.576 9.61373 153.346 9.9177Z" fill="#999999"/>
<path d="M162.012 11.0086C161.597 11.0086 161.221 10.9305 160.883 10.7742C160.545 10.6151 160.276 10.3865 160.077 10.0882C159.878 9.78702 159.779 9.42338 159.779 8.99725C159.779 8.62225 159.853 8.31827 160.001 8.08532C160.148 7.84952 160.346 7.66486 160.593 7.53134C160.84 7.39782 161.113 7.29838 161.411 7.23304C161.712 7.16486 162.015 7.11088 162.319 7.07111C162.716 7.01998 163.039 6.98162 163.286 6.95605C163.536 6.92765 163.718 6.88077 163.831 6.81543C163.948 6.75009 164.006 6.63645 164.006 6.47452V6.44043C164.006 6.01998 163.891 5.69327 163.661 5.46032C163.434 5.22736 163.089 5.11088 162.626 5.11088C162.145 5.11088 161.769 5.216 161.496 5.42623C161.224 5.63645 161.032 5.86088 160.921 6.09952L159.966 5.75861C160.137 5.36088 160.364 5.05123 160.648 4.82963C160.935 4.6052 161.248 4.44895 161.586 4.36088C161.927 4.26998 162.262 4.22452 162.591 4.22452C162.802 4.22452 163.043 4.25009 163.316 4.30122C163.591 4.34952 163.857 4.45037 164.113 4.60378C164.371 4.75719 164.586 4.98873 164.756 5.29838C164.927 5.60804 165.012 6.02282 165.012 6.5427V10.8552H164.006V9.96884H163.955C163.887 10.1109 163.773 10.2629 163.614 10.4248C163.455 10.5867 163.243 10.7245 162.979 10.8382C162.715 10.9518 162.393 11.0086 162.012 11.0086ZM162.165 10.1052C162.563 10.1052 162.898 10.0271 163.171 9.87083C163.447 9.71458 163.654 9.51287 163.793 9.26571C163.935 9.01856 164.006 8.75861 164.006 8.48588V7.56543C163.964 7.61657 163.87 7.66344 163.725 7.70605C163.583 7.74583 163.418 7.78134 163.231 7.81259C163.046 7.841 162.866 7.86657 162.689 7.88929C162.516 7.90918 162.376 7.92623 162.268 7.94043C162.006 7.97452 161.762 8.02992 161.535 8.10662C161.31 8.18049 161.128 8.2927 160.989 8.44327C160.853 8.591 160.785 8.7927 160.785 9.04838C160.785 9.39782 160.914 9.66202 161.172 9.841C161.434 10.0171 161.765 10.1052 162.165 10.1052Z" fill="#999999"/>
<path d="M167.087 13.3097V4.30975H168.059V5.34952H168.178C168.252 5.23588 168.355 5.091 168.485 4.91486C168.619 4.73588 168.809 4.57679 169.056 4.43759C169.306 4.29554 169.644 4.22452 170.07 4.22452C170.622 4.22452 171.107 4.3623 171.528 4.63787C171.948 4.91344 172.276 5.30407 172.512 5.80975C172.748 6.31543 172.866 6.91202 172.866 7.59952C172.866 8.2927 172.748 8.89355 172.512 9.40208C172.276 9.90776 171.95 10.2998 171.532 10.5782C171.114 10.8538 170.633 10.9916 170.087 10.9916C169.667 10.9916 169.33 10.922 169.078 10.7828C168.825 10.6407 168.63 10.4802 168.494 10.3012C168.357 10.1194 168.252 9.96884 168.178 9.84952H168.093V13.3097H167.087ZM168.076 7.58248C168.076 8.07679 168.149 8.51287 168.293 8.89071C168.438 9.26571 168.65 9.55975 168.928 9.77282C169.207 9.98304 169.548 10.0882 169.951 10.0882C170.372 10.0882 170.722 9.97736 171.004 9.75577C171.288 9.53134 171.501 9.2302 171.643 8.85236C171.788 8.47168 171.86 8.04838 171.86 7.58248C171.86 7.12225 171.789 6.70748 171.647 6.33816C171.508 5.966 171.296 5.67196 171.012 5.45605C170.731 5.2373 170.377 5.12793 169.951 5.12793C169.542 5.12793 169.198 5.23162 168.92 5.43901C168.641 5.64355 168.431 5.93049 168.289 6.2998C168.147 6.66628 168.076 7.09384 168.076 7.58248Z" fill="#999999"/>
<path d="M177.299 10.9916C176.685 10.9916 176.157 10.8467 175.714 10.5569C175.271 10.2671 174.93 9.86799 174.691 9.35946C174.452 8.85094 174.333 8.26998 174.333 7.61657C174.333 6.95179 174.455 6.36515 174.7 5.85662C174.947 5.34526 175.291 4.94611 175.731 4.65918C176.174 4.36941 176.691 4.22452 177.282 4.22452C177.742 4.22452 178.157 4.30975 178.526 4.4802C178.896 4.65066 179.198 4.88929 179.434 5.19611C179.67 5.50293 179.816 5.86088 179.873 6.26998H178.867C178.791 5.97168 178.62 5.70748 178.356 5.47736C178.095 5.24441 177.742 5.12793 177.299 5.12793C176.907 5.12793 176.563 5.2302 176.268 5.43475C175.975 5.63645 175.746 5.92196 175.582 6.29128C175.42 6.65776 175.339 7.08816 175.339 7.58248C175.339 8.08816 175.418 8.5285 175.577 8.9035C175.739 9.2785 175.967 9.56969 176.259 9.77708C176.555 9.98446 176.901 10.0882 177.299 10.0882C177.56 10.0882 177.798 10.0427 178.011 9.95179C178.224 9.86088 178.404 9.7302 178.552 9.55975C178.7 9.38929 178.805 9.18475 178.867 8.94611H179.873C179.816 9.33248 179.675 9.68049 179.451 9.99015C179.229 10.297 178.935 10.5413 178.569 10.7231C178.205 10.9021 177.782 10.9916 177.299 10.9916Z" fill="#999999"/>
<path d="M181.067 5.24725V4.30975H186.386V5.24725H184.238V10.8552H183.232V5.24725H181.067Z" fill="#999999"/>
<path d="M188.093 10.8552V4.30975H190.769C191.473 4.30975 192.033 4.46884 192.448 4.78702C192.863 5.1052 193.07 5.52566 193.07 6.04838C193.07 6.44611 192.952 6.75435 192.716 6.9731C192.48 7.18901 192.178 7.33532 191.809 7.41202C192.05 7.44611 192.284 7.53134 192.512 7.6677C192.742 7.80407 192.932 7.99157 193.083 8.2302C193.233 8.466 193.309 8.75577 193.309 9.09952C193.309 9.43475 193.223 9.73446 193.053 9.99867C192.882 10.2629 192.638 10.4717 192.32 10.6251C192.002 10.7785 191.621 10.8552 191.178 10.8552H188.093ZM189.047 9.93475H191.178C191.524 9.93475 191.796 9.85236 191.992 9.68759C192.188 9.52282 192.286 9.29838 192.286 9.01429C192.286 8.67623 192.188 8.4106 191.992 8.21742C191.796 8.0214 191.524 7.92338 191.178 7.92338H189.047V9.93475ZM189.047 7.05407H190.769C191.039 7.05407 191.27 7.01713 191.463 6.94327C191.657 6.86657 191.804 6.75861 191.907 6.61941C192.012 6.47736 192.064 6.30975 192.064 6.11657C192.064 5.841 191.949 5.62509 191.719 5.46884C191.489 5.30975 191.172 5.2302 190.769 5.2302H189.047V7.05407Z" fill="#999999"/>
<path d="M197.815 10.9916C197.185 10.9916 196.641 10.8524 196.183 10.574C195.729 10.2927 195.378 9.90066 195.131 9.39782C194.886 8.89213 194.764 8.30407 194.764 7.63361C194.764 6.96316 194.886 6.37225 195.131 5.86088C195.378 5.34668 195.721 4.94611 196.162 4.65918C196.605 4.36941 197.122 4.22452 197.713 4.22452C198.054 4.22452 198.39 4.28134 198.723 4.39497C199.055 4.50861 199.358 4.69327 199.631 4.94895C199.903 5.20179 200.121 5.53702 200.283 5.95463C200.444 6.37225 200.525 6.88645 200.525 7.49725V7.92338H195.48V7.05407H199.503C199.503 6.68475 199.429 6.3552 199.281 6.06543C199.136 5.77566 198.929 5.54696 198.659 5.37935C198.392 5.21174 198.077 5.12793 197.713 5.12793C197.312 5.12793 196.966 5.22736 196.673 5.42623C196.383 5.62225 196.16 5.87793 196.004 6.19327C195.848 6.50861 195.77 6.84668 195.77 7.20748V7.78702C195.77 8.28134 195.855 8.70037 196.025 9.04412C196.199 9.38503 196.439 9.64498 196.746 9.82395C197.052 10.0001 197.409 10.0882 197.815 10.0882C198.079 10.0882 198.318 10.0512 198.531 9.97736C198.747 9.90066 198.933 9.78702 199.089 9.63645C199.246 9.48304 199.366 9.2927 199.452 9.06543L200.423 9.33816C200.321 9.6677 200.149 9.95748 199.908 10.2075C199.666 10.4546 199.368 10.6478 199.013 10.787C198.658 10.9234 198.258 10.9916 197.815 10.9916Z" fill="#999999"/>
<path d="M206.676 7.12225V8.05975H203.062V7.12225H206.676ZM203.301 4.30975V10.8552H202.295V4.30975H203.301ZM207.443 4.30975V10.8552H206.437V4.30975H207.443Z" fill="#999999"/>
<path d="M213.9 7.12225V8.05975H210.287V7.12225H213.9ZM210.525 4.30975V10.8552H209.52V4.30975H210.525ZM214.667 4.30975V10.8552H213.662V4.30975H214.667Z" fill="#999999"/>
<path d="M217.613 6.67907H219.488C220.255 6.67907 220.842 6.87367 221.248 7.26287C221.655 7.65208 221.858 8.14498 221.858 8.74157C221.858 9.13361 221.767 9.49015 221.585 9.81117C221.403 10.1294 221.136 10.3836 220.784 10.574C220.432 10.7615 220 10.8552 219.488 10.8552H216.744V4.30975H217.75V9.9177H219.488C219.886 9.9177 220.213 9.81259 220.468 9.60236C220.724 9.39213 220.852 9.12225 220.852 8.7927C220.852 8.44611 220.724 8.16344 220.468 7.94469C220.213 7.72594 219.886 7.61657 219.488 7.61657H217.613V6.67907ZM222.897 10.8552V4.30975H223.903V10.8552H222.897Z" fill="#999999"/>
<path d="M226.99 9.37225L230.143 4.30975H231.302V10.8552H230.297V5.7927L227.16 10.8552H225.984V4.30975H226.99V9.37225ZM229.478 2.12793H230.416C230.416 2.58816 230.257 2.96458 229.939 3.25719C229.62 3.5498 229.189 3.69611 228.643 3.69611C228.106 3.69611 227.679 3.5498 227.36 3.25719C227.045 2.96458 226.887 2.58816 226.887 2.12793H227.825C227.825 2.34952 227.886 2.54412 228.008 2.71174C228.133 2.87935 228.345 2.96316 228.643 2.96316C228.941 2.96316 229.154 2.87935 229.282 2.71174C229.413 2.54412 229.478 2.34952 229.478 2.12793Z" fill="#999999"/>
<path d="M129.833 22.1222V23.0597H126.219V22.1222H129.833ZM126.458 19.3097V25.8552H125.452V19.3097H126.458ZM130.6 19.3097V25.8552H129.594V19.3097H130.6Z" fill="#999999"/>
<path d="M134.363 26.0086C133.948 26.0086 133.571 25.9305 133.233 25.7742C132.895 25.6151 132.627 25.3865 132.428 25.0882C132.229 24.787 132.13 24.4234 132.13 23.9972C132.13 23.6222 132.204 23.3183 132.351 23.0853C132.499 22.8495 132.696 22.6649 132.944 22.5313C133.191 22.3978 133.464 22.2984 133.762 22.233C134.063 22.1649 134.366 22.1109 134.669 22.0711C135.067 22.02 135.39 21.9816 135.637 21.9561C135.887 21.9276 136.069 21.8808 136.182 21.8154C136.299 21.7501 136.357 21.6365 136.357 21.4745V21.4404C136.357 21.02 136.242 20.6933 136.012 20.4603C135.785 20.2274 135.439 20.1109 134.976 20.1109C134.496 20.1109 134.12 20.216 133.847 20.4262C133.574 20.6365 133.383 20.8609 133.272 21.0995L132.317 20.7586C132.488 20.3609 132.715 20.0512 132.999 19.8296C133.286 19.6052 133.598 19.449 133.937 19.3609C134.277 19.27 134.613 19.2245 134.942 19.2245C135.152 19.2245 135.394 19.2501 135.667 19.3012C135.942 19.3495 136.208 19.4504 136.464 19.6038C136.722 19.7572 136.937 19.9887 137.107 20.2984C137.277 20.608 137.363 21.0228 137.363 21.5427V25.8552H136.357V24.9688H136.306C136.238 25.1109 136.124 25.2629 135.965 25.4248C135.806 25.5867 135.594 25.7245 135.33 25.8382C135.066 25.9518 134.743 26.0086 134.363 26.0086ZM134.516 25.1052C134.914 25.1052 135.249 25.0271 135.522 24.8708C135.797 24.7146 136.005 24.5129 136.144 24.2657C136.286 24.0186 136.357 23.7586 136.357 23.4859V22.5654C136.314 22.6166 136.221 22.6634 136.076 22.7061C135.934 22.7458 135.769 22.7813 135.581 22.8126C135.397 22.841 135.216 22.8666 135.04 22.8893C134.867 22.9092 134.726 22.9262 134.618 22.9404C134.357 22.9745 134.113 23.0299 133.885 23.1066C133.661 23.1805 133.479 23.2927 133.34 23.4433C133.204 23.591 133.135 23.7927 133.135 24.0484C133.135 24.3978 133.265 24.662 133.523 24.841C133.785 25.0171 134.116 25.1052 134.516 25.1052Z" fill="#999999"/>
<path d="M139.612 28.3097C139.441 28.3097 139.289 28.2955 139.156 28.2671C139.022 28.2416 138.93 28.216 138.879 28.1904L139.134 27.3041C139.379 27.3666 139.595 27.3893 139.782 27.3722C139.97 27.3552 140.136 27.2714 140.281 27.1208C140.428 26.9731 140.563 26.733 140.685 26.4007L140.873 25.8893L138.453 19.3097H139.543L141.35 24.5257H141.418L143.225 19.3097H144.316L141.538 26.8097C141.413 27.1478 141.258 27.4276 141.073 27.6492C140.889 27.8737 140.674 28.0399 140.43 28.1478C140.188 28.2558 139.916 28.3097 139.612 28.3097Z" fill="#999999"/>
<path d="M150.49 19.3097V25.8552H149.484V19.3097H150.49ZM150.098 22.4291V23.3666C149.87 23.4518 149.645 23.5271 149.42 23.5924C149.196 23.6549 148.96 23.7046 148.713 23.7416C148.466 23.7757 148.194 23.7927 147.899 23.7927C147.157 23.7927 146.562 23.5924 146.113 23.1919C145.667 22.7913 145.444 22.1904 145.444 21.3893V19.2927H146.45V21.3893C146.45 21.7245 146.514 22.0001 146.642 22.216C146.77 22.4319 146.943 22.5924 147.162 22.6975C147.38 22.8026 147.626 22.8552 147.899 22.8552C148.325 22.8552 148.71 22.8169 149.054 22.7401C149.4 22.6606 149.748 22.5569 150.098 22.4291Z" fill="#999999"/>
<path d="M156.716 22.1222V23.0597H153.102V22.1222H156.716ZM153.341 19.3097V25.8552H152.335V19.3097H153.341ZM157.483 19.3097V25.8552H156.477V19.3097H157.483Z" fill="#999999"/>
<path d="M160.189 21.6791H162.064C162.831 21.6791 163.417 21.8737 163.824 22.2629C164.23 22.6521 164.433 23.145 164.433 23.7416C164.433 24.1336 164.342 24.4901 164.16 24.8112C163.978 25.1294 163.711 25.3836 163.359 25.574C163.007 25.7615 162.575 25.8552 162.064 25.8552H159.319V19.3097H160.325V24.9177H162.064C162.461 24.9177 162.788 24.8126 163.044 24.6024C163.299 24.3921 163.427 24.1222 163.427 23.7927C163.427 23.4461 163.299 23.1634 163.044 22.9447C162.788 22.7259 162.461 22.6166 162.064 22.6166H160.189V21.6791ZM165.473 25.8552V19.3097H166.478V25.8552H165.473Z" fill="#999999"/>
<path d="M169.325 24.3722L172.478 19.3097H173.638V25.8552H172.632V20.7927L169.495 25.8552H168.319V19.3097H169.325V24.3722ZM171.814 17.1279H172.751C172.751 17.5882 172.592 17.9646 172.274 18.2572C171.956 18.5498 171.524 18.6961 170.978 18.6961C170.441 18.6961 170.014 18.5498 169.696 18.2572C169.38 17.9646 169.223 17.5882 169.223 17.1279H170.16C170.16 17.3495 170.221 17.5441 170.343 17.7117C170.468 17.8794 170.68 17.9632 170.978 17.9632C171.277 17.9632 171.49 17.8794 171.618 17.7117C171.748 17.5441 171.814 17.3495 171.814 17.1279Z" fill="#999999"/>
<path d="M184.002 19.3097V24.9177H184.923V27.9688H183.917V25.8552H178.854V19.3097H179.86V24.9177H182.997V19.3097H184.002Z" fill="#999999"/>
<path d="M189.146 25.9916C188.515 25.9916 187.971 25.8524 187.514 25.574C187.059 25.2927 186.708 24.9007 186.461 24.3978C186.217 23.8921 186.095 23.3041 186.095 22.6336C186.095 21.9632 186.217 21.3722 186.461 20.8609C186.708 20.3467 187.052 19.9461 187.492 19.6592C187.935 19.3694 188.453 19.2245 189.043 19.2245C189.384 19.2245 189.721 19.2813 190.053 19.395C190.386 19.5086 190.688 19.6933 190.961 19.949C191.234 20.2018 191.451 20.537 191.613 20.9546C191.775 21.3722 191.856 21.8865 191.856 22.4972V22.9234H186.81V22.0541H190.833C190.833 21.6847 190.759 21.3552 190.612 21.0654C190.467 20.7757 190.259 20.547 189.989 20.3794C189.722 20.2117 189.407 20.1279 189.043 20.1279C188.643 20.1279 188.296 20.2274 188.004 20.4262C187.714 20.6222 187.491 20.8779 187.335 21.1933C187.178 21.5086 187.1 21.8467 187.1 22.2075V22.787C187.1 23.2813 187.185 23.7004 187.356 24.0441C187.529 24.385 187.769 24.645 188.076 24.824C188.383 25.0001 188.739 25.0882 189.146 25.0882C189.41 25.0882 189.649 25.0512 189.862 24.9774C190.078 24.9007 190.264 24.787 190.42 24.6365C190.576 24.483 190.697 24.2927 190.782 24.0654L191.754 24.3382C191.651 24.6677 191.479 24.9575 191.238 25.2075C190.997 25.4546 190.698 25.6478 190.343 25.787C189.988 25.9234 189.589 25.9916 189.146 25.9916Z" fill="#999999"/>
<path d="M197.766 22.1222V23.0597H194.153V22.1222H197.766ZM194.391 19.3097V25.8552H193.386V19.3097H194.391ZM198.533 19.3097V25.8552H197.528V19.3097H198.533Z" fill="#999999"/>
<path d="M199.479 20.2472V19.3097H204.798V20.2472H202.65V25.8552H201.644V20.2472H199.479Z" fill="#999999"/>
<path d="M206.265 28.3097V19.3097H207.236V20.3495H207.356C207.429 20.2359 207.532 20.091 207.662 19.9149C207.796 19.7359 207.986 19.5768 208.233 19.4376C208.483 19.2955 208.821 19.2245 209.248 19.2245C209.799 19.2245 210.285 19.3623 210.705 19.6379C211.125 19.9134 211.454 20.3041 211.689 20.8097C211.925 21.3154 212.043 21.912 212.043 22.5995C212.043 23.2927 211.925 23.8936 211.689 24.4021C211.454 24.9078 211.127 25.2998 210.709 25.5782C210.292 25.8538 209.81 25.9916 209.265 25.9916C208.844 25.9916 208.508 25.922 208.255 25.7828C208.002 25.6407 207.807 25.4802 207.671 25.3012C207.535 25.1194 207.429 24.9688 207.356 24.8495H207.27V28.3097H206.265ZM207.253 22.5825C207.253 23.0768 207.326 23.5129 207.471 23.8907C207.616 24.2657 207.827 24.5597 208.106 24.7728C208.384 24.983 208.725 25.0882 209.128 25.0882C209.549 25.0882 209.9 24.9774 210.181 24.7558C210.465 24.5313 210.678 24.2302 210.82 23.8524C210.965 23.4717 211.037 23.0484 211.037 22.5825C211.037 22.1222 210.966 21.7075 210.824 21.3382C210.685 20.966 210.473 20.672 210.189 20.4561C209.908 20.2373 209.554 20.1279 209.128 20.1279C208.719 20.1279 208.375 20.2316 208.097 20.439C207.819 20.6436 207.608 20.9305 207.466 21.2998C207.324 21.6663 207.253 22.0938 207.253 22.5825Z" fill="#999999"/>
<path d="M217.089 25.8552V17.1279H220.037C220.722 17.1279 221.282 17.2515 221.716 17.4987C222.154 17.743 222.478 18.074 222.688 18.4916C222.898 18.9092 223.003 19.3751 223.003 19.8893C223.003 20.4035 222.898 20.8708 222.688 21.2913C222.481 21.7117 222.16 22.047 221.725 22.297C221.29 22.5441 220.733 22.6677 220.054 22.6677H217.941V21.7302H220.02C220.489 21.7302 220.866 21.6492 221.15 21.4873C221.434 21.3254 221.64 21.1066 221.767 20.8311C221.898 20.5526 221.964 20.2387 221.964 19.8893C221.964 19.5399 221.898 19.2274 221.767 18.9518C221.64 18.6762 221.432 18.4603 221.145 18.3041C220.858 18.145 220.478 18.0654 220.003 18.0654H218.145V25.8552H217.089Z" fill="#999999"/>
<path d="M227.706 18.1677H229.086C229.734 18.1677 230.309 18.3126 230.812 18.6024C231.315 18.8921 231.71 19.2955 231.997 19.8126C232.284 20.3296 232.427 20.9291 232.427 21.6109C232.427 22.2927 232.284 22.8936 231.997 23.4134C231.71 23.9333 231.315 24.3396 230.812 24.6322C230.309 24.9248 229.734 25.0711 229.086 25.0711H227.706C227.058 25.0711 226.483 24.9262 225.98 24.6365C225.477 24.3467 225.082 23.9433 224.795 23.4262C224.508 22.9092 224.365 22.3097 224.365 21.6279C224.365 20.9461 224.508 20.3453 224.795 19.8254C225.082 19.3055 225.477 18.8992 225.98 18.6066C226.483 18.314 227.058 18.1677 227.706 18.1677ZM227.706 19.1052C227.211 19.1052 226.794 19.2089 226.453 19.4163C226.115 19.6237 225.858 19.9163 225.682 20.2941C225.508 20.672 225.422 21.1166 225.422 21.6279C225.422 22.1336 225.508 22.574 225.682 22.949C225.858 23.324 226.115 23.6151 226.453 23.8225C226.794 24.0299 227.211 24.1336 227.706 24.1336H229.086C229.581 24.1336 229.997 24.0299 230.335 23.8225C230.676 23.6151 230.933 23.3225 231.106 22.9447C231.282 22.5668 231.37 22.1222 231.37 21.6109C231.37 21.1052 231.282 20.6649 231.106 20.2899C230.933 19.9149 230.676 19.6237 230.335 19.4163C229.997 19.2089 229.581 19.1052 229.086 19.1052H227.706ZM228.933 16.9745V26.2132H227.876V16.9745H228.933Z" fill="#999999"/>
<path d="M137.849 43.5431L137.698 48.7771H134.897V45.8552H134.028V43.5431H137.849ZM125.467 45.8552V33.4916H128.341V43.5129H133.074V33.4916H135.99V45.8552H125.467Z" fill="#999999"/>
<path d="M139.214 45.8552V33.4916H142.202V38.4539H147.074V33.4916H150.056V45.8552H147.074V40.8868H142.202V45.8552H139.214Z" fill="#999999"/>
<path d="M151.93 33.4916H154.913V40.6151H155.015L159.881 33.4916H162.453V45.8552H159.464V38.7195H159.386L154.46 45.8552H151.93V33.4916Z" fill="#999999"/>
<path d="M164.332 33.4916H167.314V40.6151H167.417L172.282 33.4916H174.854V45.8552H171.866V38.7195H171.787L166.861 45.8552H164.332V33.4916Z" fill="#999999"/>
<path d="M176.329 35.9184V33.4916H186.778V35.9184H183.03V45.8552H180.084V35.9184H176.329Z" fill="#999999"/>
<path d="M188.238 33.4916H191.939L195.078 41.1464H195.223L198.362 33.4916H202.062V45.8552H199.153V38.2607H199.05L196.08 45.7767H194.221L191.25 38.2185H191.148V45.8552H188.238V33.4916Z" fill="#999999"/>
<path d="M206.601 45.8552H203.389L207.561 33.4916H211.539L215.71 45.8552H212.499L209.595 36.6066H209.498L206.601 45.8552ZM206.172 40.9894H212.885V43.2593H206.172V40.9894Z" fill="#999999"/>
<path d="M217.7 33.4916H220.609V43.5129H223.894V33.4916H226.779V43.5129H230.003V33.4916H232.895V45.8552H217.7V33.4916Z" fill="#999999"/>
</svg>
