<svg width="79" height="106" viewBox="0 0 79 106" fill="none" xmlns="http://www.w3.org/2000/svg">
<g clip-path="url(#clip0_28012_7559)">
<path d="M-2.5762 -2.38056L52.1813 -2.38449L71.3459 -2.38579C74.9279 -2.38587 78.5139 -2.42591 82.095 -2.36833C82.1913 -2.18318 82.2093 -2.02614 82.2118 -1.8191C82.2547 1.77377 82.2113 5.37249 82.2086 8.96588L82.1913 31.674L82.2062 56.2439C82.2059 60.2903 82.2564 64.3423 82.1986 68.3882C82.145 69.9969 82.1835 71.6155 82.1803 73.2254L82.195 82.7729C82.2006 83.8162 82.3659 87.4962 82.142 88.2864C82.3576 88.9417 82.2171 93.4475 82.2171 94.4671C82.2171 98.6866 82.29 102.921 82.2096 107.139C82.2067 107.3 82.2067 107.489 82.1272 107.633C82.1145 107.656 82.0994 107.678 82.0855 107.701L27.6081 107.707L7.60626 107.708C4.21365 107.708 0.813236 107.761 -2.57864 107.705L-2.57718 94.6594C-2.5762 92.5373 -2.44186 90.3118 -2.60156 88.198C-2.5094 87.5147 -2.5606 86.7572 -2.55889 86.0648L-2.55475 81.9865C-2.55231 77.894 -2.48184 73.7884 -2.58425 69.6971C-2.49599 63.0245 -2.57547 56.3384 -2.57572 49.6644L-2.5762 -2.38056Z" fill="white"/>
<path d="M-0.083839 0.0724548L53.4526 0.0752291L70.2279 0.0740508C73.3579 0.0732651 76.4989 0.0197392 79.6281 0.0941354C79.6625 0.152867 79.6757 0.16809 79.6974 0.228147C79.8732 0.714423 79.7483 4.18564 79.7483 4.91236L79.7491 17.6403C79.7476 20.2219 79.8634 22.8604 79.7359 25.4338C79.7291 25.5674 79.7042 25.6401 79.6454 25.7574C78.9164 25.5004 77.9035 25.4844 77.126 25.397C74.5439 25.1209 71.9558 24.9219 69.3618 24.8001C67.8844 24.7387 66.4042 24.7515 64.928 24.6633C64.6352 24.3039 64.2095 24.025 63.8454 23.7406C64.1266 23.557 64.5033 23.3561 64.6696 23.0541C64.7681 22.8754 64.7871 22.6689 64.7164 22.4764C64.5394 21.9947 63.7891 21.5792 63.3536 21.3565C62.3042 20.8195 60.7274 21.03 59.6311 21.3602C59.3973 21.4307 59.1608 21.5701 58.9257 21.6202C58.7502 21.6578 58.591 21.6067 58.4588 21.4874C58.2869 21.3322 58.1318 21.1112 58.1309 20.8711C58.1284 20.3191 58.8899 19.9474 59.2164 19.5911C59.359 19.4355 59.3717 19.3621 59.3537 19.157C59.2127 18.9805 59.0111 18.8734 58.7921 18.8229C58.0453 18.6498 56.526 18.8091 55.8589 19.2319C55.7011 19.3319 55.5729 19.4777 55.548 19.6697C55.4839 20.1613 56.1078 20.434 56.3699 20.7729L56.3414 20.9131C55.3505 21.4481 54.8146 21.1859 53.5513 22.0217C53.474 22.0192 53.397 22.0197 53.3197 22.0177C52.7945 22.005 52.3636 22.2397 51.8565 22.3163C50.6454 22.4992 49.5223 22.3595 48.3385 22.8422C47.0762 23.3574 46.3391 24.3083 45.8203 25.5423C45.3573 25.0613 44.8862 24.6273 44.1957 24.546C43.3135 24.4421 41.5689 24.6911 40.8638 25.2777C39.928 26.0565 39.7461 27.5039 39.619 28.6422C37.963 29.3626 36.2176 29.8831 34.556 30.602C32.0692 31.6777 29.7192 32.9761 27.3311 34.2484C27.3248 32.8722 27.5011 31.552 27.6018 30.1846C27.6627 29.3577 27.6091 28.5273 27.6576 27.7003C27.6898 27.1516 27.8141 26.6116 27.8639 26.0644C27.9443 25.178 27.8997 24.3203 27.3192 23.6137C27.3282 22.5947 27.523 20.6649 27.1156 19.7682C26.8825 19.255 26.4609 18.8133 26.1756 18.3242C25.7414 17.5798 26.0144 16.9612 26.2044 16.202C26.3397 15.6613 26.0522 15.2697 25.7911 14.8265C25.8881 14.0469 25.7811 13.283 25.757 12.5026C25.7345 11.7838 25.7638 11.0486 25.6909 10.3331C25.6421 9.85664 25.4944 9.25016 25.0891 8.95554C24.9287 8.83901 24.7395 8.8136 24.55 8.86234C24.2735 8.93347 23.9183 9.18759 23.7717 9.43499C23.6464 9.64645 23.5813 9.89654 23.5496 10.1391C23.4555 10.8607 23.563 11.6197 23.5259 12.3471C23.4986 12.8869 23.3465 13.4581 23.3684 13.9942C23.3784 14.2391 23.4379 14.4928 23.4872 14.7327C23.2338 15.1632 23.0142 15.5842 22.8274 16.0483L23.2941 16.8041C23.3121 17.3176 23.3319 17.7581 23.1373 18.2432C21.9847 19.9025 21.9316 20.0594 21.942 22.0749C21.9445 22.4977 21.9608 22.9466 21.8938 23.3647C21.768 24.1502 21.3139 24.8058 21.2964 25.6366C21.2822 26.2952 21.6275 26.8459 21.6492 27.4865L22.0188 37.788C20.3813 39.1156 18.7435 40.4272 17.193 41.8594C16.5337 42.4738 15.8869 43.1013 15.2526 43.7419C14.6185 44.3826 13.9975 45.036 13.3896 45.702C12.7816 46.3679 12.1873 47.046 11.6065 47.7363C11.0258 48.4264 10.4592 49.128 9.90673 49.8412C9.35406 50.5546 8.81602 51.2788 8.2926 52.0139C7.76918 52.749 7.26072 53.4946 6.76722 54.2505C6.27355 55.0062 5.79532 55.7718 5.33254 56.5472C4.86975 57.3224 4.42274 58.1068 3.99149 58.9004C3.15589 60.4028 1.80217 62.7103 1.39571 64.3401C2.76138 61.968 3.99002 59.5358 5.46152 57.2219C6.35718 55.815 7.30161 54.4422 8.2948 53.1036C9.28815 51.7648 10.3277 50.4635 11.4133 49.1999C12.4992 47.936 13.6285 46.713 14.8013 45.5306C15.9741 44.3483 17.1874 43.2098 18.4412 42.115C19.5779 41.1344 20.7505 40.1306 22.0125 39.3162C22.0581 42.7004 21.8789 46.0671 21.824 49.4491C21.8053 50.6038 22.0369 51.7802 21.9296 52.928C21.7945 54.3713 21.2803 55.786 21.0665 57.2234C19.1027 57.988 17.0818 58.5907 15.1263 59.3914C9.77141 61.5838 4.82855 64.3075 -0.0592129 67.3953L-0.0862759 25.6813C-0.0882265 17.1508 -0.206972 8.60109 -0.083839 0.0724548Z" fill="#999999"/>
<path d="M79.5445 26.0189L79.66 26.0371C79.7917 27.5074 79.7517 28.9852 79.7495 30.4599L79.7583 35.7796L79.7571 54.099L79.7634 63.1736C79.7654 64.3328 79.9278 66.3663 79.6847 67.4076C79.6369 67.3587 79.5923 67.3133 79.5381 67.2716C78.9625 66.8266 78.3209 66.4308 77.7202 66.0181C75.0793 64.1927 72.326 62.5596 69.4603 61.119C57.2453 55.0094 44.9088 52.9219 31.3859 54.8754C30.1975 55.0475 29.0188 55.2854 27.8397 55.511C27.66 54.6053 27.4128 53.7204 27.3438 52.7957C27.2884 52.0547 27.3789 51.2862 27.4108 50.5444C27.4452 49.7371 27.4327 48.9305 27.4135 48.123C27.3145 43.9811 27.2306 39.8726 27.3096 35.7285C28.4729 35.1554 29.5943 34.4731 30.7503 33.8782C33.6262 32.3981 36.724 31.0163 39.8265 30.1093C39.8639 30.2612 39.9062 30.4116 39.9535 30.5605C40.2822 31.5694 41.0634 32.6576 42.026 33.132C42.8733 33.5497 44.0983 33.4738 44.9678 33.1679C45.9134 32.8352 46.3591 32.1327 46.768 31.2593C47.4807 31.8575 48.1993 32.3871 49.0895 32.6905C49.7334 32.9098 50.5549 33.0281 51.2281 32.8963C51.5421 32.8349 51.8533 32.691 52.1685 32.6544C52.1873 32.6522 52.3631 32.6296 52.3775 32.6382C52.6286 32.7912 52.6433 33.1931 53.0188 33.3564C53.67 33.3103 54.2467 32.2591 54.7872 31.8574L54.8762 31.7919C55.1444 31.9127 55.4268 32.0536 55.7113 32.1266C56.0685 32.2181 56.5396 32.213 56.8612 32.3991C57.0361 32.5003 57.1499 32.6982 57.3111 32.8199C57.8855 33.2545 59.18 31.5822 59.6355 31.2502C60.355 30.7255 62.1886 30.717 63.1217 30.5151C64.4564 30.2266 64.1114 30.1296 64.8456 29.203C65.0828 28.9037 65.3674 28.6375 65.5651 28.3078C65.6995 28.0841 65.7397 27.9446 65.6805 27.6903C65.4244 27.268 65.0012 27.1845 64.5593 27.0573C64.7946 26.7234 64.9531 26.3661 65.1197 25.9941C68.3196 26.001 71.5174 26.0902 74.713 26.2618C76.2182 26.3472 77.9623 26.7214 79.4396 26.604C79.5752 26.4661 79.4582 26.2321 79.5445 26.0189Z" fill="#999999"/>
<path d="M-0.0335414 98.8218L49.2705 98.8265C59.4154 98.8274 69.5706 98.9254 79.7145 98.8193C79.7623 98.9063 79.8038 98.9816 79.8223 99.0808C79.9479 99.7479 79.8981 104.218 79.8238 105.035C79.812 105.164 79.7696 105.241 79.7033 105.349C79.1798 105.518 75.7065 105.396 74.9648 105.396L61.6681 105.388L20.4084 105.384L-0.0357365 105.376C-0.0764556 103.195 -0.0576803 101.003 -0.0335414 98.8218Z" fill="#999999"/>
<path d="M24.2895 17.7412C24.3795 17.9314 24.3741 18.013 24.5748 18.0905L24.6891 18.0379C24.8523 18.1471 24.9103 18.1757 25.1058 18.1183C25.1375 18.109 25.1678 18.0954 25.1985 18.084C25.4104 18.7473 26.1053 19.5183 26.5042 20.1095C26.5325 21.4703 26.4817 22.901 26.6302 24.2512C26.749 24.3459 26.855 24.3995 26.9918 24.4608C27.2279 24.9173 27.2259 25.9286 27.0745 26.4293C27.0082 26.6485 26.8941 26.8702 26.8553 27.0952C26.7207 27.872 26.8985 29.0152 26.8472 29.8711C26.7921 30.7931 26.6632 31.7104 26.6193 32.6334C26.451 36.1798 26.4376 39.7882 26.4947 43.3398C26.5286 45.4482 26.6988 47.5536 26.7361 49.6615C26.7541 50.6825 26.5444 51.7171 26.5988 52.728C26.6885 54.3981 27.3134 56.0714 27.5339 57.7432L29.1619 70.8107C29.2984 71.8856 29.3138 72.9859 29.4798 74.0537C29.5011 74.1972 29.5345 74.3379 29.5798 74.4758C29.6253 74.6136 29.6821 74.7465 29.7503 74.8745C30.1728 75.686 30.8009 76.3688 31.2052 77.1913C30.6085 77.196 29.6566 77.0867 29.1902 77.5049C29.1239 77.6623 29.1204 77.7507 29.1263 77.9169C28.7681 78.1374 20.9015 78.1293 20.2227 77.9871C20.0852 77.7148 19.906 77.2567 19.5783 77.1751C19.1433 77.0666 18.5852 77.319 18.1738 77.1319C18.3111 76.2647 19.62 75.2136 19.8106 74.1627C19.9699 73.2854 19.913 72.3644 20.0315 71.4773L21.388 60.6245C21.6033 58.8592 21.6932 57.0253 22.2357 55.3208C22.4988 54.1422 22.7027 53.0757 22.6941 51.864C22.5291 50.8357 22.4764 49.6618 22.6064 48.6276C22.4957 46.8806 22.7544 45.0723 22.7502 43.3145C22.7488 42.8289 22.6037 42.2067 22.9107 41.7937C23.0111 41.7772 23.0986 41.7677 23.1881 41.7141C23.2579 41.6724 23.3259 41.6223 23.3939 41.5774C23.5171 41.3775 23.5917 41.3085 23.5873 41.0691L23.4676 40.9601C23.2445 41.0429 23.1633 41.2216 23.0616 41.4288C23.0226 41.5086 22.9443 41.5293 22.8687 41.5727C22.6229 41.2125 22.7588 38.686 22.757 38.1178C22.7445 36.1546 22.6846 34.1928 22.5771 32.2324C22.5305 31.374 22.4115 30.5166 22.3955 29.6575C22.3796 28.8237 22.5486 27.8853 22.4445 27.0677C22.4091 26.7912 22.2128 26.5493 22.1129 26.2932C21.9561 25.8923 22.0914 25.0027 22.2867 24.6187C22.4174 24.3616 22.6398 24.1092 22.6841 23.818C22.8595 22.6628 22.4883 21.3441 22.8165 20.2097C23.015 19.5237 23.6397 19.0289 23.9325 18.3734C23.9445 18.3466 23.9559 18.3193 23.9677 18.2926L24.024 18.1648C24.0944 17.9298 24.084 17.8902 24.2895 17.7412Z" fill="#999999"/>
<path d="M23.9682 18.293C24.0814 18.3836 24.2099 18.471 24.3128 18.5726L24.4803 18.5665L24.55 18.6625C24.4593 19.1076 24.135 19.7293 23.7685 20.006C23.8629 20.1038 23.9499 20.1927 24.0272 20.3054C24.4756 20.3041 25.0121 20.2452 25.4405 20.3788L25.4775 20.4721C25.2205 20.7318 24.8614 20.7807 24.5151 20.844C24.5115 21.2268 24.4061 23.3568 24.5993 23.5307C24.8004 23.7124 25.0552 23.6166 25.1708 23.8803L25.141 24.0104L25.0733 24.1909C24.8007 24.2962 24.5117 24.2648 24.224 24.2587L23.9751 24.2987L23.1087 24.2984C23.0673 24.815 22.8298 25.8384 23.127 26.2492C23.2994 26.3221 23.4584 26.3143 23.6413 26.3148C23.5976 26.4336 23.561 26.5821 23.4991 26.6907L23.1938 26.7768C22.9881 27.1655 22.999 29.3353 23.0997 29.832C23.118 29.9219 23.1309 29.9378 23.167 30.0093L23.1156 30.2528C23.0775 30.7459 23.07 31.2546 23.2794 31.7135C23.2258 31.921 23.2475 31.9647 23.305 32.1638C23.3382 33.2029 23.1039 37.276 23.2926 37.899C23.3465 38.1899 23.2309 38.4949 23.2421 38.7988C23.2372 39.218 23.2482 39.6452 23.2173 40.0626C23.6766 40.29 24.0258 40.438 24.54 40.4928L24.6395 40.5713C24.5856 40.7908 24.3991 41.2802 24.1996 41.389C24.0319 41.4803 23.8132 41.4727 23.631 41.5495C23.5303 41.592 23.4994 41.5969 23.3945 41.5778C23.5176 41.3779 23.5923 41.3089 23.5879 41.0695L23.4681 40.9605C23.245 41.0433 23.1639 41.222 23.0622 41.4292C23.0232 41.509 22.9449 41.5296 22.8693 41.5731C22.6235 41.2129 22.7593 38.6864 22.7576 38.1182C22.7451 36.1549 22.6851 34.1931 22.5777 32.2328C22.5311 31.3744 22.4121 30.517 22.396 29.6579C22.3802 28.8241 22.5492 27.8857 22.445 27.068C22.4097 26.7916 22.2134 26.5497 22.1134 26.2936C21.9567 25.8927 22.092 25.0031 22.2873 24.6191C22.418 24.362 22.6404 24.1096 22.6847 23.8184C22.86 22.6632 22.4889 21.3444 22.8171 20.2101C23.0156 19.5241 23.6403 19.0293 23.9331 18.3737C23.9451 18.347 23.9565 18.3197 23.9682 18.293Z" fill="#999999"/>
<path d="M24.0266 20.305C24.475 20.3038 25.0115 20.2449 25.4399 20.3784L25.4769 20.4717C25.2199 20.7315 24.8608 20.7804 24.5145 20.8437C24.5109 21.2265 24.4055 23.3565 24.5987 23.5303C24.7998 23.712 25.0546 23.6163 25.1702 23.88L25.1404 24.0101L23.2288 23.9062C23.2491 22.7662 23.1418 21.5285 23.2947 20.4035C23.4773 20.2711 23.8001 20.3143 24.0266 20.305Z" fill="white"/>
<path d="M24.3121 18.5725L24.4796 18.5664L24.5493 18.6624C24.4586 19.1076 24.1343 19.7292 23.7679 20.006C23.6776 20.0052 23.6035 19.9898 23.5155 19.9713C23.4901 19.5065 24.0395 18.9377 24.3121 18.5725Z" fill="white"/>
<path d="M23.2508 43.2679C23.6945 43.0963 24.149 43.0754 24.6177 43.0381C24.6099 45.4657 24.4628 47.8888 24.4348 50.3159C23.9127 50.3391 23.3903 50.3511 22.8677 50.3518C22.9006 50.5855 22.9545 50.7313 23.083 50.9288C23.3561 51.1478 23.5129 51.3319 23.5483 51.6924C23.5739 51.9499 23.539 52.2114 23.3773 52.4159C23.3505 52.2004 23.3147 51.9931 23.2649 51.782L23.1281 51.7159C22.9782 51.7577 22.8387 51.8065 22.6939 51.864C22.5288 50.8357 22.4761 49.6618 22.6061 48.6276C22.4954 46.8807 22.7541 45.0723 22.75 43.3146C22.8897 43.2151 23.0877 43.2588 23.2508 43.2679Z" fill="white"/>
<path d="M22.75 43.315C22.8897 43.2156 23.0877 43.2593 23.2508 43.2684C22.9689 45.3623 23.0167 47.5364 22.8997 49.6473C22.8953 49.8815 22.9002 50.1202 22.8677 50.3522C22.9006 50.586 22.9545 50.7318 23.083 50.9292C23.3561 51.1482 23.5129 51.3324 23.5483 51.6928C23.5739 51.9504 23.539 52.2119 23.3773 52.4164C23.3505 52.2008 23.3147 51.9936 23.2649 51.7824L23.1281 51.7164C22.9782 51.7581 22.8387 51.807 22.6939 51.8644C22.5288 50.8362 22.4761 49.6623 22.6061 48.6281C22.4954 46.8811 22.7541 45.0728 22.75 43.315Z" fill="#999999"/>
<path d="M23.0839 50.9288C23.5486 50.9256 24.4347 50.809 24.7948 51.114C24.8601 51.8734 24.3966 56.6129 24.0499 57.0175C24.0343 57.0357 24.0138 57.0495 23.9958 57.0654C23.8875 57.0423 23.889 57.0661 23.8227 56.963C23.7371 56.8297 23.7322 56.6713 23.7171 56.5176L23.6769 56.8412C23.4959 56.9647 23.2819 56.9893 23.0605 56.9279C23.0466 56.924 23.0356 56.9127 23.0229 56.9051L22.9073 57.034C22.7091 57.0438 22.6089 57.0914 22.4531 56.9601C22.3551 56.5481 22.5028 55.9973 22.5572 55.5748L22.2363 55.3209C22.4994 54.1423 22.7033 53.0758 22.6947 51.8641C22.8396 51.8066 22.979 51.7577 23.129 51.716L23.2658 51.782C23.3155 51.9932 23.3513 52.2004 23.3782 52.416C23.5398 52.2115 23.5747 51.95 23.5491 51.6924C23.5137 51.332 23.357 51.1478 23.0839 50.9288Z" fill="white"/>
<path d="M22.6947 51.8639C22.8396 51.8064 22.979 51.7576 23.129 51.7158L23.2658 51.7819C23.3155 51.993 23.3513 52.2003 23.3782 52.4158C23.2248 52.6685 23.6639 55.9898 23.7171 56.5174L23.6769 56.8411C23.4959 56.9646 23.2819 56.9891 23.0605 56.9277C23.0466 56.9238 23.0356 56.9125 23.0229 56.9049L22.9073 57.0338C22.7091 57.0436 22.6089 57.0913 22.4531 56.9599C22.3551 56.5479 22.5028 55.9972 22.5572 55.5746L22.2363 55.3207C22.4994 54.1422 22.7033 53.0756 22.6947 51.8639Z" fill="#999999"/>
<path d="M22.5559 55.5749C22.6336 55.0735 22.6729 54.5117 22.8562 54.0381L22.9513 54.0671C23.1327 54.9598 23.0345 55.9969 23.0216 56.9052L22.906 57.0341C22.7078 57.0439 22.6075 57.0915 22.4517 56.9602C22.3537 56.5482 22.5015 55.9974 22.5559 55.5749Z" fill="white"/>
<path d="M23.3045 32.1631C23.86 32.1773 24.2096 32.3566 24.6809 32.6276C24.7589 34.3847 24.6907 36.1611 24.637 37.9184C24.1891 37.9147 23.7395 37.9176 23.2921 37.8982C23.1034 37.2753 23.3377 33.2022 23.3045 32.1631Z" fill="white"/>
<path d="M23.6409 26.3142C23.8098 26.3103 24.0115 26.2858 24.1753 26.3187C24.4572 26.339 24.8359 26.3128 25.0724 26.4788C25.0921 26.6035 25.1221 26.6241 25.0534 26.7358C25.2638 26.7346 25.4445 26.7172 25.6344 26.8186L25.6154 26.9303C25.3477 27.0982 25.0773 27.2262 24.7895 27.3541C24.7786 27.9706 24.6671 28.8184 24.8215 29.4082C24.9592 29.5265 25.0985 29.6311 25.2484 29.7333L25.2331 29.8477C24.6815 30.0851 23.7747 29.9987 23.1666 30.0088C23.1305 29.9373 23.1176 29.9214 23.0993 29.8315C22.9986 29.3348 22.9877 27.165 23.1934 26.7763L23.4987 26.6902C23.5606 26.5816 23.5972 26.4331 23.6409 26.3142Z" fill="white"/>
<path d="M23.6412 26.3142C23.8101 26.3103 24.0118 26.2858 24.1756 26.3187C24.4575 26.339 24.8362 26.3128 25.0727 26.4788C25.0924 26.6035 25.1224 26.6241 25.0537 26.7358C24.5448 26.7022 23.9923 26.8318 23.499 26.6902C23.561 26.5816 23.5975 26.4331 23.6412 26.3142Z" fill="#999999"/>
<path d="M23.2417 38.7986L23.2895 38.42C23.445 38.3429 23.4699 38.35 23.6372 38.4079C24.0639 38.5562 24.4654 39.0173 24.6483 39.4222C24.7663 39.6832 24.6839 40.064 24.6549 40.3425L24.5396 40.4925C24.0253 40.4377 23.6762 40.2897 23.2168 40.0623C23.2478 39.6449 23.2368 39.2177 23.2417 38.7986Z" fill="white"/>
<path d="M23.1085 24.2979L23.9749 24.2981L24.0383 24.5562C23.9507 24.9254 23.7844 25.4887 23.8744 25.8543C24.2155 26.2056 24.6639 25.9503 25.0177 26.1934C24.7354 26.3198 24.4788 26.3159 24.1755 26.3186C24.0117 26.2857 23.81 26.3102 23.6411 26.3142C23.4582 26.3137 23.2992 26.3215 23.1268 26.2486C22.8296 25.8378 23.0671 24.8145 23.1085 24.2979Z" fill="white"/>
<path d="M23.1158 30.2529C23.5803 30.5557 23.9616 30.6593 24.5036 30.7396C24.044 30.9802 23.78 31.1815 23.4447 31.5808C23.3959 31.6387 23.3445 31.6755 23.2796 31.7136C23.0702 31.2547 23.0777 30.746 23.1158 30.2529Z" fill="white"/>
<path d="M24.2236 24.2588C24.5276 24.263 24.83 24.2458 25.1104 24.3816L25.1035 24.48C24.7519 24.6151 24.4062 24.6062 24.038 24.5569L23.9746 24.2988L24.2236 24.2588Z" fill="white"/>
<path d="M22.4885 57.5762L22.6363 57.6786C22.7514 58.0424 22.509 67.1409 22.3195 67.5458C22.0991 67.6928 21.9338 67.6565 21.6788 67.6575L21.622 67.7724C22.0523 68.0255 22.8023 67.7031 23.1968 68.0135L23.1361 68.1483C22.8604 68.2814 22.5575 68.272 22.2566 68.2885C22.1394 69.2311 21.9779 70.3964 22.1159 71.3378C22.2849 71.4627 22.4593 71.4325 22.6641 71.4397L22.5797 71.7503C22.1654 72.066 21.1107 71.8129 20.585 71.7552C20.8268 69.9311 21.996 58.4412 22.4885 57.5762Z" fill="white"/>
<path d="M25.5145 57.6177C25.7686 57.6186 26.0777 57.5698 26.2991 57.7122C26.5486 58.575 26.4901 60.1602 26.5427 61.1133C26.6646 63.3246 26.8595 65.5584 26.8787 67.7714L25.7005 67.8092C25.5182 64.4327 25.4977 61.0001 25.5145 57.6177Z" fill="white"/>
<path d="M23.8636 57.6416L24.0986 57.7261C24.1315 57.786 24.1757 57.8407 24.1976 57.9056C24.291 58.183 24.4158 71.8999 24.31 72.2974C24.2852 72.2905 24.26 72.2844 24.2352 72.277C24.1389 72.2486 23.9258 72.1941 23.8877 72.0985C23.7685 71.8002 23.7375 59.8519 23.7634 58.595C23.7702 58.2714 23.7653 57.9532 23.8636 57.6416Z" fill="white"/>
<path d="M20.4834 72.3242C21.6011 72.3394 22.7754 72.3183 23.8755 72.5388C23.3654 72.6635 22.6269 72.5963 22.218 72.9547C21.8391 73.2874 21.9564 74.3631 21.9525 74.8338C21.9537 75.1832 22.029 75.7867 21.774 76.06C21.5206 76.3313 20.8528 76.2829 20.4985 76.2999C20.6277 74.9821 20.5022 73.6452 20.4834 72.3242Z" fill="white"/>
<path d="M25.7217 68.043L26.8989 68.0582C27.052 69.3482 27.09 70.6783 27.1607 71.9757L25.8277 71.983C25.773 70.6702 25.7376 69.3569 25.7217 68.043Z" fill="white"/>
<path d="M25.8867 72.5283C26.1464 72.533 26.3888 72.5477 26.6441 72.5973C26.891 72.9821 26.776 74.0872 26.7616 74.5547C26.7526 74.8412 26.7467 74.9598 26.5331 75.1626C26.3705 75.2974 26.2376 75.3949 26.0413 75.4737C25.8814 75.3055 25.8909 72.9745 25.8867 72.5283Z" fill="white"/>
<path d="M25.9719 53.2012C26.276 53.4808 26.2548 54.7446 26.2789 55.1681C26.3072 55.658 26.4952 56.7273 26.1653 57.1002C25.9644 57.0386 25.7757 57.0214 25.6642 56.8375C25.5818 55.7392 25.7025 54.2616 25.9719 53.2012Z" fill="white"/>
<path d="M19.6033 75.3057L19.6796 75.3808C19.7413 75.7169 19.7325 76.1211 19.5414 76.4165C19.4075 76.6234 19.212 76.621 18.9908 76.6721C18.8994 76.5697 18.9079 76.5397 18.8799 76.4103C19.0184 75.9814 19.3151 75.6418 19.6033 75.3057Z" fill="white"/>
<path d="M25.6446 51.3633C25.8857 51.3765 26.1203 51.3657 26.3356 51.4878C26.4743 51.7176 26.3941 52.0368 26.3687 52.2948C26.1405 52.2857 25.9459 52.2848 25.734 52.1927C25.5753 51.9531 25.6333 51.6405 25.6446 51.3633Z" fill="white"/>
<path d="M55.6319 21.8171C56.0391 21.7499 56.6303 21.8088 56.8817 21.4206C57.1041 21.0778 57.1624 20.6187 57.2368 20.2236L57.2926 20.3024L57.2233 20.2335C57.2414 20.2622 57.2599 20.2904 57.2772 20.3196C57.4401 20.5949 57.4986 21.0587 57.5547 21.3776C57.9143 21.7845 58.3001 22.1059 58.7243 22.4393C58.9552 22.3003 59.1974 22.1466 59.4548 22.0644C60.1758 21.8338 62.2059 21.4744 62.894 21.6826C62.963 21.7035 63.0123 21.7386 63.0703 21.7798L63.0896 21.978L62.9148 22.1714C62.7004 22.2613 62.5731 22.3583 62.3398 22.2972C61.8226 22.3841 60.2858 22.4906 59.993 22.8516L60.0547 22.9571L60.3056 23.0112C60.9007 22.7313 63.5558 22.2503 64.1124 22.5056C64.2007 22.5461 64.2051 22.5591 64.2643 22.6188C64.2044 22.8071 64.121 22.8565 63.9493 22.9569C63.42 23.2665 62.5361 23.3802 61.9246 23.3765L61.7675 23.5452C61.8051 23.667 61.7834 23.6608 61.8963 23.7397C62.5822 23.942 63.9083 24.3412 64.2577 25.0039C64.3948 25.2637 64.3831 25.5735 64.2877 25.8446C63.9988 26.6664 63.1242 27.2093 62.5475 27.813C62.3344 28.0127 62.2279 28.2204 62.1557 28.504C62.222 28.6041 62.2869 28.7313 62.3722 28.8146L63.5982 28.639L63.4968 28.8389C63.6092 28.8833 63.7033 28.9003 63.8233 28.9128C63.9537 29.1053 63.9847 29.1271 63.9837 29.3697C63.7708 29.6752 63.2039 29.7712 62.8567 29.8323C62.3803 29.916 60.3182 30.3118 60.013 30.1426L59.7616 30.096C59.3302 30.4805 57.9675 31.486 57.8207 31.9031C57.8034 31.9525 57.781 31.9996 57.761 32.0477L57.7146 32.1619L57.5859 32.199C57.4745 31.9554 57.4891 31.7489 57.2865 31.5628C56.7201 31.4766 56.1473 31.4005 55.5895 31.2679C55.3327 31.207 55.0294 31.0452 54.7758 31.0244C54.6663 31.0153 54.5868 31.0467 54.4864 31.0862L54.3803 31.1979C54.1765 31.4076 53.9109 31.6613 53.6503 31.7975C53.4106 31.923 53.0958 31.7482 52.8342 31.7654C52.5238 31.7857 52.1759 31.9144 51.873 31.9932C50.8787 32.2515 50.0063 32.2864 49.0239 31.9495C48.1732 31.6576 47.2196 31.045 46.8173 30.208C46.7968 30.2215 46.7761 30.2347 46.7561 30.2487C45.3741 31.2132 46.57 32.0885 43.9879 32.5985C43.6202 32.6711 43.1272 32.8155 42.7573 32.7536C42.6027 32.7279 42.4803 32.6684 42.3506 32.5832C41.2636 31.8334 40.7079 30.78 40.4039 29.5202C40.1686 28.6812 40.4351 27.6024 40.7682 26.823C40.9062 26.306 41.3022 25.8819 41.6779 25.5279C42.5527 25.3324 43.4469 25.1993 44.3444 25.2261C44.9893 25.5792 45.4153 26.0408 45.9083 26.5756C46.2019 26.0833 46.3728 25.5365 46.7173 25.0719C47.6253 23.8457 48.5414 23.3127 50.0129 22.979C50.5473 22.9242 51.0448 22.9542 51.5773 23.0124C52.3397 23.1491 52.3253 22.72 52.9488 22.5697C53.2063 22.5078 53.3972 22.5888 53.6205 22.7114L53.7013 22.773C54.4313 22.3495 54.7226 21.9212 55.6319 21.8171Z" fill="#999999"/>
<path d="M50.0124 22.979C50.5468 22.9243 51.0442 22.9542 51.5768 23.0124C51.4149 23.1435 51.3154 23.1779 51.2676 23.3856L51.2542 23.5595C51.2442 23.7461 51.2293 23.9175 51.1874 24.0997L52.1905 24.0314C52.92 24.4103 53.3891 24.9679 53.6373 25.7631C53.9085 26.6326 53.8721 27.6365 53.4452 28.449C53.029 29.2416 52.2412 29.8697 51.3866 30.1142C50.5424 30.3558 49.5586 30.2291 48.8008 29.7857C48.4219 29.564 47.7628 29.0336 47.657 28.589C47.6392 28.5146 47.6394 28.4389 47.6363 28.3628C47.6285 28.174 47.6619 27.9962 47.5319 27.846C47.4785 27.7841 47.3905 27.7301 47.3242 27.6815C47.2144 27.2177 47.4973 26.4715 47.7062 26.0548C47.5868 26.0546 47.5334 26.0219 47.4332 25.9596L47.3941 25.7521L47.2486 25.743C47.1808 25.5242 47.2398 25.4223 47.2995 25.2045C47.1135 25.1405 46.9099 25.1071 46.7168 25.072C47.6248 23.8458 48.5409 23.3127 50.0124 22.979Z" fill="white"/>
<path d="M50.0124 22.979C50.5468 22.9243 51.0442 22.9542 51.5768 23.0124C51.4149 23.1435 51.3154 23.1779 51.2676 23.3856L51.2542 23.5595C51.2442 23.7461 51.2293 23.9175 51.1874 24.0997C49.7327 24.3688 48.6816 24.9323 47.7062 26.0548C47.5868 26.0546 47.5334 26.0219 47.4332 25.9596L47.3941 25.7521L47.2486 25.743C47.1808 25.5242 47.2398 25.4223 47.2995 25.2045C47.1135 25.1405 46.9099 25.1071 46.7168 25.072C47.6248 23.8458 48.5409 23.3127 50.0124 22.979Z" fill="white"/>
<path d="M47.3945 25.7512C48.6451 24.43 49.5502 24.0806 51.2546 23.5586C51.2446 23.7452 51.2297 23.9166 51.1878 24.0988C49.7331 24.3679 48.6819 24.9314 47.7066 26.0539C47.5872 26.0537 47.5338 26.021 47.4335 25.9587L47.3945 25.7512Z" fill="#999999"/>
<path d="M46.7168 25.0714C47.6248 23.8452 48.5409 23.3122 50.0124 22.9785C50.1401 23.0541 50.2433 23.0814 50.3062 23.2206C50.2835 23.228 50.2606 23.2346 50.2381 23.2425C50.1309 23.2803 50.1699 23.2646 50.0641 23.3404L50.0502 23.3952C48.7703 23.7267 48.0778 24.1271 47.2995 25.204C47.1135 25.1399 46.9099 25.1065 46.7168 25.0714Z" fill="#999999"/>
<path d="M50.0127 22.979C50.5472 22.9243 51.0446 22.9542 51.5771 23.0124C51.4152 23.1435 51.3157 23.1779 51.2679 23.3856C50.862 23.3807 50.4562 23.3841 50.0505 23.3957L50.0644 23.341C50.1702 23.2651 50.1312 23.2808 50.2385 23.243C50.2609 23.2351 50.2838 23.2285 50.3065 23.2211C50.2436 23.0819 50.1405 23.0547 50.0127 22.979Z" fill="#999999"/>
<path d="M55.6322 21.8171C56.0394 21.7499 56.6307 21.8088 56.8821 21.4206C57.1045 21.0778 57.1627 20.6187 57.2371 20.2236L57.2929 20.3024L57.2237 20.2335C57.2417 20.2622 57.2603 20.2904 57.2776 20.3196C57.4405 20.5949 57.499 21.0587 57.5551 21.3776C57.9147 21.7845 58.3004 22.1059 58.7247 22.4393C58.9556 22.3003 59.1977 22.1466 59.4552 22.0644C60.1762 21.8338 62.2063 21.4744 62.8944 21.6826C62.9634 21.7035 63.0126 21.7386 63.0707 21.7798L63.0899 21.978L62.9151 22.1714C62.7008 22.2613 62.5735 22.3583 62.3402 22.2972C61.823 22.3841 60.2862 22.4906 59.9933 22.8516L60.055 22.9571L60.3059 23.0112C60.9011 22.7313 63.5561 22.2503 64.1128 22.5056C64.2011 22.5461 64.2054 22.5591 64.2647 22.6188C64.2047 22.8071 64.1213 22.8565 63.9497 22.9569C63.4203 23.2665 62.5364 23.3802 61.9249 23.3765L61.7679 23.5452C61.8055 23.667 61.7838 23.6608 61.8966 23.7397L61.8272 23.8064C61.6399 23.7674 61.6077 23.7473 61.4248 23.8239C61.391 24.0304 61.4273 24.0478 61.5273 24.2234C61.6675 24.4244 61.7955 24.6464 61.9937 24.7937L61.911 24.8028C61.9517 24.9261 62.0142 25.0589 62.0127 25.189L61.6909 25.3398L61.7143 25.4665C61.2949 25.7599 60.7984 25.9259 60.4052 26.2514L60.4203 27.5481C60.3327 27.4523 60.2452 27.3689 60.1455 27.2861L59.9514 27.3765C59.8307 27.5898 59.7941 27.6382 59.5418 27.7048C59.1465 27.8091 58.2709 27.9906 57.9054 27.8349C57.8477 27.6787 57.7847 27.5294 57.7153 27.3782L57.8718 27.2343C57.7562 27.1219 57.6406 27.0062 57.5175 26.9024C57.2922 26.7121 57.1145 26.7644 56.8458 26.7938C56.679 26.7651 56.5383 26.6961 56.3859 26.6264C56.5637 26.6011 56.7195 26.5697 56.8889 26.5093C57.0121 26.3369 57.0901 26.1083 57.0725 25.893C57.0584 25.7184 56.9262 25.4908 56.7809 25.3958C56.6058 25.2814 56.4332 25.3796 56.2438 25.4265L56.0743 25.2047C55.838 25.3125 55.5713 25.4594 55.3172 25.5109C55.1319 25.5485 54.8905 25.5257 54.7323 25.4161C54.6182 25.3371 54.6421 25.3066 54.6152 25.1782C54.7752 24.779 55.1058 24.6641 55.4672 24.4873L55.6003 24.338L55.4864 23.7888C55.7376 23.6957 55.9521 23.5656 56.2147 23.4966C55.8926 23.2572 55.8266 23.2697 55.4445 23.2771L55.4316 23.1735L55.6866 22.8852L55.3082 22.8192C55.3894 22.7445 55.4747 22.6694 55.5474 22.5859C55.6939 22.4177 55.7266 22.3674 55.7168 22.1459L55.5174 22.0013C55.571 22.003 55.6432 21.9775 55.6961 21.9652L55.6322 21.8171Z" fill="#999999"/>
<path d="M58.8935 23.4453C58.9608 23.8529 59.1373 24.2519 59.2809 24.6381C59.4914 25.2578 59.724 25.9691 59.732 26.6281C59.8956 26.8251 60.0075 26.897 59.979 27.1732C59.9719 27.241 59.9612 27.3085 59.951 27.3758C59.8303 27.5892 59.7937 27.6375 59.5414 27.7041C59.1461 27.8084 58.2705 27.9899 57.905 27.8342C57.8472 27.678 57.7843 27.5288 57.7148 27.3775L57.8714 27.2336C58.0447 27.4271 58.214 27.5005 58.4753 27.5135C58.6741 27.5231 58.7926 27.433 58.9362 27.3075C59.0554 27.1096 59.0108 26.9292 58.9874 26.7075C58.7662 26.0939 58.7489 25.4493 58.4844 24.8313L58.4905 24.753C58.24 24.4193 58.1364 24.0115 58.0101 23.6194C58.311 23.5403 58.6328 23.6322 58.8935 23.4453Z" fill="white"/>
<path d="M60.3049 23.0105C60.9 22.7306 63.5551 22.2496 64.1117 22.505C64.2 22.5455 64.2044 22.5585 64.2636 22.6182C64.2037 22.8065 64.1203 22.8558 63.9486 22.9563C63.4193 23.2659 62.5354 23.3796 61.9239 23.3759L61.7669 23.5446C61.8044 23.6663 61.7827 23.6602 61.8956 23.739L61.8261 23.8058C61.6388 23.7668 61.6067 23.7466 61.4238 23.8232C61.3899 24.0297 61.4262 24.0472 61.5262 24.2227L61.4611 24.2971C61.2629 23.9654 60.5177 23.7464 60.1742 23.6113L60.0813 23.6025C59.995 23.4731 59.9355 23.328 59.8691 23.1873L59.9145 23.0977C60.033 23.0982 60.1525 23.1114 60.2578 23.0481C60.2751 23.0378 60.2893 23.023 60.3049 23.0105Z" fill="#999999"/>
<path d="M61.3945 22.9561C62.0251 22.8203 63.1803 22.4884 63.7994 22.7057L63.7726 22.8216C63.1806 23.1604 62.5864 23.1864 61.9268 23.2564C61.6498 23.1965 61.573 23.1717 61.3945 22.9561Z" fill="white"/>
<path d="M60.7875 23.4005C60.708 23.2851 60.697 23.3067 60.7056 23.1549C60.8979 22.9904 61.1525 22.9894 61.3946 22.9561C61.5731 23.1716 61.6499 23.1964 61.9269 23.2563L61.9293 23.3101L60.7875 23.4005Z" fill="white"/>
<path d="M55.4672 24.4872C55.6927 24.4319 55.9412 24.3786 56.1445 24.2645C56.5832 24.0184 56.7707 23.4714 57.3376 23.5556C57.6475 23.7771 57.784 24.1238 57.9486 24.4582L57.1349 24.8076C56.7812 24.9328 56.4149 25.047 56.0743 25.2046C55.838 25.3124 55.5713 25.4592 55.3172 25.5108C55.1319 25.5483 54.8905 25.5255 54.7323 25.416C54.6182 25.3369 54.6421 25.3065 54.6152 25.1781C54.7752 24.7788 55.1058 24.6639 55.4672 24.4872Z" fill="white"/>
<path d="M60.0566 24.7119C60.6562 24.776 61.3133 24.9047 61.9109 24.802C61.9517 24.9253 62.0141 25.0581 62.0126 25.1882L61.6908 25.339C61.2009 25.6189 60.8279 25.6901 60.2702 25.7218C60.2023 25.3844 60.1311 25.0478 60.0566 24.7119Z" fill="white"/>
<path d="M62.3393 22.2965L62.3771 22.2381C62.186 22.0809 60.0808 22.4878 59.6292 22.4576C59.4965 22.4487 59.5436 22.4753 59.4697 22.3896C60.0532 22.0146 61.5396 21.7848 62.2298 21.8199C62.5541 21.8364 62.696 21.937 62.9143 22.1708C62.6999 22.2607 62.5727 22.3576 62.3393 22.2965Z" fill="white"/>
<path d="M55.6867 22.8851C55.8188 22.6973 55.9559 22.5195 56.1977 22.4849C56.3887 22.4574 56.5944 22.537 56.7371 22.6637C56.8766 22.7879 56.9185 22.9082 56.9656 23.0845C56.918 23.2775 56.8846 23.3519 56.7117 23.4594C56.6303 23.5103 56.4964 23.579 56.4028 23.5996L56.2148 23.4965C55.8927 23.2571 55.8266 23.2696 55.4446 23.277L55.4316 23.1734L55.6867 22.8851Z" fill="white"/>
<path d="M59.9043 24.2695C59.7607 24.0493 59.5256 23.7166 59.5495 23.4563C59.7563 23.4114 59.9026 23.5128 60.0818 23.6027L60.1747 23.6115C60.5183 23.7465 61.2634 23.9656 61.4616 24.2973L61.4017 24.4458C61.0527 24.5914 60.2732 24.342 59.9043 24.2695Z" fill="white"/>
<path d="M58.4482 22.9625C58.6945 23.0814 58.7752 23.1901 58.8934 23.446C58.6328 23.6328 58.3109 23.541 58.0101 23.6201C57.8547 23.4857 57.7304 23.3932 57.6631 23.1941C57.7375 23.019 57.8001 23.0224 57.9664 22.9424L58.4482 22.9625Z" fill="white"/>
<path d="M57.9667 22.9416C57.7424 22.8454 57.6183 22.8098 57.5107 22.5704C57.4356 22.4027 57.4049 22.2664 57.459 22.095C57.6341 22.0727 57.7275 22.1007 57.8762 22.2077C58.0779 22.3533 58.2166 22.6401 58.2929 22.8717L58.4485 22.9618L57.9667 22.9416Z" fill="white"/>
<path d="M56.2146 23.4961L56.4026 23.5992C56.2295 24.0142 55.9789 24.1379 55.6002 24.3375L55.4863 23.7883C55.7375 23.6952 55.952 23.5651 56.2146 23.4961Z" fill="white"/>
<path d="M57.1171 25.1047C57.4352 25.0045 57.7544 24.9078 58.0746 24.8145L58.2109 24.9259C58.3555 25.3946 58.483 25.8577 58.5835 26.3382C58.2316 26.2528 57.8805 26.1627 57.5241 26.0974L57.487 26.0124C57.6228 25.8658 57.8052 25.7286 57.8376 25.5299L57.7311 25.4484C57.5545 25.4909 57.31 25.594 57.1478 25.5186C57.0996 25.3986 57.0864 25.2323 57.1171 25.1047Z" fill="white"/>
<path d="M57.6748 26.5592C58.0037 26.5131 58.3173 26.4328 58.6072 26.627C58.722 26.8792 58.6616 27.0962 58.6187 27.3589C58.4697 27.3275 58.3578 27.2669 58.2288 27.1866C57.9828 27.0336 57.7443 26.8554 57.6748 26.5592Z" fill="white"/>
<path d="M47.0624 29.6025C47.9758 30.7322 49.3571 31.3979 50.7881 31.5535C52.2118 31.7085 52.4093 31.3743 53.6189 30.9463C53.7262 30.9085 53.8001 30.8894 53.8937 30.9586C54.062 31.0831 54.1732 31.1651 54.3804 31.198C54.1766 31.4077 53.911 31.6613 53.6504 31.7976C53.4107 31.9231 53.0959 31.7482 52.8343 31.7654C52.5239 31.7858 52.176 31.9145 51.8731 31.9933C50.8788 32.2516 50.0064 32.2864 49.024 31.9496C48.1733 31.6576 47.2197 31.045 46.8174 30.208C46.9693 30.0715 47.0081 29.7955 47.0624 29.6025Z" fill="#999999"/>
<path d="M40.8618 27.0934C41.0986 26.5049 41.3919 26.1434 41.8339 25.6904C41.7147 26.0391 41.5804 26.3838 41.4531 26.7295L41.5545 27.0487C41.4155 27.6323 41.2975 28.202 41.2285 28.7994C41.5065 28.4014 41.744 27.9793 42.0163 27.5793L42.0875 27.8992C41.8744 28.2346 41.6513 28.5671 41.4684 28.9204C42.0102 28.586 42.5479 28.2258 43.1265 27.9591L42.9826 28.3599C42.5569 28.5813 41.8622 28.8507 41.6252 29.2769L41.6842 29.3975L41.9051 29.4478L41.8988 29.6565C41.7364 29.6698 41.5808 29.6708 41.4324 29.7456L41.4321 29.8193C41.2073 29.8215 40.9632 29.8571 40.7682 29.7275C40.7114 29.6344 40.6558 29.5701 40.5826 29.491L40.4039 29.52C40.1686 28.681 40.4351 27.6021 40.7682 26.8228L40.8618 27.0934Z" fill="#999999"/>
<path d="M40.8613 27.0934C41.0981 26.5049 41.3914 26.1434 41.8334 25.6904C41.7142 26.0391 41.5799 26.3838 41.4526 26.7295C41.28 27.2132 41.2129 27.8155 40.9486 28.2445L40.854 28.2668C40.696 27.9987 40.8255 27.4035 40.8613 27.0934Z" fill="white"/>
<path d="M40.7681 29.7276C40.7595 29.4794 40.7208 29.2385 40.8483 29.0163C41.0402 28.9492 41.0546 28.9716 41.2384 29.0357C41.3133 29.2191 41.2974 29.3691 41.2855 29.5611C41.333 29.6416 41.3564 29.689 41.4322 29.7458L41.432 29.8194C41.2072 29.8216 40.9631 29.8572 40.7681 29.7276Z" fill="white"/>
<path d="M62.372 28.8142L63.5979 28.6387L63.4965 28.8385C63.6089 28.883 63.703 28.8999 63.823 28.9124C63.9534 29.1049 63.9844 29.1268 63.9834 29.3694C63.7706 29.6748 63.2037 29.7708 62.8565 29.832C62.38 29.9157 60.318 30.3115 60.0127 30.1423C60.0693 30.038 60.1524 29.9773 60.2402 29.8997C60.2702 29.5638 60.7686 29.1639 60.9924 28.9065C61.2106 28.9068 61.3625 28.9348 61.5644 29.019L61.5766 29.0995C61.4596 29.1764 61.3601 29.2481 61.2579 29.3456C61.7856 29.1764 61.9243 29.0364 62.372 28.8142Z" fill="white"/>
<path d="M63.823 28.9121C63.9534 29.1046 63.9844 29.1265 63.9834 29.369C63.7706 29.6745 63.2037 29.7705 62.8565 29.8316C62.38 29.9154 60.318 30.3112 60.0127 30.142C60.0693 30.0376 60.1524 29.977 60.2402 29.8994C60.6888 29.8285 61.137 29.7546 61.5846 29.6777C62.1306 29.5829 63.062 29.5289 63.3821 29.0653L63.4387 28.9831L63.823 28.9121Z" fill="#999999"/>
<path d="M40.4043 29.5202L40.583 29.4912C40.6562 29.5703 40.7118 29.6346 40.7686 29.7277C40.9636 29.8573 41.2077 29.8217 41.4325 29.8195C41.858 30.1662 42.3527 30.4039 42.8545 30.6185L42.7063 30.8303C42.3408 30.6462 41.9753 30.4419 41.6 30.2801C41.7778 30.604 41.9455 30.9416 42.1684 31.2369L42.0277 31.3023C42.2525 31.5527 42.7979 32.0295 42.8662 32.3541C42.7065 32.4553 42.6616 32.417 42.4805 32.3863L42.351 32.5832C41.264 31.8333 40.7083 30.78 40.4043 29.5202Z" fill="#999999"/>
<path d="M42.4803 32.3865C41.7981 31.8141 41.4618 31.3113 41.2168 30.4424L41.2819 30.3613C41.6186 30.5833 41.8086 30.9693 42.0275 31.3025C42.2523 31.5529 42.7978 32.0297 42.866 32.3543C42.7063 32.4555 42.6615 32.4172 42.4803 32.3865Z" fill="white"/>
<path d="M42.9824 28.36C43.3452 28.1806 43.7556 27.9223 44.1608 27.8975C44.3539 27.9957 44.4232 28.0418 44.4934 28.255C44.5875 28.542 44.6014 28.9194 44.6499 29.2221C43.7258 29.3623 42.8417 29.449 41.9049 29.448L41.684 29.3977L41.625 29.2771C41.862 28.8509 42.5567 28.5815 42.9824 28.36Z" fill="white"/>
<path d="M41.8983 29.6568C42.8156 29.7622 43.7178 29.702 44.635 29.6426C44.5682 30.1115 44.5236 30.5972 44.3688 31.0463C43.8619 30.9105 43.3532 30.7796 42.8536 30.6186C42.3518 30.404 41.8571 30.1663 41.4316 29.8196L41.4319 29.7459C41.5804 29.6711 41.7359 29.6701 41.8983 29.6568Z" fill="white"/>
<path d="M47.062 29.6026L47.0439 29.4351L47.1173 29.3828C47.4921 29.6112 47.7501 30.0237 48.1104 30.293C49.2796 31.1673 51.0517 31.4183 52.4486 31.0701C53.0991 30.9078 53.5848 30.4875 54.1825 30.2942C54.1861 30.4074 54.081 30.5481 54.0871 30.5997C54.0932 30.652 54.4392 30.9849 54.486 31.0863L54.38 31.198C54.1727 31.1651 54.0615 31.0831 53.8933 30.9586C53.7997 30.8894 53.7258 30.9085 53.6185 30.9464C52.4089 31.3743 52.2114 31.7085 50.7877 31.5536C49.3566 31.3979 47.9754 30.7323 47.062 29.6026Z" fill="white"/>
<path d="M56.8447 26.7932C57.1134 26.7638 57.2911 26.7115 57.5164 26.9018C57.6395 27.0056 57.7551 27.1213 57.8707 27.2337L57.7142 27.3776L57.6871 27.4407C57.6005 27.6364 57.5303 27.8102 57.3157 27.8854C56.9334 28.0194 55.5926 27.8321 55.2427 27.6722C55.2232 27.6028 55.21 27.5686 55.2054 27.4915C55.1925 27.2796 55.2761 27.1863 55.3988 27.0341C55.7962 26.8124 56.3958 26.833 56.8447 26.7932Z" fill="white"/>
<path d="M42.0878 27.8989C42.525 27.3136 42.9178 26.7685 43.5228 26.3447C43.8102 26.7022 44.0282 27.0435 44.2269 27.4577L43.1268 27.9589C42.5482 28.2255 42.0105 28.5857 41.4688 28.9201C41.6516 28.5668 41.8747 28.2343 42.0878 27.8989Z" fill="white"/>
<path d="M53.7006 22.7723C54.4306 22.3487 54.722 21.9205 55.6312 21.8164L55.6951 21.9645C55.6422 21.9767 55.57 22.0023 55.5164 22.0006L55.7158 22.1452C55.7256 22.3666 55.6929 22.417 55.5463 22.5852C55.4737 22.6686 55.3883 22.7438 55.3072 22.8184C55.0977 22.9893 54.6754 23.4234 54.4286 23.4256L54.3726 23.3873L54.0063 23.2142C53.8886 23.2626 53.8335 23.2901 53.7574 23.3942C53.5575 23.5381 53.5587 23.5722 53.3034 23.5403C53.2049 23.4251 53.1256 23.3102 53.0439 23.183C53.092 22.9864 53.4563 23.0539 53.7006 22.7723Z" fill="#999999"/>
<path d="M55.5172 22.001L55.7166 22.1456C55.7264 22.3671 55.6937 22.4174 55.5472 22.5856C55.4745 22.6691 55.3892 22.7442 55.308 22.8188C55.0985 22.9897 54.6762 23.4238 54.4295 23.426L54.3734 23.3877C54.3587 23.2966 54.3278 23.1574 54.3448 23.0646C54.4275 22.6187 55.1475 22.1844 55.5172 22.001Z" fill="white"/>
<path d="M41.5545 27.049C41.7335 26.5714 41.8742 25.9235 42.3345 25.6561C42.5347 25.6254 42.6922 25.621 42.868 25.7403C43.0306 25.8505 43.094 25.9245 43.1365 26.1118C42.8763 26.6736 42.276 27.0198 42.0163 27.5796C41.744 27.9796 41.5065 28.4016 41.2285 28.7996C41.2975 28.2023 41.4155 27.6326 41.5545 27.049Z" fill="white"/>
<path d="M56.2438 25.4258C56.4332 25.3789 56.6059 25.2807 56.7809 25.3951C56.9263 25.4902 57.0584 25.7178 57.0726 25.8923C57.0901 26.1077 57.0121 26.3363 56.889 26.5086C56.7195 26.569 56.5637 26.6005 56.3859 26.6257C56.089 26.6164 55.7988 26.7286 55.5043 26.7313C55.298 26.7333 55.2343 26.6633 55.0995 26.5194C55.0627 26.3687 55.0193 26.2299 55.0766 26.0785C55.2087 25.7288 55.869 25.6105 56.1897 25.4528L56.2438 25.4258Z" fill="white"/>
<path d="M41.5996 30.2793C41.9749 30.4411 42.3404 30.6454 42.7059 30.8295L42.7902 30.871C43.2033 31.0721 43.9277 31.1094 44.094 31.5548C44.0391 31.7812 43.9408 32.0086 43.7285 32.1299C43.5714 32.2195 43.3891 32.2212 43.2213 32.1534C42.8356 31.998 42.4511 31.5386 42.168 31.2361C41.9451 30.9408 41.7774 30.6032 41.5996 30.2793Z" fill="white"/>
<path d="M54.373 23.3873L54.4291 23.4256C54.6758 23.4234 55.0981 22.9892 55.3076 22.8184L55.686 22.8844L55.431 23.1727L55.4439 23.2763C55.8259 23.2689 55.892 23.2564 56.2141 23.4958C55.9515 23.5648 55.737 23.6949 55.4858 23.788L55.2993 23.7575C55.0984 23.8354 54.9413 24.2773 54.7719 24.4639L54.6895 24.4602L54.7129 24.0475C54.5654 23.9814 54.5778 23.9827 54.4266 24.0401C54.4278 24.1629 54.4149 24.2564 54.3825 24.3748C54.0524 24.3414 54.0114 23.6716 53.7971 23.4359C53.7844 23.4216 53.771 23.4081 53.7578 23.3941C53.8339 23.29 53.889 23.2625 54.0068 23.2142L54.373 23.3873Z" fill="#999999"/>
<path d="M61.691 25.3392L62.0128 25.1885C62.0711 25.477 62.1606 25.8487 61.9992 26.1183C61.8639 26.3447 61.601 26.3857 61.3645 26.426C61.1736 26.4586 60.9836 26.4962 60.7932 26.5323C60.7505 26.8348 60.7362 27.4331 60.5235 27.6342L60.4204 27.5476L60.4053 26.2509C60.7986 25.9253 61.295 25.7593 61.7144 25.4659L61.691 25.3392Z" fill="white"/>
<path d="M53.6208 22.7109L53.7015 22.7726C53.4572 23.0542 53.0929 22.9867 53.0449 23.1833C53.1266 23.3105 53.2058 23.4254 53.3043 23.5406C53.0781 23.5791 52.951 23.5178 52.7482 23.4038C52.5911 23.3157 52.4958 23.256 52.4521 23.0832C52.4931 23.0377 52.5058 23.0186 52.5511 22.984C52.7877 22.8057 53.0688 22.8111 53.3453 22.8452C53.4777 22.8617 53.5186 22.7895 53.6208 22.7109Z" fill="white"/>
<path d="M61.5269 24.2231C61.4269 24.0475 61.3906 24.0301 61.4245 23.8236C61.6073 23.747 61.6395 23.7671 61.8268 23.8061C61.9819 24.0065 62.1701 24.1889 62.1825 24.4529C62.1279 24.5842 62.0862 24.6834 61.9933 24.7934C61.7951 24.6461 61.6671 24.4241 61.5269 24.2231Z" fill="white"/>
<path d="M55.1686 28.3532C56.0618 28.0146 56.8374 28.1354 57.7525 28.3058C56.7313 28.75 55.9491 29.6239 55.2618 30.4889C55.2603 30.4906 55.2588 30.4921 55.2571 30.4938L55.155 30.4457C55.1286 30.2232 55.1518 30.1562 55.2949 29.9757C55.5546 29.6487 55.9289 29.4039 56.0835 29.0049C56.0559 28.862 56.0632 28.8256 55.9398 28.7358C55.7662 28.6096 55.5214 28.5958 55.3152 28.585L55.1686 28.3532Z" fill="white"/>
<path d="M44.7193 25.7842C45.0541 26.068 45.6022 26.5257 45.7256 26.9556C45.6683 27.099 45.6661 27.1366 45.5176 27.2036C45.2701 27.3153 44.9775 27.3274 44.7181 27.2596C44.4077 27.0482 44.2487 26.6207 44.0156 26.3239C44.0198 26.1046 44.0971 26.0427 44.22 25.8659C44.3758 25.8006 44.5518 25.8009 44.7193 25.7842Z" fill="white"/>
<path d="M45.5421 27.983L45.4456 27.7935C45.3027 27.7849 45.1869 27.7937 45.0469 27.8161C44.9489 27.7127 44.9262 27.698 44.8994 27.5595C45.0008 27.4434 45.0252 27.4237 45.1883 27.408C45.4346 27.3844 45.7862 27.475 45.9796 27.6368C46.1293 27.7621 46.1493 27.8536 46.1815 28.0402C46.0786 28.301 46.0547 28.3192 45.8206 28.4739C45.4522 28.4282 45.2788 28.536 44.9409 28.313L44.9404 28.1947C45.1742 28.0145 45.2532 28.0181 45.5421 27.983Z" fill="white"/>
<path d="M45.8206 28.4732C45.4522 28.4276 45.2789 28.5354 44.9409 28.3124L44.9404 28.1941C45.1743 28.0138 45.2533 28.0175 45.5422 27.9824C45.5749 28.2203 45.5598 28.2817 45.7626 28.434C45.7814 28.448 45.8014 28.46 45.8206 28.4732Z" fill="white"/>
<path d="M62.5693 24.3721C62.8939 24.3743 63.3515 24.4524 63.6275 24.6235C63.8692 24.7735 63.905 24.9063 63.964 25.1651C63.6614 25.2152 63.3128 25.2921 63.0302 25.1295C62.7602 24.9744 62.6586 24.6507 62.5693 24.3721Z" fill="white"/>
<path d="M46.3175 26.8359C46.3811 26.9047 46.442 26.9604 46.5191 27.0137C46.6859 27.1291 46.7761 27.1873 46.8627 27.3739C46.8239 27.5907 46.7637 27.6221 46.6147 27.7766C46.6005 27.7709 46.5864 27.7653 46.572 27.7599C46.4711 27.7221 46.3599 27.6862 46.2716 27.6224C46.1058 27.5028 46.0136 27.3454 45.9932 27.1456C46.0868 26.9285 46.1165 26.9381 46.3175 26.8359Z" fill="white"/>
<path d="M44.2199 25.8659C43.9144 25.8934 43.6998 25.9047 43.4145 25.7713L43.3789 25.6353C43.3987 25.6144 43.4177 25.5926 43.4386 25.5725C43.5825 25.4335 43.8224 25.3998 44.0129 25.4207C44.3211 25.4544 44.5227 25.542 44.7192 25.7841C44.5517 25.8008 44.3757 25.8006 44.2199 25.8659Z" fill="white"/>
<path d="M55.3152 28.5843C55.3662 28.6344 55.4177 28.6847 55.4652 28.738C55.61 28.9008 55.6737 29.0174 55.6598 29.2315L55.5076 29.3138C55.3045 29.2897 55.1987 29.2627 55.0329 29.14C54.9839 28.9182 55.1402 28.6378 55.1643 28.4012C55.166 28.3852 55.1672 28.3687 55.1687 28.3525L55.3152 28.5843Z" fill="white"/>
<path d="M45.8905 79.1892C46.5349 79.1447 47.2366 79.2987 47.805 79.6058C48.318 79.8833 48.9061 80.4161 49.0641 80.9978C49.3845 82.1761 49.2097 85.8765 49.2104 87.2974C49.2116 89.364 49.3155 91.4896 49.1924 93.5501C49.1699 93.9253 49.1412 94.5182 48.939 94.8411C48.3821 95.7304 47.5363 96.1127 46.5437 96.3052C45.7354 96.3686 44.8518 96.1967 44.1793 95.7241C43.6338 95.3408 43.2942 94.8342 43.1852 94.1716C42.9243 92.583 43.1023 90.0149 43.1016 88.3271C43.1006 86.3317 42.954 83.6834 43.1374 81.7555C43.1835 81.2713 43.253 80.8271 43.5434 80.4254C44.1142 79.6358 44.9681 79.3331 45.8905 79.1892Z" fill="#999999"/>
<path d="M45.3916 82.6309L46.8863 82.6414C46.9282 86.0388 46.9519 89.464 46.8665 92.8602L45.4033 92.874L45.3916 82.6309Z" fill="white"/>
<path d="M16.8982 79.5635C17.6154 79.5818 18.3327 79.5891 19.05 79.5853C19.0303 81.1864 19.0437 82.7895 19.042 84.3909C19.0407 85.2493 18.9388 92.383 19.1046 92.6398C19.2521 92.6518 19.3794 92.6697 19.523 92.7083C19.7898 93.5141 19.6081 96.3125 19.5737 97.2676C18.8284 97.2506 18.0803 97.2605 17.3344 97.2587L17.3286 95.9518C16.0222 95.912 14.7094 95.9447 13.4017 95.9277C13.3357 90.483 13.3425 85.0109 13.4086 79.5664C14.1288 79.5873 14.8528 79.5758 15.5733 79.5782C15.5284 83.9276 15.476 88.313 15.5752 92.6594L16.8921 92.6602L16.8982 79.5635Z" fill="#999999"/>
<path d="M29.6111 79.5508C31.5388 79.6114 33.4833 79.5581 35.413 79.5572C35.5242 84.9991 35.4244 90.4659 35.4249 95.9103L33.2298 95.9425L33.2305 84.9427L33.2273 82.7631L31.769 82.7731L31.7692 95.9118C31.0494 95.9668 30.3016 95.9273 29.5787 95.9248C29.6094 90.4698 29.4902 85.0041 29.6111 79.5508Z" fill="#999999"/>
<path d="M-0.0336561 79.5512C0.940921 79.5632 4.2794 79.3162 4.92384 79.836C5.41344 80.2311 5.58144 81.2134 5.61923 81.8057C5.69141 82.9395 5.63679 84.1029 5.63923 85.2399C5.64142 86.3144 5.72042 87.4561 5.60217 88.5232C5.5556 88.9445 5.44953 89.6843 5.1406 89.9983C4.4296 90.7212 3.05417 90.4889 2.12202 90.4973L2.12519 92.2698L2.12617 95.913C1.39826 95.9303 0.670273 95.931 -0.0577947 95.9149C-0.0970509 92.6791 -0.0707166 89.4393 -0.0697413 86.2032C-0.068766 83.9916 -0.127286 81.76 -0.0336561 79.5512Z" fill="#999999"/>
<path d="M2.11621 82.7734L3.4797 82.7781L3.47238 87.2709L2.12962 87.2745L2.11621 82.7734Z" fill="white"/>
<path d="M36.5759 79.5531C37.5895 79.5669 40.869 79.2919 41.5739 79.8735C42.0493 80.2659 42.1976 81.233 42.2354 81.812C42.3139 83.0171 42.2588 84.2548 42.261 85.4631C42.2629 86.4803 42.3441 87.5803 42.2108 88.5882C42.1518 89.0329 42.0528 89.6663 41.7343 90.0035C41.0433 90.7351 39.6447 90.4903 38.7201 90.4982L38.7423 92.266L38.7569 95.9294C38.026 95.9348 37.2969 95.9404 36.5664 95.9097L36.5759 79.5531Z" fill="#999999"/>
<path d="M38.7457 82.7889L40.0558 82.7666C40.0695 84.2714 40.0685 85.7762 40.0529 87.281C39.6211 87.2829 39.1863 87.2562 38.7548 87.2409C38.7111 85.7594 38.7292 84.271 38.7457 82.7889Z" fill="white"/>
<path d="M55.3892 79.5511C56.4408 79.573 59.7027 79.2784 60.4183 79.8983C60.8687 80.2887 61.0013 81.2426 61.0313 81.8051C61.0991 83.078 61.0503 84.3788 61.0503 85.6543C61.0503 86.6537 61.1318 87.7438 60.9852 88.7311C60.9189 89.178 60.7524 89.8176 60.4259 90.1442C59.8727 90.6978 58.2909 90.4926 57.5434 90.496L57.5546 92.4045L57.5592 95.9112C56.8365 95.9353 56.1109 95.9306 55.3877 95.9375L55.3892 79.5511Z" fill="#999999"/>
<path d="M57.5615 82.7691L58.8706 82.7637C58.8813 84.2614 58.9415 85.7857 58.854 87.28L57.57 87.2724C57.5252 85.7756 57.5378 84.2666 57.5615 82.7691Z" fill="white"/>
<path d="M10.3584 79.5537L12.5597 79.5498C12.3732 82.5578 11.5149 84.8093 10.0622 87.4108C11.7175 89.6043 12.3569 91.7117 12.6199 94.3942L12.6858 95.9243L10.2556 95.9386C10.3453 93.6807 9.94175 91.3599 8.75456 89.4099L8.7626 95.9219L6.60059 95.931L6.60741 79.5532L8.75456 79.5525C8.75033 81.5721 8.75683 83.5915 8.77406 85.6108C9.73376 83.5272 10.1214 81.8357 10.3584 79.5537Z" fill="#999999"/>
<path d="M76.589 79.1957C77.1791 79.1412 77.9844 79.273 78.5084 79.5544C78.99 79.8127 79.343 80.22 79.4986 80.7504C79.6676 81.3271 79.7244 84.7656 79.4715 85.2375L77.5999 85.2429C77.556 84.386 77.5968 83.5119 77.6036 82.6533L76.2333 82.6611C76.2141 86.0557 76.2166 89.4502 76.2408 92.8446C76.6853 92.8524 77.1303 92.85 77.5748 92.8522L77.6036 90.2832L79.2262 90.291C79.3682 90.2989 79.4547 90.3139 79.5822 90.3782C79.6383 90.98 79.5949 91.5653 79.5991 92.1666C79.6056 93.1586 79.8231 94.5591 79.1963 95.4126C78.8061 95.9437 78.1775 96.1804 77.5494 96.2683C76.5632 96.406 75.5001 96.2783 74.6955 95.6456C74.2814 95.3203 74.2029 94.9107 74.1451 94.4093C74.0403 93.4987 74.1073 92.5175 74.1088 91.5995L74.1212 86.324C74.1276 85.2826 74.1251 84.2413 74.1137 83.2001C74.1042 82.5143 74.0454 81.7895 74.1212 81.1081C74.1634 80.7295 74.2897 80.3521 74.5335 80.0558C75.0412 79.4387 75.8414 79.2833 76.589 79.1957Z" fill="#999999"/>
<path d="M70.1044 79.1924C70.1258 79.1914 70.1473 79.1899 70.169 79.1897C70.9921 79.1823 71.9611 79.3569 72.5568 79.9786C73.4516 80.9126 73.0747 83.9307 73.0422 85.2487C72.39 85.2258 71.7329 85.2366 71.0804 85.2337C71.0692 84.3692 71.076 83.5037 71.0741 82.6392L69.703 82.6603C69.685 86.0532 69.6877 89.4461 69.7113 92.8388L71.0704 92.8528L71.0867 90.2811C71.748 90.2946 72.4141 90.2728 73.0759 90.2669C73.071 91.5655 73.1568 92.8842 73.0922 94.1802C73.063 94.7697 72.8718 95.341 72.4076 95.73C71.8043 96.2355 70.6956 96.3546 69.9339 96.2935C69.1873 96.2335 68.438 95.9937 67.9409 95.4002C67.7012 95.1139 67.6849 94.7714 67.6512 94.4087C67.4715 92.4629 67.6078 89.891 67.6071 87.8555C67.6063 85.5055 67.4593 82.8191 67.6707 80.5033C67.737 80.3969 67.8091 80.2947 67.887 80.1966C68.45 79.4868 69.25 79.2943 70.1044 79.1924Z" fill="#999999"/>
<path d="M61.9193 79.5508L66.6245 79.5518C66.7166 80.6235 66.8829 81.6891 67.0321 82.754L63.9697 82.7749C63.9614 83.6112 63.9719 84.4484 63.9736 85.2847L65.8362 85.2872C65.8535 86.1713 65.8354 87.0587 65.8323 87.9433C65.2127 87.9652 64.5885 87.9558 63.9685 87.9608L63.9665 92.7162L65.6087 92.7317L67.1246 92.7371C66.9141 93.7926 66.7532 94.8632 66.5806 95.9258C65.0323 95.9995 63.4559 95.9199 61.903 95.9337L61.9091 85.3564C61.9093 83.4228 61.8657 81.4831 61.9193 79.5508Z" fill="#999999"/>
<path d="M22.94 79.0264C24.0316 79.0566 25.1233 79.0728 26.2153 79.0747L26.2141 96.4422L22.9807 96.4651C22.8615 94.5347 22.9415 92.5525 22.939 90.6162L22.94 79.0264Z" fill="#999999"/>
<path d="M50.1941 79.5518L54.4628 79.5628C54.6388 80.6289 54.819 81.6906 54.9165 82.7677L52.3546 82.7793C52.3115 86.2931 52.3471 89.8111 52.3471 93.3254L52.3449 95.9184C51.6246 95.9322 50.9083 95.944 50.1885 95.9138L50.1941 79.5518Z" fill="#999999"/>
<path d="M24.0235 18.1651C23.9989 17.88 23.8509 15.7004 23.8933 15.5885C24.0055 15.2912 24.1277 15.0255 24.1786 14.7061C24.3261 13.7781 24.134 10.2414 24.4422 9.69288C24.5075 9.57635 24.5409 9.59523 24.6597 9.55762L24.7716 9.65666C25.1317 10.4848 25.0661 13.9911 25.0586 15.0922C25.169 15.2476 25.3829 15.4921 25.4219 15.6786C25.4985 16.0451 25.2632 16.5712 25.2185 16.9434C25.1815 17.2511 25.1907 17.5782 25.189 17.8882L25.1981 18.0843C25.1673 18.0957 25.1371 18.1093 25.1054 18.1186C24.9099 18.176 24.8518 18.1474 24.6887 18.0382L24.5743 18.0908C24.3737 18.0133 24.379 17.9317 24.2891 17.7415C24.0835 17.8905 24.094 17.9301 24.0235 18.1651Z" fill="#999999"/>
<path d="M24.8119 16.2354C24.9235 16.2739 25.0354 16.2792 25.0923 16.3891C25.2793 16.7503 25.082 17.4539 25.1898 17.8877L25.1988 18.0838C25.1681 18.0952 25.1379 18.1088 25.1062 18.1181C24.9106 18.1755 24.8526 18.147 24.6895 18.0377C24.6941 17.4441 24.7087 16.82 24.8119 16.2354Z" fill="#999999"/>
<path d="M24.2891 17.741C24.3568 17.2542 24.2108 16.6892 24.4302 16.2349C24.6107 16.162 24.6219 16.1793 24.8111 16.2353C24.708 16.8199 24.6933 17.4441 24.6887 18.0376L24.5743 18.0902C24.3737 18.0128 24.379 17.9312 24.2891 17.741Z" fill="white"/>
<path d="M62.915 27.8515C63.5948 27.6637 64.1478 27.6419 64.8474 27.6426C64.9849 27.8444 65.0241 27.8452 64.9837 28.0973C64.6562 28.4826 64.0703 28.5489 63.5978 28.6382L62.3718 28.8138C62.2865 28.7306 62.2216 28.6034 62.1553 28.5032C62.2274 28.2196 62.334 28.0119 62.5471 27.8123C62.7092 27.869 62.7444 27.8965 62.915 27.8515Z" fill="#999999"/>
<path d="M62.915 27.8515C63.5948 27.6637 64.1478 27.6419 64.8474 27.6426C64.2905 27.7732 64.3873 28.1248 63.5334 28.1975C63.0755 28.3181 62.6217 28.4222 62.1553 28.5032C62.2274 28.2196 62.334 28.0119 62.5471 27.8123C62.7092 27.869 62.7444 27.8965 62.915 27.8515Z" fill="white"/>
</g>
<defs>
<clipPath id="clip0_28012_7559">
<rect width="79" height="105.333" rx="4" fill="white"/>
</clipPath>
</defs>
</svg>
