<svg width="165" height="48" viewBox="0 0 165 48" fill="none" xmlns="http://www.w3.org/2000/svg">
<path d="M131.85 0.0259258C131.958 0.0073654 132.07 -0.0160821 132.177 0.0155386C132.328 0.0600665 132.344 0.0870387 132.418 0.224368C132.252 0.924605 130.851 3.95381 130.382 4.45656C131.424 4.57715 132.544 4.81152 133.563 5.06256C133.809 5.1232 134.19 5.20427 134.328 5.43396L134.259 5.56824C133.406 6.05937 131.403 6.04962 130.39 6.14691C130.461 6.21276 130.534 6.28787 130.575 6.37667C130.829 6.93113 131.846 9.30451 131.637 9.80402C131.597 9.89899 131.563 9.89311 131.472 9.92809C130.706 9.73727 129.772 7.5763 128.979 7.03642C128.964 7.02615 128.948 7.01639 128.933 7.00638C128.818 7.42096 127.976 8.25398 127.661 8.58253C127.508 8.7423 127.434 8.78487 127.215 8.7901C126.696 8.29115 127.5 7.49099 127.307 6.86156C127.302 6.84712 127.297 6.83288 127.292 6.81856C127.065 7.16893 123.526 9.87069 123.113 10.0738C123.405 10.1244 123.695 10.1825 123.984 10.248C124.272 10.3136 124.559 10.3866 124.844 10.4669C125.129 10.5472 125.412 10.6349 125.692 10.7298C125.972 10.8247 126.25 10.9268 126.525 11.036C126.8 11.1452 127.072 11.2615 127.341 11.3847C127.61 11.508 127.876 11.6381 128.138 11.775C128.4 11.912 128.659 12.0556 128.913 12.2059C129.168 12.3561 129.419 12.5129 129.665 12.6761C131.038 13.58 134.648 16.7853 134.96 18.3161C135.896 17.6591 138.622 11.4225 139.054 10.2115C139.75 8.2645 140.563 5.28789 139.605 3.31688C138.616 1.27914 136.484 2.06052 135.025 1.55121L134.973 1.43467C134.978 1.429 134.983 1.42304 134.989 1.41765C135.347 1.0784 137.188 1.05666 137.716 1.08743C138.688 1.14406 139.665 1.53728 140.316 2.27241C141.221 3.29585 141.364 4.84207 141.282 6.14472C141.031 10.1351 138.94 14.1844 136.98 17.599C136.611 18.2425 136.204 19.1589 135.65 19.6454C135.719 19.7066 135.781 19.7716 135.832 19.8479C136.152 20.3262 136.341 20.9969 136.522 21.541C136.643 21.897 136.753 22.2566 136.85 22.6199C136.948 22.983 137.033 23.3489 137.107 23.7176C137.18 24.0865 137.241 24.4572 137.29 24.8299C137.339 25.2027 137.376 25.5766 137.4 25.9517C137.425 26.3269 137.437 26.7025 137.436 27.0784C137.436 27.4543 137.423 27.8298 137.398 28.2048C137.372 28.5799 137.335 28.9538 137.285 29.3265C137.235 29.699 137.173 30.0696 137.099 30.4382C136.741 32.2149 135.072 36.7806 133.559 37.7828C133.556 37.798 133.555 37.8133 133.551 37.8281C133.306 38.8651 129.588 41.5192 128.565 42.0922C128.351 42.2114 128.134 42.3261 127.915 42.4364C127.696 42.5465 127.474 42.6519 127.251 42.7528C127.027 42.8537 126.802 42.9498 126.574 43.041C126.346 43.1324 126.117 43.219 125.886 43.3007C125.654 43.3824 125.421 43.4593 125.187 43.5313C124.952 43.6031 124.716 43.6701 124.479 43.7322C124.241 43.7942 124.002 43.8512 123.762 43.9031C123.523 43.9551 123.282 44.0021 123.04 44.044C122.798 44.0857 122.556 44.1225 122.312 44.1541C122.069 44.1858 121.825 44.2124 121.58 44.2338C121.336 44.2553 121.091 44.2716 120.845 44.2827C120.6 44.2938 120.355 44.2998 120.109 44.3006C119.864 44.3014 119.618 44.2971 119.373 44.2876C119.128 44.2781 118.883 44.2635 118.638 44.2437C118.393 44.224 118.149 44.199 117.906 44.169C117.662 44.139 117.419 44.1039 117.177 44.0636C116.036 43.8681 114.939 43.5105 113.826 43.2004C113.811 43.2312 113.8 43.2558 113.775 43.2799C113.268 43.7579 112.5 44.1691 111.9 44.5289C109.556 45.9354 106.661 47.5449 103.841 47.5423C102.758 47.5415 101.7 47.2396 100.922 46.459C98.3379 43.8679 100.829 37.6243 102.102 34.9017C102.354 34.3631 103.367 32.6866 103.351 32.2101C103.351 32.1972 103.35 32.1842 103.349 32.1713C103.455 31.8207 102.895 29.6699 102.823 29.0584C102.707 27.994 102.675 26.927 102.726 25.8575C102.97 21.4659 105.182 17.126 108.461 14.2084C112.099 10.9715 116.634 9.59644 121.463 9.865C121.76 9.734 126.247 6.04965 126.292 5.95818C125.761 5.8854 124.777 5.87249 124.336 5.5734C124.194 5.47634 124.184 5.42197 124.155 5.25593C124.52 4.87027 126.679 4.71095 127.331 4.48501C127.403 3.95449 125.611 1.66528 125.426 0.731645L125.592 0.557195C125.642 0.578054 125.689 0.601876 125.735 0.630176C126.169 0.899285 128.746 3.25179 128.839 3.64944C129.278 3.36529 131.685 0.522033 131.85 0.0259258ZM108.086 17.9408C108.241 18.2822 108.377 19.019 108.251 19.3759L108.109 19.4799C107.839 19.3967 107.702 19.3856 107.448 19.5179C107.361 19.5639 107.275 19.6118 107.19 19.6616C106.977 19.4127 107.098 19.0649 106.874 18.8017C106.42 19.012 105.753 20.4013 105.584 20.8966C105.556 20.9787 105.549 21.0654 105.551 21.1512C105.714 21.3009 105.923 21.3983 105.916 21.6431C105.904 22.1082 105.689 22.0847 105.829 22.7513C105.55 22.864 105.189 22.7891 104.89 22.8169C105.127 23.8048 105.197 25.1665 104.644 26.0612C104.526 26.2526 104.382 26.453 104.191 26.578C104.538 27.2773 104.422 29.22 104.635 30.1562C104.75 30.6618 105.258 31.834 105.134 32.2886C105.663 32.235 106.244 32.1062 106.693 32.4696C106.853 32.5989 106.935 32.7874 106.955 32.989C106.986 33.2989 106.964 33.7569 106.854 34.0498C107.175 34.2284 107.46 34.3664 107.564 34.7476C107.715 35.3077 107.405 35.8973 107.612 36.4603C108.013 37.5526 110.64 38.7502 111.02 39.3613C111.028 39.3572 111.036 39.3533 111.044 39.349C111.64 39.0378 111.835 38.2644 112.539 38.1438L112.651 38.1847C112.562 38.6988 112.439 39.158 112.766 39.6171C112.937 39.857 113.107 40.0228 113.37 40.1647C113.588 40.1754 113.614 40.1729 113.78 40.0324C113.923 39.701 113.93 39.3383 114.099 39.023C114.306 38.6386 114.698 38.3558 114.748 37.9037C114.618 37.5547 114.23 37.3496 113.911 37.1904C113.875 37.3937 113.705 37.7375 113.527 37.855C113.375 37.9552 113.272 37.9332 113.101 37.9204C112.771 37.6842 112.609 37.3719 112.543 36.9777C112.436 36.3438 112.623 35.7047 113 35.1903C113.351 34.7124 114.631 34.0287 114.605 33.4547C114.815 33.2425 114.983 33.0109 115.027 32.7078L114.979 32.6971C114.412 32.5757 113.857 32.7966 113.486 32.2382C113.009 31.519 111.874 28.7885 112.05 27.9731C112.071 27.8765 112.134 27.8411 112.203 27.7752C112.402 27.8127 112.471 27.8232 112.591 27.9971C113.104 28.7352 112.524 29.8075 113.619 31.3512C113.822 31.6375 114.069 31.9332 114.435 32.0019C115.073 32.1217 115.757 31.3812 116.289 31.1297C116.473 31.043 116.833 31.0129 116.975 30.893C117.058 30.8223 117.044 30.7212 117.037 30.6219C117.02 30.397 116.904 30.0864 116.751 29.9226C117.309 29.965 118.042 29.98 118.522 30.2906C118.529 30.3057 118.536 30.3207 118.544 30.3359C118.672 30.6098 118.709 31.0246 118.616 31.3145C118.838 31.465 118.986 31.5643 119.263 31.5838C119.355 31.5905 119.449 31.616 119.539 31.6356C119.699 32.1355 119.765 32.5161 119.627 33.0307C119.597 33.1439 119.464 33.265 119.523 33.3667C119.544 33.4043 119.714 33.5001 119.756 33.5213C120.094 33.6919 120.367 33.8276 120.51 34.2124C120.515 34.2254 120.517 34.239 120.52 34.2524C120.7 33.8947 120.949 33.3772 120.825 32.968C120.821 32.9554 120.816 32.943 120.812 32.9304C121.59 32.5956 122.595 31.5275 123.527 31.8999C123.67 31.9574 123.775 32.0746 123.834 32.2174C123.876 32.3172 123.961 32.505 123.963 32.6084C125.045 31.5404 132.227 23.2417 132.304 22.2134C132.032 22.2337 131.609 22.3161 131.39 22.1238C131.21 21.9665 131.098 21.7576 131.083 21.5188C131.059 21.1148 131.237 20.7214 131.458 20.393C131.941 20.1709 132.49 20.0817 133.008 19.9661C133.151 20.0842 133.182 20.2794 133.232 20.45L133.338 20.3666C133.355 20.0565 133.216 19.6766 133.348 19.4121L133.605 19.2809C133.513 18.1964 131.009 15.8075 130.141 15.0789C129.308 14.3802 128.263 13.5793 127.243 13.1824C126.541 13.2336 126.66 13.461 126.284 13.588C126.203 13.6153 126.012 13.5301 125.949 13.4877C125.794 13.3826 125.5 13.0986 125.33 13.0668C124.855 12.9785 124.351 13.6032 123.814 13.3608C123.743 12.9629 124.646 12.4426 124.177 12.113C123.864 11.893 122.406 11.5746 122.001 11.553C121.941 11.8754 121.977 12.2036 121.766 12.4561C121.471 12.4442 121.227 12.2123 120.958 12.4588C120.677 12.7171 120.612 13.5088 120.368 13.6C120.29 13.5885 120.142 13.5423 120.08 13.5866C119.704 13.8556 119.567 14.3854 119.165 14.6166C118.902 14.5669 118.754 14.2891 118.529 14.3683C118.262 14.7358 118.378 15.3093 118.081 15.6054C117.786 15.5904 117.749 15.297 117.482 15.3701C117.414 15.4486 117.319 15.5931 117.237 15.6497C116.916 15.8709 115.507 16.0321 115.031 16.1796C114.891 16.1091 114.752 16.0388 114.607 15.9781C114.274 16.2557 114.321 17.1619 113.753 17.1163C113.677 17.1102 113.599 17.0897 113.524 17.0712L113.451 16.9572C113.599 16.7841 114.058 16.4982 114.036 16.2823C114 15.917 113.701 15.601 113.418 15.3908C112.931 15.03 112.237 14.7867 111.625 14.8841C110.322 15.0918 109.294 17.3513 108.086 17.9408ZM131.875 25.3029C131.736 25.701 131.191 26.1002 131.16 26.4847L131.322 26.5456C131.572 26.524 131.762 26.4898 131.932 26.2921C132.099 26.0975 132.187 25.9098 132.203 25.6554C132.148 25.502 132.136 25.4337 132.011 25.3251L131.875 25.3029ZM103.953 33.8659C103.683 34.7108 103.192 35.5384 102.841 36.359C101.928 38.4888 100.301 42.8055 101.442 45.0248C101.722 45.5705 102.187 45.932 102.771 46.1168C104.314 46.6055 106.623 45.9038 108.022 45.1697C108.097 45.1302 108.161 45.099 108.215 45.0316C108.886 44.8322 112.135 43.1129 112.405 42.6319C111.992 42.1408 111.073 41.8556 110.526 41.4797C107.945 39.7051 105.88 37.4877 104.491 34.6749C104.367 34.4243 104.237 33.955 103.953 33.8659ZM127.134 34.12C127.026 33.7983 126.594 33.5289 126.311 33.3655C126.319 33.3506 126.326 33.3358 126.334 33.3208C126.49 33.0038 126.392 32.6488 126.601 32.3613C127.373 32.124 128.674 32.5566 129.103 31.7241C129.482 30.9913 129.494 29.6253 129.397 28.8131L129.277 28.6787C128.495 29.894 125.842 32.8871 124.719 33.8228C125.061 33.9696 125.524 34.1928 125.675 34.5559C125.693 34.6005 125.691 34.5984 125.696 34.6388C126.189 34.6809 126.638 34.5658 127.022 34.2397C127.064 34.2039 127.1 34.1632 127.134 34.12ZM132.986 28.8212C133.231 28.5626 133.237 28.3184 133.226 27.9666C133.22 27.7444 133.178 27.5668 133.08 27.3654C132.909 27.2319 132.881 27.2262 132.665 27.2404C132.197 27.5489 132.282 28.8858 131.625 28.7329C131.431 28.6876 131.125 28.4795 131.025 28.3101C130.779 27.8908 130.95 26.9829 130.705 26.8673C130.513 27.2458 130.195 27.6824 129.831 27.9094C129.835 27.9157 129.839 27.922 129.843 27.9285C130.134 28.418 129.817 28.8682 130.353 29.2265C130.581 29.2563 131.172 29.1723 131.307 29.3435C131.456 29.5325 131.462 29.6185 131.706 29.6897C132.065 29.6038 132.784 29.2227 132.964 28.891C132.974 28.872 132.981 28.8403 132.986 28.8212Z" fill="#999999"/>
<path d="M107.438 23.5739L107.67 23.5664C108.031 23.7009 109.338 25.0439 109.538 25.4073C109.974 25.4207 110.675 25.3513 111.003 25.6852C111.172 25.8567 111.286 26.2267 111.288 26.4606C111.618 26.5003 112.108 26.5599 112.389 26.729L112.43 26.9039C112.116 27.3301 111.738 26.9069 111.272 27.0258C111.264 27.0278 111.257 27.03 111.249 27.0321C111.229 27.1102 111.164 27.1482 111.104 27.1966C110.828 27.1245 110.558 26.6888 110.315 26.5063C109.921 26.4736 109.612 26.6559 109.27 26.8235C108.515 25.9988 108.636 25.5595 108.238 25.05C107.926 24.9492 107.478 25.0126 107.142 24.953C106.92 24.9137 106.891 24.9087 106.766 24.7321C106.728 24.1096 107.194 24.0892 107.422 23.6091C107.428 23.5976 107.433 23.5856 107.438 23.5739Z" fill="#999999"/>
<path d="M89.6847 14.7274L98.0508 14.729C98.1076 14.8207 98.1491 14.9137 98.1717 15.0198C98.2813 15.5346 98.1926 16.2313 98.1929 16.7699L98.1945 21.1585C98.1958 26.2933 98.3253 31.4633 98.1876 36.5943C98.1816 36.8143 98.1672 36.9682 98.048 37.1598C98.1561 37.3563 98.2027 37.4932 98.146 37.7082C97.3228 37.8921 96.2187 37.7598 95.3677 37.759L89.2002 37.75C89.2418 37.6824 89.2771 37.6124 89.298 37.5354C89.4228 37.0714 89.3874 28.361 89.3171 27.3652C89.3041 27.1803 89.2521 27.02 89.156 26.8608C89.1623 26.9199 89.1637 26.9771 89.1541 27.0359C89.0923 27.4144 83.1305 37.494 82.7873 37.7515L74.4521 37.7557C74.5499 37.5758 74.5676 37.4116 74.5732 37.2115C74.6212 35.5147 74.5779 33.8038 74.5782 32.1057L74.5785 21.9832L74.5782 17.3164C74.5785 16.5012 74.6672 15.564 74.5136 14.7637C75.4955 14.6493 76.553 14.7244 77.5449 14.7245L83.2908 14.729C83.3284 14.7818 83.3598 14.8385 83.3752 14.9018C83.5312 15.5475 83.4577 24.5355 83.3824 25.542C83.3675 25.7411 83.3099 25.9057 83.2092 26.0789C83.2992 26.0138 83.3892 25.9452 83.4673 25.866C84.0083 25.3188 85.1477 22.9948 85.6096 22.1756C86.9425 19.8118 88.3901 17.457 89.6141 15.038C89.6674 14.9326 89.6847 14.8439 89.6847 14.7274Z" fill="#999999"/>
<path d="M140.777 14.7639C141.773 14.6419 142.861 14.7247 143.869 14.7247L149.95 14.7269C149.987 14.7852 150.02 14.8444 150.043 14.9095C150.214 15.3907 150.17 22.2035 149.969 22.6193L154.5 22.6239C154.538 22.5642 154.57 22.5049 154.594 22.4378C154.763 21.9627 154.721 15.1598 154.524 14.7302L163.85 14.731C163.881 14.7869 163.911 14.8453 163.931 14.9061C164.1 15.42 163.967 30.4096 163.964 32.1946C163.963 32.8842 164.061 37.3125 163.902 37.6197C163.673 37.8002 163.519 37.7576 163.236 37.7591C160.334 37.7006 157.418 37.7464 154.514 37.7643C154.545 37.7174 154.574 37.6684 154.594 37.6156C154.761 37.1685 154.719 29.7377 154.522 29.3317L149.971 29.3261C150 29.3796 150.026 29.4335 150.045 29.492C150.198 29.9725 150.156 37.3735 149.968 37.7515C146.886 37.8252 143.784 37.7542 140.699 37.7549C140.706 37.744 140.714 37.7334 140.721 37.7224C140.835 37.5407 140.823 37.312 140.827 37.1053C140.943 31.8575 140.831 26.5824 140.83 21.3319L140.833 16.9942C140.833 16.2972 140.924 15.4416 140.777 14.7639Z" fill="#999999"/>
<path d="M42.7681 14.7334C46.1642 14.6743 49.5705 14.7293 52.9677 14.7295L45.095 25.6249L50.3095 33.4111C51.2832 34.8522 52.2475 36.2996 53.2023 37.7532L42.4842 37.7592C41.0049 34.8225 39.2875 31.9583 37.6873 29.0824C37.7073 31.9736 37.7074 34.8646 37.6874 37.7556L28.3926 37.758L28.3957 14.7315L37.6955 14.7285L37.6953 22.9219L42.7681 14.7334Z" fill="#999999"/>
<path d="M8.18214 14.7323L18.4319 14.7314C19.3063 17.3713 20.2978 19.9844 21.232 22.6046L26.6259 37.7603L17.0993 37.7601L16.631 36.0672C16.4718 35.5055 16.3204 34.9418 16.1768 34.376L10.4469 34.3763C10.1796 35.5044 9.82959 36.6175 9.54724 37.7434C6.38166 37.8614 3.17088 37.7562 0 37.746C0.63024 35.687 1.43895 33.6516 2.16539 31.6234L6.13463 20.5434C6.82432 18.6244 7.62156 16.6914 8.18214 14.7323ZM11.7546 28.5938L13.5179 28.6034L14.8765 28.5988C14.6777 27.8664 13.5249 23.2648 13.2906 23.022L11.7546 28.5938Z" fill="#999999"/>
<path d="M63.5405 14.1042C64.7604 14.021 65.9619 14.0321 67.1727 14.219C68.2229 14.3809 70.6868 14.9536 71.3156 15.8078C71.3478 15.8555 71.3795 15.9081 71.3953 15.964C71.5282 16.4341 71.4876 22.6597 71.4114 23.4888C71.3973 23.641 71.3447 23.7854 71.2732 23.9199C71.2723 23.9111 71.2718 23.9022 71.2704 23.8934C71.213 23.5269 70.5037 22.9522 70.2115 22.7423C68.8461 21.7618 66.897 21.2293 65.2236 21.5033C63.9937 21.7046 62.8579 22.2897 62.1234 23.3105C61.3142 24.4355 61.0487 26.0147 61.2837 27.3638C61.4823 28.5042 62.102 29.477 63.0571 30.1395C64.2963 30.9991 65.928 31.1804 67.3883 30.9223C68.5745 30.7125 70.5727 29.9335 71.2913 28.9024C71.3312 28.97 71.3665 29.0404 71.3865 29.1166C71.5393 29.699 71.5187 34.8069 71.2817 35.184C71.3232 35.2489 71.3591 35.3146 71.384 35.3878C71.5145 35.7727 71.4919 36.6128 71.3225 36.9714C70.7334 37.6401 68.2895 38.1229 67.3661 38.2611C63.831 38.7903 59.8506 38.0689 56.9454 35.9336C54.4169 34.0752 52.877 31.3388 52.4182 28.2617C51.9397 25.0528 52.5372 21.6661 54.507 19.035C56.7294 16.0663 59.9302 14.6338 63.5405 14.1042Z" fill="#999999"/>
</svg>
