<svg width="208" height="81" viewBox="0 0 208 81" fill="none" xmlns="http://www.w3.org/2000/svg">
<path d="M190.653 13.4283C192.209 13.3833 193.526 13.6146 194.792 14.2291C197.397 15.4926 198.771 17.7232 199.25 19.7841C199.752 21.9451 199.436 24.2877 198.075 26.2924C196.921 27.9919 194.055 30.4721 192.356 32.0546L185.737 38.3392L169.775 53.4608C166.923 56.1699 164.151 58.9409 161.206 61.6019C161.009 61.7791 160.703 62.1295 160.38 62.1614L160.277 62.0521C160.46 61.4991 165.939 55.818 166.701 54.9926L189.966 29.8746C188.709 29.63 187.734 29.1889 186.732 28.641C184.9 30.1895 183.194 31.8267 181.43 33.4111L168.98 44.665C166.725 46.7016 164.547 48.8107 162.173 50.7846L162.073 50.7871C162.057 50.8028 161.959 50.9036 161.948 50.9183C161.94 50.9289 161.939 50.941 161.935 50.9522L161.867 50.8443C161.928 50.621 162.067 50.4301 162.234 50.2331C162.775 49.5951 163.413 48.9758 163.981 48.3453L169.914 41.8545L184.304 26.1815C183.513 25.1095 183.215 23.9084 183.068 22.7285C181.771 24.0497 180.243 25.2949 178.814 26.5547L171.421 33.0612L167.201 36.7847C166.512 37.3923 165.822 38.1266 165 38.6512L164.862 38.6289C164.824 38.4091 164.947 38.2952 165.109 38.1073C166.492 36.5051 168.002 34.9409 169.444 33.3615L178.295 23.6775L183.074 18.4508C183.954 17.4776 184.766 16.4165 185.776 15.5054C186.996 14.4057 188.6 13.6261 190.653 13.4283Z" fill="#D14B45"/>
<path d="M198.679 27.7783C198.714 27.8138 198.754 27.8477 198.784 27.8852C199.356 28.5835 200.103 31.0794 200.372 31.9347C202.957 40.1664 202.001 49.3091 196.937 57.0552C193.507 62.3014 187.732 67.5029 179.492 69.6393C174.235 71.002 168.649 70.8901 163.501 69.3679C154.699 66.7656 149.242 61.0025 145.919 55.2272C145.409 54.3127 144.979 53.3774 144.53 52.4492C145.661 52.4603 146.793 52.4548 147.923 52.4573C150.457 57.7389 155.276 63.1318 162.714 65.8967C167.055 67.5105 172.165 67.9976 176.967 67.0851C183.939 65.7594 189.18 61.9337 192.593 57.8179C199.412 49.5947 200.291 39.0205 196.418 30.094L198.679 27.7783Z" fill="#D14B45"/>
<path d="M31.0445 40.3389C37.6529 40.4528 44.2947 40.3627 50.9062 40.351C49.3962 43.5119 48.2764 46.7962 46.9504 49.9971L40.1581 50.0026C40.8561 48.5853 41.3609 47.098 41.9516 45.6589C42.3944 44.4406 42.914 43.2298 43.3956 42.018C41.3136 42.0474 39.2223 42.0261 37.1394 42.0287L33.964 49.9961C31.6775 49.9846 29.391 49.9859 27.1045 50.0001C28.5523 46.815 29.7476 43.5544 31.0445 40.3389Z" fill="#D14B45"/>
<path d="M140.491 40.361L157.373 40.3564C155.939 43.5436 154.721 46.7895 153.438 50.006C151.176 49.9915 148.915 49.989 146.653 49.9984C147.358 48.4899 147.924 46.9419 148.538 45.4152C148.749 44.8268 149.023 44.2429 149.269 43.6601C148.513 43.6667 147.756 43.6601 146.999 43.6596C145.197 45.7665 143.418 47.8818 141.661 50.0055C139.214 49.9757 136.761 49.9985 134.312 49.9878C135.352 49.011 136.263 47.9638 137.204 46.944C138.743 45.2614 140.3 43.586 141.874 41.9176C141.17 41.4674 140.801 40.9656 140.491 40.361Z" fill="#D14B45"/>
<path d="M75.7129 38.7361C76.1494 37.7208 79.2074 29.7727 79.4322 29.5889C79.4712 29.5575 79.5294 29.5387 79.5781 29.5139C81.8057 29.5035 84.0334 29.5004 86.2611 29.5048C87.9774 29.5053 89.8037 29.4147 91.4881 29.6653C92.5141 29.8178 93.5154 30.1008 94.2872 30.588C95.2317 31.184 95.7787 32.1041 95.8288 32.9675C96.0091 33.6202 95.963 34.3924 95.7275 35.0365C95.5457 36.3131 94.7769 37.5396 94.1084 38.7301L86.7306 38.7346C87.9719 37.9432 89.0541 36.8894 89.0744 35.6984C89.081 35.3373 88.926 34.996 88.5244 34.7428C87.5196 34.1093 85.5683 34.279 84.2728 34.2846C83.6543 35.7615 83.0572 37.2422 82.4815 38.7265L75.7129 38.7361Z" fill="#0E236C"/>
<path d="M75.7129 38.7361C76.1494 37.7208 79.2074 29.7727 79.4322 29.5889C79.4712 29.5575 79.5294 29.5387 79.5781 29.5139C81.8057 29.5035 84.0334 29.5004 86.2611 29.5048C87.9774 29.5053 89.8037 29.4147 91.4881 29.6653C92.5141 29.8178 93.5154 30.1008 94.2872 30.588C95.2317 31.184 95.7787 32.1041 95.8288 32.9675C95.8001 33.2183 95.7674 33.4689 95.7306 33.7194C95.491 32.6656 95.4171 31.7415 94.2102 30.9348C92.1784 29.5762 89.122 29.8568 86.5133 29.88C84.9619 29.8956 83.4107 29.8885 81.8596 29.8588C83.0983 29.557 84.8405 29.9317 85.9755 29.7291C85.4503 29.7317 84.804 29.7722 84.291 29.7084C83.1536 29.5676 81.9477 29.7859 80.7829 29.6633C80.5043 29.6339 80.2385 29.6238 79.9564 29.6188L79.9964 29.7367C80.2268 29.7616 80.4046 29.7357 80.6208 29.7443C80.6608 29.7459 80.6988 29.758 80.7378 29.7651L80.7221 29.8304C80.4036 29.8618 79.9706 29.8446 79.7558 30.0289C79.3365 30.3879 77.6186 35.1079 77.3416 35.8452C77.1203 36.4362 76.7232 37.0064 76.5298 37.6019C76.4629 37.808 76.4503 37.9685 76.4948 38.1771C76.6478 38.3265 76.6594 38.3548 76.9415 38.3908C77.7878 38.4981 81.3192 38.4551 82.1204 38.2789C83.2483 37.4454 82.6993 34.0501 85.1393 33.9412C85.4265 33.9286 86.0281 33.9427 86.2834 34.0334L85.9405 34.044C86.7534 34.1149 88.1851 34.0835 88.689 34.5205C89.2314 34.9909 89.4932 35.593 89.3458 36.1804C89.1493 36.9643 88.2028 37.532 88.0169 38.2495C88.3557 38.4754 89.2481 38.4288 89.7125 38.4293C90.7153 38.4303 93.2773 38.6227 93.9742 38.1553C94.3728 37.8885 94.9891 36.1111 95.2454 35.5971C95.3588 35.3692 95.3968 34.5914 95.5989 34.4977C95.723 34.6755 95.7174 34.8446 95.7275 35.0365C95.5457 36.3131 94.7769 37.5396 94.1084 38.7301L86.7306 38.7346C87.9719 37.9432 89.0541 36.8894 89.0744 35.6984C89.081 35.3373 88.926 34.996 88.5244 34.7428C87.5196 34.1093 85.5683 34.279 84.2728 34.2846C83.6543 35.7615 83.0572 37.2422 82.4815 38.7265L75.7129 38.7361Z" fill="#0E236C"/>
<path d="M140.061 38.7286L140.056 38.478C140.024 36.0281 141.361 33.3635 143.99 31.6028C147.204 29.4512 150.935 29.5004 155.176 29.5059L161.775 29.5064C161.218 30.621 160.815 31.7816 160.358 32.9164L157.997 38.7292L151.201 38.7317C151.809 37.3072 152.191 35.7182 153.041 34.3565C152.299 34.158 150.95 34.3171 150.115 34.2725C148.954 34.4128 148.134 34.6533 147.448 35.3369C146.669 36.1127 146.405 37.0763 146.23 37.9858C146.261 38.2283 146.246 38.4815 146.253 38.7256C144.19 38.7413 142.125 38.7286 140.061 38.7286Z" fill="#0E236C"/>
<path d="M140.061 38.7286L140.056 38.478C140.024 36.0281 141.361 33.3635 143.99 31.6028C147.204 29.4512 150.935 29.5004 155.176 29.5059L161.775 29.5064C161.218 30.621 160.815 31.7816 160.358 32.9164L157.997 38.7292L151.201 38.7317C151.809 37.3072 152.191 35.7182 153.041 34.3565C153.538 35.1035 151.248 38.1007 152.076 38.3139C152.655 38.4633 157.155 38.4147 157.629 38.2618C158.207 37.6349 160.952 30.6301 161.071 29.7895C160.967 29.6913 161.038 29.7262 160.817 29.6978C159.43 29.5166 157.66 29.6811 156.254 29.7409L157.81 29.8052C152.732 29.9855 147.815 29.2142 144.018 32.0353C141.742 33.7266 140.447 36.0509 140.366 38.3099C141.619 38.4871 144.433 38.5681 145.675 38.4182C145.876 38.3048 145.989 38.2445 146.012 38.0602C146.027 37.9265 146.002 37.7837 145.989 37.6501C146.158 36.7548 146.49 35.8007 147.24 35.0356C147.804 34.4604 148.582 34.1155 149.593 33.9864C150.276 33.8988 151.916 33.8431 152.498 34.1084C152.159 34.3728 150.679 34.0603 150.115 34.2725C148.954 34.4128 148.134 34.6533 147.448 35.3369C146.669 36.1127 146.405 37.0763 146.23 37.9858C146.261 38.2283 146.246 38.4815 146.253 38.7256C144.19 38.7413 142.125 38.7286 140.061 38.7286Z" fill="#0E236C"/>
<path d="M35.4409 29.4957C37.7045 29.5132 39.9681 29.5124 42.2317 29.4932C41.0866 31.9952 40.1776 34.5514 39.093 37.0661L45.3902 37.0676C45.6744 36.1541 46.1085 35.2426 46.4762 34.3413L48.4631 29.4997L55.2983 29.4987C55.0537 30.034 54.8461 30.5794 54.6238 31.1197L51.5188 38.7296C44.9049 38.7868 38.2799 38.7326 31.665 38.7326C32.1816 37.6753 32.5752 36.5784 33.0127 35.5049L35.4409 29.4957Z" fill="#0E236C"/>
<path d="M16.7736 40.3478C20.499 40.364 24.2484 40.4076 27.9727 40.3438C26.3002 43.9218 23.5033 47.8245 18.3127 49.6521C16.0575 50.4466 13.1975 50.8491 10.7131 50.3134C9.8933 50.1367 8.94747 49.8004 8.39595 49.3462C8.20725 49.2419 8.04792 49.1173 7.90186 48.9862C5.68045 46.9925 6.12926 44.294 6.64087 41.9865C8.75421 42.0695 10.8976 42.0209 13.0152 42.0244L13.1323 42.1034L13.0115 42.6427C12.9232 43.4585 12.789 44.3745 13.6825 45.0333C14.0854 45.3306 14.6499 45.4886 15.2486 45.4931C16.416 45.5012 17.5268 45.0227 18.3109 44.4773C19.2962 43.7922 19.8903 42.8964 20.4544 42.0381C19.0014 42.0335 17.547 42.0199 16.0942 42.028C16.3384 41.4699 16.5799 40.9144 16.7736 40.3478Z" fill="#D14B45"/>
<path d="M8.78613 37.1214C10.6713 34.0213 13.0192 30.8989 17.9255 29.5337C20.0309 28.9479 22.8177 28.6861 24.9785 29.2861C26.6196 29.7419 27.7553 30.6645 28.414 31.7421C29.7462 33.922 29.3652 36.4945 28.6378 38.7367L17.4328 38.7301C17.5566 38.3924 17.6826 38.0566 17.7836 37.7153C17.8623 37.45 18.0083 37.2556 18.3324 37.0874C18.6187 37.0484 18.8842 37.0641 19.1726 37.0763L22.262 37.0657C22.2994 36.0964 22.2869 35.3303 21.6614 34.4279C21.0308 34.0841 20.4962 33.9281 19.6625 33.9838C18.4526 34.0648 17.4385 34.6401 16.7238 35.2609C16.0901 35.8119 15.5768 36.4666 15.2247 37.1188C13.0785 37.1111 10.9323 37.1119 8.78613 37.1214Z" fill="#0E236C"/>
<path d="M170.04 11.1408C170.795 11.0538 171.677 11.0785 172.445 11.0868C177.23 11.1384 181.333 12.3903 185.222 14.1553C184.402 14.8813 183.666 15.7012 182.984 16.489C179.003 14.7797 174.677 13.8522 169.905 14.2119C163.644 14.684 158.504 17.277 154.682 20.4793C152.325 22.5277 150.519 24.7264 149.068 27.1165L145.546 27.1094C147.359 23.9227 149.464 20.9445 152.618 18.2392C157.037 14.4499 162.785 11.7509 170.04 11.1408Z" fill="#D14B45"/>
<path d="M54.7675 40.3418C59.8387 40.3688 64.91 40.3725 69.9815 40.3529C69.7349 40.9059 69.5252 41.468 69.3029 42.0255C66.4881 42.0681 63.6591 42.027 60.8428 42.026C60.3632 43.0671 59.9818 44.1341 59.566 45.1874C61.7154 45.163 63.8693 45.1767 66.0196 45.1717C67.2538 45.1691 68.561 45.0987 69.7815 45.2015C69.9046 45.3702 69.8129 45.4684 69.7536 45.6456C69.1196 47.0832 68.5868 48.5457 68.0155 49.9954C62.2931 49.9695 56.5708 49.9742 50.8486 50.0096C51.4047 48.8505 51.8271 47.6544 52.2991 46.4786L54.7675 40.3418Z" fill="#D14B45"/>
<path d="M59.1321 29.4937C64.7146 29.5803 70.3265 29.5058 75.9126 29.4932C75.1813 31.0837 74.5614 32.7051 73.8929 34.3078L63.9701 34.2931L62.7921 37.1886L64.2694 37.1932L71.2457 37.1912C70.9955 37.6935 70.8132 38.2176 70.605 38.7285L55.4082 38.7356L59.1321 29.4937Z" fill="#0E236C"/>
<path d="M102.546 29.5084L112.25 29.5013C113.855 29.5008 115.518 29.438 117.117 29.5069C116.67 31.0574 115.778 32.7639 115.133 34.3028L105.928 34.2932C105.384 35.7779 104.735 37.2535 104.138 38.7296L97.3555 38.7276C97.909 37.6636 98.2888 36.5339 98.7259 35.4457L101.107 29.4998L102.546 29.5084Z" fill="#0E236C"/>
<path d="M101.107 29.5L102.546 29.5086C103.49 29.6686 104.656 29.5957 105.631 29.5937L112.041 29.5775C112.994 29.5775 114.083 29.5132 115.02 29.5987C114.036 29.6296 113.033 29.6489 112.05 29.5922L111.981 29.6499L112.268 29.8332C112.035 29.8935 110.393 29.8788 110.072 29.854L110.233 29.8464C110.113 29.7 109.985 29.8372 109.942 29.616C109.634 29.6104 109.293 29.578 109 29.6519L109.694 29.701L109.74 29.7496C109.243 29.9487 107.672 29.8352 107.044 29.8388L107.096 29.8459L106.765 29.8347L106.83 29.855L106.803 29.702L106.72 29.8236C106.692 29.815 106.665 29.8038 106.636 29.7977C106.297 29.7329 105.973 29.8904 105.581 29.8185C105.945 29.7142 106.341 29.6929 106.73 29.6549C106.041 29.6175 105.357 29.616 104.666 29.616L104.646 29.6544L104.873 29.7198L104.793 29.8099C104.494 29.8337 104.259 29.8545 103.963 29.7977L104.111 29.6514C103.445 29.6068 102.292 29.5491 101.652 29.6661C101.862 29.7375 102.061 29.7501 102.291 29.776C102.251 29.781 102.211 29.7861 102.171 29.7917C101.771 29.8459 101.503 29.8828 101.267 30.1274C100.913 30.493 98.4696 37.1129 98.0513 38.186C98.1506 38.3115 98.1693 38.3384 98.3891 38.3809C98.8393 38.4685 103.423 38.4214 103.693 38.2852C104.65 37.8026 104.916 33.9531 106.214 34.0326C106.379 34.0427 106.434 34.0711 106.561 34.1364C106.514 34.1192 106.469 34.102 106.423 34.0848C106.259 34.0255 106.329 34.0367 106.203 34.0275C107.929 33.8412 113.683 34.1967 114.595 33.8974C115.317 33.2254 116.21 30.8449 116.472 29.9623C116.331 29.8621 116.401 29.8924 116.285 29.8519L116.323 29.7233L116.271 29.7562L116.794 29.741L116.765 29.6884L116.732 29.6833L116.571 29.5841L117.117 29.5071C116.67 31.0576 115.778 32.7641 115.133 34.303L105.928 34.2934C105.384 35.7781 104.735 37.2537 104.138 38.7298L97.3555 38.7278C97.909 37.6639 98.2888 36.5341 98.7259 35.4459L101.107 29.5Z" fill="#0E236C"/>
<path d="M75.0574 40.3486L92.8017 40.3603C92.28 40.8267 91.7184 41.2783 91.0894 41.6824C87.8826 43.7439 84.7006 43.6391 80.523 43.5991L80.3133 44.1617C79.5091 46.1058 78.721 48.053 77.9492 50.0033C75.6844 49.9874 73.4197 49.9903 71.1553 50.0119C72.59 46.8247 73.8237 43.5733 75.0574 40.3486Z" fill="#D14B45"/>
<path d="M115.592 40.3398C119.794 40.4087 124.01 40.3576 128.213 40.353C127.015 41.3663 125.94 42.4509 124.833 43.5098C123.388 44.8699 121.954 46.2353 120.531 47.6059L117.997 50.0046C115.888 49.9874 113.777 49.9986 111.668 49.9986C112.224 48.8364 112.651 47.6388 113.126 46.4605L115.592 40.3398Z" fill="#D14B45"/>
<path d="M133.386 29.4961L139.785 29.4986L136.043 38.734L130.386 38.733L123.656 38.7345C124.926 37.7435 126.004 36.55 127.126 35.479L133.386 29.4961Z" fill="#0E236C"/>
<path d="M96.7426 40.3457C99.0023 40.3639 101.262 40.3673 103.522 40.3558C102.956 41.5524 102.51 42.7854 102.02 43.9972L99.6207 50.0004L92.8232 50.0014C93.4036 48.9086 93.7814 47.7328 94.2306 46.6112L96.7426 40.3457Z" fill="#D14B45"/>
<path d="M128.932 40.3428C131.09 40.3576 133.249 40.3603 135.407 40.3509C133.929 43.5117 132.725 46.7769 131.48 49.9843C129.341 50.0617 127.138 49.999 124.993 50.0025C126.441 46.8133 127.519 43.5431 128.932 40.3428Z" fill="#D14B45"/>
<path d="M119.974 29.4893C122.141 29.5348 124.329 29.5004 126.497 29.5039C125.926 30.6008 125.541 31.7589 125.089 32.8815L122.711 38.7338L116.208 38.7343C116.668 37.8005 117.003 36.8191 117.386 35.8692C118.227 33.7386 119.09 31.612 119.974 29.4893Z" fill="#0E236C"/>
</svg>
