<svg width="145" height="36" viewBox="0 0 145 36" fill="none" xmlns="http://www.w3.org/2000/svg">
<path d="M30.344 10.1C30.344 7.3 30.936 5.156 32.12 3.668C33.304 2.164 34.992 1.412 37.184 1.412C38.368 1.412 39.392 1.62 40.256 2.036C41.12 2.452 41.832 3.044 42.392 3.812C42.968 4.564 43.392 5.476 43.664 6.548C43.936 7.604 44.072 8.788 44.072 10.1C44.072 12.9 43.472 15.052 42.272 16.556C41.088 18.044 39.392 18.788 37.184 18.788C36.016 18.788 35 18.58 34.136 18.164C33.288 17.748 32.576 17.164 32 16.412C31.44 15.644 31.024 14.732 30.752 13.676C30.48 12.604 30.344 11.412 30.344 10.1ZM32.456 10.1C32.456 11.028 32.544 11.908 32.72 12.74C32.912 13.572 33.2 14.308 33.584 14.948C33.968 15.572 34.456 16.076 35.048 16.46C35.656 16.828 36.368 17.012 37.184 17.012C38.672 17.012 39.84 16.452 40.688 15.332C41.536 14.196 41.96 12.452 41.96 10.1C41.96 9.188 41.864 8.316 41.672 7.484C41.496 6.636 41.208 5.9 40.808 5.276C40.424 4.636 39.928 4.132 39.32 3.764C38.728 3.38 38.016 3.188 37.184 3.188C35.712 3.188 34.552 3.756 33.704 4.892C32.872 6.012 32.456 7.748 32.456 10.1ZM49.6062 1.868C50.2142 1.756 50.9102 1.668 51.6942 1.604C52.4943 1.54 53.2223 1.508 53.8783 1.508C54.6143 1.508 55.3103 1.588 55.9663 1.748C56.6383 1.908 57.2223 2.172 57.7183 2.54C58.2303 2.908 58.6383 3.388 58.9423 3.98C59.2463 4.572 59.3983 5.292 59.3983 6.14C59.3983 7.452 59.0383 8.516 58.3183 9.332C57.5983 10.148 56.6863 10.692 55.5823 10.964L56.7343 11.852L60.9103 18.5H58.5823L53.9502 11.252L51.5983 10.892V18.5H49.6062V1.868ZM53.9263 3.236C53.7183 3.236 53.5022 3.236 53.2782 3.236C53.0543 3.236 52.8383 3.244 52.6303 3.26C52.4223 3.276 52.2223 3.292 52.0302 3.308C51.8543 3.324 51.7103 3.348 51.5983 3.38V9.572H53.4703C54.5743 9.572 55.4863 9.3 56.2063 8.756C56.9263 8.212 57.2863 7.364 57.2863 6.212C57.2863 5.348 56.9903 4.636 56.3983 4.076C55.8063 3.516 54.9823 3.236 53.9263 3.236ZM66.4957 1.7H68.4877V18.5H66.4957V1.7ZM80.8481 10.124H86.4881V17.516C86.2321 17.708 85.9201 17.884 85.5521 18.044C85.2001 18.204 84.8161 18.34 84.4001 18.452C84.0001 18.564 83.5761 18.644 83.1281 18.692C82.6961 18.756 82.2721 18.788 81.8561 18.788C80.7841 18.788 79.8001 18.62 78.9041 18.284C78.0081 17.932 77.2321 17.404 76.5761 16.7C75.9201 15.98 75.4081 15.076 75.0401 13.988C74.6721 12.884 74.4881 11.588 74.4881 10.1C74.4881 8.548 74.7121 7.22 75.1601 6.116C75.6081 5.012 76.1921 4.116 76.9121 3.428C77.6321 2.724 78.4401 2.212 79.3361 1.892C80.2321 1.572 81.1281 1.412 82.0241 1.412C82.9841 1.412 83.7761 1.468 84.4001 1.58C85.0241 1.676 85.5521 1.812 85.9841 1.988L85.4801 3.74C84.7121 3.372 83.6161 3.188 82.1921 3.188C81.5201 3.188 80.8481 3.308 80.1761 3.548C79.5201 3.772 78.9281 4.156 78.4001 4.7C77.8721 5.244 77.4401 5.956 77.1041 6.836C76.7681 7.716 76.6001 8.804 76.6001 10.1C76.6001 11.284 76.7361 12.308 77.0081 13.172C77.2801 14.036 77.6561 14.756 78.1361 15.332C78.6321 15.892 79.2241 16.316 79.9121 16.604C80.6001 16.876 81.3521 17.012 82.1681 17.012C83.1921 17.012 84.0641 16.812 84.7841 16.412V11.732L80.8481 11.252V10.124ZM92.4954 1.7H94.4874V18.5H92.4954V1.7ZM104.208 7.508L102.912 5.084H102.816L103.056 7.508V18.5H101.184V1.436H102.24L110.28 12.644L111.528 14.948H111.648L111.384 12.644V1.7H113.256V18.764H112.2L104.208 7.508Z" fill="#212121"/>
<path d="M5.616 26.844L5.712 25.752H5.652L5.088 26.88L1.956 31.5H0.72V23.1H2.364V27.672L2.244 28.8H2.316L2.904 27.636L6.036 23.1H7.26V31.5H5.616V26.844ZM12.1922 29.136H10.2362V31.5H8.67619V25.5H10.2362V27.756H12.1922V25.5H13.7522V31.5H12.1922V29.136ZM19.4415 26.88H17.7495V31.5H16.1415V26.88H14.4495V25.5H19.4415V26.88ZM24.8434 30.984C24.6034 31.176 24.2754 31.34 23.8594 31.476C23.4514 31.604 23.0154 31.668 22.5514 31.668C21.5834 31.668 20.8754 31.388 20.4274 30.828C19.9794 30.26 19.7554 29.484 19.7554 28.5C19.7554 27.444 20.0074 26.652 20.5114 26.124C21.0154 25.596 21.7234 25.332 22.6354 25.332C22.9394 25.332 23.2354 25.372 23.5234 25.452C23.8114 25.532 24.0674 25.664 24.2914 25.848C24.5154 26.032 24.6954 26.28 24.8314 26.592C24.9674 26.904 25.0354 27.292 25.0354 27.756C25.0354 27.924 25.0234 28.104 24.9994 28.296C24.9834 28.488 24.9554 28.688 24.9154 28.896H21.3154C21.3394 29.4 21.4674 29.78 21.6994 30.036C21.9394 30.292 22.3234 30.42 22.8514 30.42C23.1794 30.42 23.4714 30.372 23.7274 30.276C23.9914 30.172 24.1914 30.068 24.3274 29.964L24.8434 30.984ZM22.6114 26.58C22.2034 26.58 21.8994 26.704 21.6994 26.952C21.5074 27.192 21.3914 27.516 21.3514 27.924H23.5834C23.6154 27.492 23.5474 27.16 23.3794 26.928C23.2194 26.696 22.9634 26.58 22.6114 26.58ZM26.1371 25.5H27.2771L27.4571 26.22H27.5051C27.7131 25.916 27.9571 25.692 28.2371 25.548C28.5251 25.404 28.8731 25.332 29.2811 25.332C30.0331 25.332 30.5971 25.572 30.9731 26.052C31.3491 26.524 31.5371 27.288 31.5371 28.344C31.5371 28.856 31.4771 29.32 31.3571 29.736C31.2371 30.144 31.0571 30.492 30.8171 30.78C30.5851 31.068 30.2971 31.288 29.9531 31.44C29.6171 31.592 29.2291 31.668 28.7891 31.668C28.5411 31.668 28.3371 31.648 28.1771 31.608C28.0171 31.576 27.8571 31.52 27.6971 31.44V33.9H26.1371V25.5ZM28.8131 26.652C28.5091 26.652 28.2691 26.728 28.0931 26.88C27.9251 27.032 27.7931 27.26 27.6971 27.564V30.06C27.8091 30.148 27.9291 30.22 28.0571 30.276C28.1931 30.324 28.3691 30.348 28.5851 30.348C29.0331 30.348 29.3691 30.192 29.5931 29.88C29.8171 29.56 29.9291 29.036 29.9291 28.308C29.9291 27.78 29.8411 27.372 29.6651 27.084C29.4891 26.796 29.2051 26.652 28.8131 26.652ZM36.1336 29.136H34.1776V31.5H32.6176V25.5H34.1776V27.756H36.1336V25.5H37.6936V31.5H36.1336V29.136ZM43.8629 30.984C43.6229 31.176 43.2949 31.34 42.8789 31.476C42.4709 31.604 42.0349 31.668 41.5709 31.668C40.6029 31.668 39.8949 31.388 39.4469 30.828C38.9989 30.26 38.7749 29.484 38.7749 28.5C38.7749 27.444 39.0269 26.652 39.5309 26.124C40.0349 25.596 40.7429 25.332 41.6549 25.332C41.9589 25.332 42.2549 25.372 42.5429 25.452C42.8309 25.532 43.0869 25.664 43.3109 25.848C43.5349 26.032 43.7149 26.28 43.8509 26.592C43.9869 26.904 44.0549 27.292 44.0549 27.756C44.0549 27.924 44.0429 28.104 44.0189 28.296C44.0029 28.488 43.9749 28.688 43.9349 28.896H40.3349C40.3589 29.4 40.4869 29.78 40.7189 30.036C40.9589 30.292 41.3429 30.42 41.8709 30.42C42.1989 30.42 42.4909 30.372 42.7469 30.276C43.0109 30.172 43.2109 30.068 43.3469 29.964L43.8629 30.984ZM41.6309 26.58C41.2229 26.58 40.9189 26.704 40.7189 26.952C40.5269 27.192 40.4109 27.516 40.3709 27.924H42.6029C42.6349 27.492 42.5669 27.16 42.3989 26.928C42.2389 26.696 41.9829 26.58 41.6309 26.58ZM49.4767 26.88H47.7847V31.5H46.1767V26.88H44.4847V25.5H49.4767V26.88ZM49.8082 27.36H52.8202V28.74H49.8082V27.36ZM59.3044 28.752L59.4004 27.504H59.3404L58.8604 28.536L57.7324 30.396H57.1684L55.9324 28.536L55.4764 27.504H55.4044L55.5604 28.74V31.5H54.1684V25.5H55.7884L57.1684 27.756L57.5044 28.512H57.5524L57.9004 27.732L59.1724 25.5H60.8044V31.5H59.3044V28.752ZM62.1246 25.848C62.4446 25.704 62.8246 25.592 63.2646 25.512C63.7046 25.424 64.1646 25.38 64.6446 25.38C65.0606 25.38 65.4086 25.432 65.6886 25.536C65.9686 25.632 66.1886 25.772 66.3486 25.956C66.5166 26.14 66.6326 26.36 66.6966 26.616C66.7686 26.872 66.8046 27.16 66.8046 27.48C66.8046 27.832 66.7926 28.188 66.7686 28.548C66.7446 28.9 66.7286 29.248 66.7206 29.592C66.7206 29.936 66.7326 30.272 66.7566 30.6C66.7806 30.92 66.8406 31.224 66.9366 31.512H65.6646L65.4126 30.684H65.3526C65.1926 30.932 64.9686 31.148 64.6806 31.332C64.4006 31.508 64.0366 31.596 63.5886 31.596C63.3086 31.596 63.0566 31.556 62.8326 31.476C62.6086 31.388 62.4166 31.268 62.2566 31.116C62.0966 30.956 61.9726 30.772 61.8846 30.564C61.7966 30.348 61.7526 30.108 61.7526 29.844C61.7526 29.476 61.8326 29.168 61.9926 28.92C62.1606 28.664 62.3966 28.46 62.7006 28.308C63.0126 28.148 63.3806 28.04 63.8046 27.984C64.2366 27.92 64.7166 27.9 65.2446 27.924C65.3006 27.476 65.2686 27.156 65.1486 26.964C65.0286 26.764 64.7606 26.664 64.3446 26.664C64.0326 26.664 63.7006 26.696 63.3486 26.76C63.0046 26.824 62.7206 26.908 62.4966 27.012L62.1246 25.848ZM64.1046 30.312C64.4166 30.312 64.6646 30.244 64.8486 30.108C65.0326 29.964 65.1686 29.812 65.2566 29.652V28.872C65.0086 28.848 64.7686 28.844 64.5366 28.86C64.3126 28.876 64.1126 28.912 63.9366 28.968C63.7606 29.024 63.6206 29.104 63.5166 29.208C63.4126 29.312 63.3606 29.444 63.3606 29.604C63.3606 29.828 63.4246 30.004 63.5526 30.132C63.6886 30.252 63.8726 30.312 64.1046 30.312ZM71.9897 26.88H69.7217V31.5H68.1137V25.5H71.9897V26.88ZM72.5894 25.848C72.9094 25.704 73.2894 25.592 73.7294 25.512C74.1694 25.424 74.6294 25.38 75.1094 25.38C75.5254 25.38 75.8734 25.432 76.1534 25.536C76.4334 25.632 76.6534 25.772 76.8134 25.956C76.9814 26.14 77.0974 26.36 77.1614 26.616C77.2334 26.872 77.2694 27.16 77.2694 27.48C77.2694 27.832 77.2574 28.188 77.2334 28.548C77.2094 28.9 77.1934 29.248 77.1854 29.592C77.1854 29.936 77.1974 30.272 77.2214 30.6C77.2454 30.92 77.3054 31.224 77.4014 31.512H76.1294L75.8774 30.684H75.8174C75.6574 30.932 75.4334 31.148 75.1454 31.332C74.8654 31.508 74.5014 31.596 74.0534 31.596C73.7734 31.596 73.5214 31.556 73.2974 31.476C73.0734 31.388 72.8814 31.268 72.7214 31.116C72.5614 30.956 72.4374 30.772 72.3494 30.564C72.2614 30.348 72.2174 30.108 72.2174 29.844C72.2174 29.476 72.2974 29.168 72.4574 28.92C72.6254 28.664 72.8614 28.46 73.1654 28.308C73.4774 28.148 73.8454 28.04 74.2694 27.984C74.7014 27.92 75.1814 27.9 75.7094 27.924C75.7654 27.476 75.7334 27.156 75.6134 26.964C75.4934 26.764 75.2254 26.664 74.8094 26.664C74.4974 26.664 74.1654 26.696 73.8134 26.76C73.4694 26.824 73.1854 26.908 72.9614 27.012L72.5894 25.848ZM74.5694 30.312C74.8814 30.312 75.1294 30.244 75.3134 30.108C75.4974 29.964 75.6334 29.812 75.7214 29.652V28.872C75.4734 28.848 75.2334 28.844 75.0014 28.86C74.7774 28.876 74.5774 28.912 74.4014 28.968C74.2254 29.024 74.0854 29.104 73.9814 29.208C73.8774 29.312 73.8254 29.444 73.8254 29.604C73.8254 29.828 73.8894 30.004 74.0174 30.132C74.1534 30.252 74.3374 30.312 74.5694 30.312ZM79.2025 29.016V27.924H79.9345C80.2145 27.924 80.4425 27.868 80.6185 27.756C80.8025 27.644 80.8945 27.496 80.8945 27.312C80.8945 27.096 80.8145 26.944 80.6545 26.856C80.4945 26.76 80.2505 26.712 79.9225 26.712C79.6105 26.712 79.3345 26.752 79.0945 26.832C78.8545 26.912 78.6625 26.996 78.5185 27.084L78.1825 25.896C78.4225 25.76 78.7385 25.644 79.1305 25.548C79.5305 25.444 79.9545 25.392 80.4025 25.392C81.0905 25.392 81.6025 25.52 81.9385 25.776C82.2825 26.032 82.4545 26.404 82.4545 26.892C82.4545 27.028 82.4345 27.168 82.3945 27.312C82.3625 27.448 82.3065 27.58 82.2265 27.708C82.1465 27.836 82.0465 27.952 81.9265 28.056C81.8145 28.152 81.6785 28.228 81.5185 28.284V28.332C81.9425 28.428 82.2425 28.6 82.4185 28.848C82.5945 29.088 82.6825 29.412 82.6825 29.82C82.6825 30.076 82.6305 30.316 82.5265 30.54C82.4225 30.756 82.2625 30.944 82.0465 31.104C81.8385 31.264 81.5745 31.392 81.2545 31.488C80.9345 31.584 80.5545 31.632 80.1145 31.632C79.6745 31.632 79.2905 31.588 78.9625 31.5C78.6425 31.404 78.3745 31.296 78.1585 31.176L78.4945 29.964C78.6785 30.068 78.8985 30.152 79.1545 30.216C79.4185 30.28 79.7105 30.312 80.0305 30.312C80.7585 30.312 81.1225 30.08 81.1225 29.616C81.1225 29.408 81.0265 29.256 80.8345 29.16C80.6505 29.064 80.3025 29.016 79.7905 29.016H79.2025ZM87.3702 28.764L87.4302 27.912H87.3942L86.8782 28.788L84.7422 31.5H83.7582V25.5H85.3182V28.356L85.2462 29.172H85.2942L85.7862 28.32L87.9462 25.5H88.9302V31.5H87.3702V28.764ZM93.8133 29.136H91.8573V31.5H90.2973V25.5H91.8573V27.756H93.8133V25.5H95.3733V31.5H93.8133V29.136ZM101.758 29.016H101.338V31.5H99.7778V25.5H101.338V28.056L101.71 27.888L103.114 25.5H104.782L103.33 27.78L102.718 28.236L103.39 28.704L105.01 31.5H103.222L101.758 29.016ZM105.649 25.5H106.789L106.969 26.22H107.017C107.225 25.916 107.469 25.692 107.749 25.548C108.037 25.404 108.385 25.332 108.793 25.332C109.545 25.332 110.109 25.572 110.485 26.052C110.861 26.524 111.049 27.288 111.049 28.344C111.049 28.856 110.989 29.32 110.869 29.736C110.749 30.144 110.569 30.492 110.329 30.78C110.097 31.068 109.809 31.288 109.465 31.44C109.129 31.592 108.741 31.668 108.301 31.668C108.053 31.668 107.849 31.648 107.689 31.608C107.529 31.576 107.369 31.52 107.209 31.44V33.9H105.649V25.5ZM108.325 26.652C108.021 26.652 107.781 26.728 107.605 26.88C107.437 27.032 107.305 27.26 107.209 27.564V30.06C107.321 30.148 107.441 30.22 107.569 30.276C107.705 30.324 107.881 30.348 108.097 30.348C108.545 30.348 108.881 30.192 109.105 29.88C109.329 29.56 109.441 29.036 109.441 28.308C109.441 27.78 109.353 27.372 109.177 27.084C109.001 26.796 108.717 26.652 108.325 26.652ZM116.929 30.984C116.689 31.176 116.361 31.34 115.945 31.476C115.537 31.604 115.101 31.668 114.637 31.668C113.669 31.668 112.961 31.388 112.513 30.828C112.065 30.26 111.841 29.484 111.841 28.5C111.841 27.444 112.093 26.652 112.597 26.124C113.101 25.596 113.809 25.332 114.721 25.332C115.025 25.332 115.321 25.372 115.609 25.452C115.897 25.532 116.153 25.664 116.377 25.848C116.601 26.032 116.781 26.28 116.917 26.592C117.053 26.904 117.121 27.292 117.121 27.756C117.121 27.924 117.109 28.104 117.085 28.296C117.069 28.488 117.041 28.688 117.001 28.896H113.401C113.425 29.4 113.553 29.78 113.785 30.036C114.025 30.292 114.409 30.42 114.937 30.42C115.265 30.42 115.557 30.372 115.813 30.276C116.077 30.172 116.277 30.068 116.413 29.964L116.929 30.984ZM114.697 26.58C114.289 26.58 113.985 26.704 113.785 26.952C113.593 27.192 113.477 27.516 113.437 27.924H115.669C115.701 27.492 115.633 27.16 115.465 26.928C115.305 26.696 115.049 26.58 114.697 26.58ZM121.679 26.88H119.783V31.5H118.223V25.5H123.239V31.5H121.679V26.88ZM129.41 30.984C129.17 31.176 128.842 31.34 128.426 31.476C128.018 31.604 127.582 31.668 127.118 31.668C126.15 31.668 125.442 31.388 124.994 30.828C124.546 30.26 124.322 29.484 124.322 28.5C124.322 27.444 124.574 26.652 125.078 26.124C125.582 25.596 126.29 25.332 127.202 25.332C127.506 25.332 127.802 25.372 128.09 25.452C128.378 25.532 128.634 25.664 128.858 25.848C129.082 26.032 129.262 26.28 129.398 26.592C129.534 26.904 129.602 27.292 129.602 27.756C129.602 27.924 129.59 28.104 129.566 28.296C129.55 28.488 129.522 28.688 129.482 28.896H125.882C125.906 29.4 126.034 29.78 126.266 30.036C126.506 30.292 126.89 30.42 127.418 30.42C127.746 30.42 128.038 30.372 128.294 30.276C128.558 30.172 128.758 30.068 128.894 29.964L129.41 30.984ZM127.178 26.58C126.77 26.58 126.466 26.704 126.266 26.952C126.074 27.192 125.958 27.516 125.918 27.924H128.15C128.182 27.492 128.114 27.16 127.946 26.928C127.786 26.696 127.53 26.58 127.178 26.58ZM132.853 29.064L131.629 31.5H129.877L131.449 28.752L131.857 28.392L131.245 27.936L130.009 25.5H131.677L132.793 27.936H133.309V25.5H134.797V28.056L135.253 27.888L136.381 25.5H138.037L136.729 27.936L136.261 28.32L136.873 28.8L138.325 31.5H136.537L135.313 29.016H134.797V31.5H133.309V28.896L132.853 29.064ZM138.918 25.848C139.238 25.704 139.618 25.592 140.058 25.512C140.498 25.424 140.958 25.38 141.438 25.38C141.854 25.38 142.202 25.432 142.482 25.536C142.762 25.632 142.982 25.772 143.142 25.956C143.31 26.14 143.426 26.36 143.49 26.616C143.562 26.872 143.598 27.16 143.598 27.48C143.598 27.832 143.586 28.188 143.562 28.548C143.538 28.9 143.522 29.248 143.514 29.592C143.514 29.936 143.526 30.272 143.55 30.6C143.574 30.92 143.634 31.224 143.73 31.512H142.458L142.206 30.684H142.146C141.986 30.932 141.762 31.148 141.474 31.332C141.194 31.508 140.83 31.596 140.382 31.596C140.102 31.596 139.85 31.556 139.626 31.476C139.402 31.388 139.21 31.268 139.05 31.116C138.89 30.956 138.766 30.772 138.678 30.564C138.59 30.348 138.546 30.108 138.546 29.844C138.546 29.476 138.626 29.168 138.786 28.92C138.954 28.664 139.19 28.46 139.494 28.308C139.806 28.148 140.174 28.04 140.598 27.984C141.03 27.92 141.51 27.9 142.038 27.924C142.094 27.476 142.062 27.156 141.942 26.964C141.822 26.764 141.554 26.664 141.138 26.664C140.826 26.664 140.494 26.696 140.142 26.76C139.798 26.824 139.514 26.908 139.29 27.012L138.918 25.848ZM140.898 30.312C141.21 30.312 141.458 30.244 141.642 30.108C141.826 29.964 141.962 29.812 142.05 29.652V28.872C141.802 28.848 141.562 28.844 141.33 28.86C141.106 28.876 140.906 28.912 140.73 28.968C140.554 29.024 140.414 29.104 140.31 29.208C140.206 29.312 140.154 29.444 140.154 29.604C140.154 29.828 140.218 30.004 140.346 30.132C140.482 30.252 140.666 30.312 140.898 30.312Z" fill="#212121"/>
</svg>
