<svg width="311" height="36" viewBox="0 0 311 36" fill="none" xmlns="http://www.w3.org/2000/svg">
<path d="M113.344 10.1C113.344 7.3 113.936 5.156 115.12 3.668C116.304 2.164 117.992 1.412 120.184 1.412C121.368 1.412 122.392 1.62 123.256 2.036C124.12 2.452 124.832 3.044 125.392 3.812C125.968 4.564 126.392 5.476 126.664 6.548C126.936 7.604 127.072 8.788 127.072 10.1C127.072 12.9 126.472 15.052 125.272 16.556C124.088 18.044 122.392 18.788 120.184 18.788C119.016 18.788 118 18.58 117.136 18.164C116.288 17.748 115.576 17.164 115 16.412C114.44 15.644 114.024 14.732 113.752 13.676C113.48 12.604 113.344 11.412 113.344 10.1ZM115.456 10.1C115.456 11.028 115.544 11.908 115.72 12.74C115.912 13.572 116.2 14.308 116.584 14.948C116.968 15.572 117.456 16.076 118.048 16.46C118.656 16.828 119.368 17.012 120.184 17.012C121.672 17.012 122.84 16.452 123.688 15.332C124.536 14.196 124.96 12.452 124.96 10.1C124.96 9.188 124.864 8.316 124.672 7.484C124.496 6.636 124.208 5.9 123.808 5.276C123.424 4.636 122.928 4.132 122.32 3.764C121.728 3.38 121.016 3.188 120.184 3.188C118.712 3.188 117.552 3.756 116.704 4.892C115.872 6.012 115.456 7.748 115.456 10.1ZM132.606 1.868C133.214 1.756 133.91 1.668 134.694 1.604C135.494 1.54 136.222 1.508 136.878 1.508C137.614 1.508 138.31 1.588 138.966 1.748C139.638 1.908 140.222 2.172 140.718 2.54C141.23 2.908 141.638 3.388 141.942 3.98C142.246 4.572 142.398 5.292 142.398 6.14C142.398 7.452 142.038 8.516 141.318 9.332C140.598 10.148 139.686 10.692 138.582 10.964L139.734 11.852L143.91 18.5H141.582L136.95 11.252L134.598 10.892V18.5H132.606V1.868ZM136.926 3.236C136.718 3.236 136.502 3.236 136.278 3.236C136.054 3.236 135.838 3.244 135.63 3.26C135.422 3.276 135.222 3.292 135.03 3.308C134.854 3.324 134.71 3.348 134.598 3.38V9.572H136.47C137.574 9.572 138.486 9.3 139.206 8.756C139.926 8.212 140.286 7.364 140.286 6.212C140.286 5.348 139.99 4.636 139.398 4.076C138.806 3.516 137.982 3.236 136.926 3.236ZM149.496 1.7H151.488V18.5H149.496V1.7ZM163.848 10.124H169.488V17.516C169.232 17.708 168.92 17.884 168.552 18.044C168.2 18.204 167.816 18.34 167.4 18.452C167 18.564 166.576 18.644 166.128 18.692C165.696 18.756 165.272 18.788 164.856 18.788C163.784 18.788 162.8 18.62 161.904 18.284C161.008 17.932 160.232 17.404 159.576 16.7C158.92 15.98 158.408 15.076 158.04 13.988C157.672 12.884 157.488 11.588 157.488 10.1C157.488 8.548 157.712 7.22 158.16 6.116C158.608 5.012 159.192 4.116 159.912 3.428C160.632 2.724 161.44 2.212 162.336 1.892C163.232 1.572 164.128 1.412 165.024 1.412C165.984 1.412 166.776 1.468 167.4 1.58C168.024 1.676 168.552 1.812 168.984 1.988L168.48 3.74C167.712 3.372 166.616 3.188 165.192 3.188C164.52 3.188 163.848 3.308 163.176 3.548C162.52 3.772 161.928 4.156 161.4 4.7C160.872 5.244 160.44 5.956 160.104 6.836C159.768 7.716 159.6 8.804 159.6 10.1C159.6 11.284 159.736 12.308 160.008 13.172C160.28 14.036 160.656 14.756 161.136 15.332C161.632 15.892 162.224 16.316 162.912 16.604C163.6 16.876 164.352 17.012 165.168 17.012C166.192 17.012 167.064 16.812 167.784 16.412V11.732L163.848 11.252V10.124ZM175.495 1.7H177.487V18.5H175.495V1.7ZM187.208 7.508L185.912 5.084H185.816L186.056 7.508V18.5H184.184V1.436H185.24L193.28 12.644L194.528 14.948H194.648L194.384 12.644V1.7H196.256V18.764H195.2L187.208 7.508Z" fill="#212121"/>
<path d="M88.616 26.844L88.712 25.752H88.652L88.088 26.88L84.956 31.5H83.72V23.1H85.364V27.672L85.244 28.8H85.316L85.904 27.636L89.036 23.1H90.26V31.5H88.616V26.844ZM95.1922 29.136H93.2362V31.5H91.6762V25.5H93.2362V27.756H95.1922V25.5H96.7522V31.5H95.1922V29.136ZM102.442 26.88H100.75V31.5H99.1415V26.88H97.4495V25.5H102.442V26.88ZM107.843 30.984C107.603 31.176 107.275 31.34 106.859 31.476C106.451 31.604 106.015 31.668 105.551 31.668C104.583 31.668 103.875 31.388 103.427 30.828C102.979 30.26 102.755 29.484 102.755 28.5C102.755 27.444 103.007 26.652 103.511 26.124C104.015 25.596 104.723 25.332 105.635 25.332C105.939 25.332 106.235 25.372 106.523 25.452C106.811 25.532 107.067 25.664 107.291 25.848C107.515 26.032 107.695 26.28 107.831 26.592C107.967 26.904 108.035 27.292 108.035 27.756C108.035 27.924 108.023 28.104 107.999 28.296C107.983 28.488 107.955 28.688 107.915 28.896H104.315C104.339 29.4 104.467 29.78 104.699 30.036C104.939 30.292 105.323 30.42 105.851 30.42C106.179 30.42 106.471 30.372 106.727 30.276C106.991 30.172 107.191 30.068 107.327 29.964L107.843 30.984ZM105.611 26.58C105.203 26.58 104.899 26.704 104.699 26.952C104.507 27.192 104.391 27.516 104.351 27.924H106.583C106.615 27.492 106.547 27.16 106.379 26.928C106.219 26.696 105.963 26.58 105.611 26.58ZM109.137 25.5H110.277L110.457 26.22H110.505C110.713 25.916 110.957 25.692 111.237 25.548C111.525 25.404 111.873 25.332 112.281 25.332C113.033 25.332 113.597 25.572 113.973 26.052C114.349 26.524 114.537 27.288 114.537 28.344C114.537 28.856 114.477 29.32 114.357 29.736C114.237 30.144 114.057 30.492 113.817 30.78C113.585 31.068 113.297 31.288 112.953 31.44C112.617 31.592 112.229 31.668 111.789 31.668C111.541 31.668 111.337 31.648 111.177 31.608C111.017 31.576 110.857 31.52 110.697 31.44V33.9H109.137V25.5ZM111.813 26.652C111.509 26.652 111.269 26.728 111.093 26.88C110.925 27.032 110.793 27.26 110.697 27.564V30.06C110.809 30.148 110.929 30.22 111.057 30.276C111.193 30.324 111.369 30.348 111.585 30.348C112.033 30.348 112.369 30.192 112.593 29.88C112.817 29.56 112.929 29.036 112.929 28.308C112.929 27.78 112.841 27.372 112.665 27.084C112.489 26.796 112.205 26.652 111.813 26.652ZM119.134 29.136H117.178V31.5H115.618V25.5H117.178V27.756H119.134V25.5H120.694V31.5H119.134V29.136ZM126.863 30.984C126.623 31.176 126.295 31.34 125.879 31.476C125.471 31.604 125.035 31.668 124.571 31.668C123.603 31.668 122.895 31.388 122.447 30.828C121.999 30.26 121.775 29.484 121.775 28.5C121.775 27.444 122.027 26.652 122.531 26.124C123.035 25.596 123.743 25.332 124.655 25.332C124.959 25.332 125.255 25.372 125.543 25.452C125.831 25.532 126.087 25.664 126.311 25.848C126.535 26.032 126.715 26.28 126.851 26.592C126.987 26.904 127.055 27.292 127.055 27.756C127.055 27.924 127.043 28.104 127.019 28.296C127.003 28.488 126.975 28.688 126.935 28.896H123.335C123.359 29.4 123.487 29.78 123.719 30.036C123.959 30.292 124.343 30.42 124.871 30.42C125.199 30.42 125.491 30.372 125.747 30.276C126.011 30.172 126.211 30.068 126.347 29.964L126.863 30.984ZM124.631 26.58C124.223 26.58 123.919 26.704 123.719 26.952C123.527 27.192 123.411 27.516 123.371 27.924H125.603C125.635 27.492 125.567 27.16 125.399 26.928C125.239 26.696 124.983 26.58 124.631 26.58ZM132.477 26.88H130.785V31.5H129.177V26.88H127.485V25.5H132.477V26.88ZM132.808 27.36H135.82V28.74H132.808V27.36ZM142.304 28.752L142.4 27.504H142.34L141.86 28.536L140.732 30.396H140.168L138.932 28.536L138.476 27.504H138.404L138.56 28.74V31.5H137.168V25.5H138.788L140.168 27.756L140.504 28.512H140.552L140.9 27.732L142.172 25.5H143.804V31.5H142.304V28.752ZM145.125 25.848C145.445 25.704 145.825 25.592 146.265 25.512C146.705 25.424 147.165 25.38 147.645 25.38C148.061 25.38 148.409 25.432 148.689 25.536C148.969 25.632 149.189 25.772 149.349 25.956C149.517 26.14 149.633 26.36 149.697 26.616C149.769 26.872 149.805 27.16 149.805 27.48C149.805 27.832 149.793 28.188 149.769 28.548C149.745 28.9 149.729 29.248 149.721 29.592C149.721 29.936 149.733 30.272 149.757 30.6C149.781 30.92 149.841 31.224 149.937 31.512H148.665L148.413 30.684H148.353C148.193 30.932 147.969 31.148 147.681 31.332C147.401 31.508 147.037 31.596 146.589 31.596C146.309 31.596 146.057 31.556 145.833 31.476C145.609 31.388 145.417 31.268 145.257 31.116C145.097 30.956 144.973 30.772 144.885 30.564C144.797 30.348 144.753 30.108 144.753 29.844C144.753 29.476 144.833 29.168 144.993 28.92C145.161 28.664 145.397 28.46 145.701 28.308C146.013 28.148 146.381 28.04 146.805 27.984C147.237 27.92 147.717 27.9 148.245 27.924C148.301 27.476 148.269 27.156 148.149 26.964C148.029 26.764 147.761 26.664 147.345 26.664C147.033 26.664 146.701 26.696 146.349 26.76C146.005 26.824 145.721 26.908 145.497 27.012L145.125 25.848ZM147.105 30.312C147.417 30.312 147.665 30.244 147.849 30.108C148.033 29.964 148.169 29.812 148.257 29.652V28.872C148.009 28.848 147.769 28.844 147.537 28.86C147.313 28.876 147.113 28.912 146.937 28.968C146.761 29.024 146.621 29.104 146.517 29.208C146.413 29.312 146.361 29.444 146.361 29.604C146.361 29.828 146.425 30.004 146.553 30.132C146.689 30.252 146.873 30.312 147.105 30.312ZM154.99 26.88H152.722V31.5H151.114V25.5H154.99V26.88ZM155.589 25.848C155.909 25.704 156.289 25.592 156.729 25.512C157.169 25.424 157.629 25.38 158.109 25.38C158.525 25.38 158.873 25.432 159.153 25.536C159.433 25.632 159.653 25.772 159.813 25.956C159.981 26.14 160.097 26.36 160.161 26.616C160.233 26.872 160.269 27.16 160.269 27.48C160.269 27.832 160.257 28.188 160.233 28.548C160.209 28.9 160.193 29.248 160.185 29.592C160.185 29.936 160.197 30.272 160.221 30.6C160.245 30.92 160.305 31.224 160.401 31.512H159.129L158.877 30.684H158.817C158.657 30.932 158.433 31.148 158.145 31.332C157.865 31.508 157.501 31.596 157.053 31.596C156.773 31.596 156.521 31.556 156.297 31.476C156.073 31.388 155.881 31.268 155.721 31.116C155.561 30.956 155.437 30.772 155.349 30.564C155.261 30.348 155.217 30.108 155.217 29.844C155.217 29.476 155.297 29.168 155.457 28.92C155.625 28.664 155.861 28.46 156.165 28.308C156.477 28.148 156.845 28.04 157.269 27.984C157.701 27.92 158.181 27.9 158.709 27.924C158.765 27.476 158.733 27.156 158.613 26.964C158.493 26.764 158.225 26.664 157.809 26.664C157.497 26.664 157.165 26.696 156.813 26.76C156.469 26.824 156.185 26.908 155.961 27.012L155.589 25.848ZM157.569 30.312C157.881 30.312 158.129 30.244 158.313 30.108C158.497 29.964 158.633 29.812 158.721 29.652V28.872C158.473 28.848 158.233 28.844 158.001 28.86C157.777 28.876 157.577 28.912 157.401 28.968C157.225 29.024 157.085 29.104 156.981 29.208C156.877 29.312 156.825 29.444 156.825 29.604C156.825 29.828 156.889 30.004 157.017 30.132C157.153 30.252 157.337 30.312 157.569 30.312ZM162.203 29.016V27.924H162.935C163.215 27.924 163.443 27.868 163.619 27.756C163.803 27.644 163.895 27.496 163.895 27.312C163.895 27.096 163.815 26.944 163.655 26.856C163.495 26.76 163.251 26.712 162.923 26.712C162.611 26.712 162.335 26.752 162.095 26.832C161.855 26.912 161.663 26.996 161.519 27.084L161.183 25.896C161.423 25.76 161.739 25.644 162.131 25.548C162.531 25.444 162.955 25.392 163.403 25.392C164.091 25.392 164.603 25.52 164.939 25.776C165.283 26.032 165.455 26.404 165.455 26.892C165.455 27.028 165.435 27.168 165.395 27.312C165.363 27.448 165.307 27.58 165.227 27.708C165.147 27.836 165.047 27.952 164.927 28.056C164.815 28.152 164.679 28.228 164.519 28.284V28.332C164.943 28.428 165.243 28.6 165.419 28.848C165.595 29.088 165.683 29.412 165.683 29.82C165.683 30.076 165.631 30.316 165.527 30.54C165.423 30.756 165.263 30.944 165.047 31.104C164.839 31.264 164.575 31.392 164.255 31.488C163.935 31.584 163.555 31.632 163.115 31.632C162.675 31.632 162.291 31.588 161.963 31.5C161.643 31.404 161.375 31.296 161.159 31.176L161.495 29.964C161.679 30.068 161.899 30.152 162.155 30.216C162.419 30.28 162.711 30.312 163.031 30.312C163.759 30.312 164.123 30.08 164.123 29.616C164.123 29.408 164.027 29.256 163.835 29.16C163.651 29.064 163.303 29.016 162.791 29.016H162.203ZM170.37 28.764L170.43 27.912H170.394L169.878 28.788L167.742 31.5H166.758V25.5H168.318V28.356L168.246 29.172H168.294L168.786 28.32L170.946 25.5H171.93V31.5H170.37V28.764ZM176.813 29.136H174.857V31.5H173.297V25.5H174.857V27.756H176.813V25.5H178.373V31.5H176.813V29.136ZM184.758 29.016H184.338V31.5H182.778V25.5H184.338V28.056L184.71 27.888L186.114 25.5H187.782L186.33 27.78L185.718 28.236L186.39 28.704L188.01 31.5H186.222L184.758 29.016ZM188.649 25.5H189.789L189.969 26.22H190.017C190.225 25.916 190.469 25.692 190.749 25.548C191.037 25.404 191.385 25.332 191.793 25.332C192.545 25.332 193.109 25.572 193.485 26.052C193.861 26.524 194.049 27.288 194.049 28.344C194.049 28.856 193.989 29.32 193.869 29.736C193.749 30.144 193.569 30.492 193.329 30.78C193.097 31.068 192.809 31.288 192.465 31.44C192.129 31.592 191.741 31.668 191.301 31.668C191.053 31.668 190.849 31.648 190.689 31.608C190.529 31.576 190.369 31.52 190.209 31.44V33.9H188.649V25.5ZM191.325 26.652C191.021 26.652 190.781 26.728 190.605 26.88C190.437 27.032 190.305 27.26 190.209 27.564V30.06C190.321 30.148 190.441 30.22 190.569 30.276C190.705 30.324 190.881 30.348 191.097 30.348C191.545 30.348 191.881 30.192 192.105 29.88C192.329 29.56 192.441 29.036 192.441 28.308C192.441 27.78 192.353 27.372 192.177 27.084C192.001 26.796 191.717 26.652 191.325 26.652ZM199.929 30.984C199.689 31.176 199.361 31.34 198.945 31.476C198.537 31.604 198.101 31.668 197.637 31.668C196.669 31.668 195.961 31.388 195.513 30.828C195.065 30.26 194.841 29.484 194.841 28.5C194.841 27.444 195.093 26.652 195.597 26.124C196.101 25.596 196.809 25.332 197.721 25.332C198.025 25.332 198.321 25.372 198.609 25.452C198.897 25.532 199.153 25.664 199.377 25.848C199.601 26.032 199.781 26.28 199.917 26.592C200.053 26.904 200.121 27.292 200.121 27.756C200.121 27.924 200.109 28.104 200.085 28.296C200.069 28.488 200.041 28.688 200.001 28.896H196.401C196.425 29.4 196.553 29.78 196.785 30.036C197.025 30.292 197.409 30.42 197.937 30.42C198.265 30.42 198.557 30.372 198.813 30.276C199.077 30.172 199.277 30.068 199.413 29.964L199.929 30.984ZM197.697 26.58C197.289 26.58 196.985 26.704 196.785 26.952C196.593 27.192 196.477 27.516 196.437 27.924H198.669C198.701 27.492 198.633 27.16 198.465 26.928C198.305 26.696 198.049 26.58 197.697 26.58ZM204.679 26.88H202.783V31.5H201.223V25.5H206.239V31.5H204.679V26.88ZM212.41 30.984C212.17 31.176 211.842 31.34 211.426 31.476C211.018 31.604 210.582 31.668 210.118 31.668C209.15 31.668 208.442 31.388 207.994 30.828C207.546 30.26 207.322 29.484 207.322 28.5C207.322 27.444 207.574 26.652 208.078 26.124C208.582 25.596 209.29 25.332 210.202 25.332C210.506 25.332 210.802 25.372 211.09 25.452C211.378 25.532 211.634 25.664 211.858 25.848C212.082 26.032 212.262 26.28 212.398 26.592C212.534 26.904 212.602 27.292 212.602 27.756C212.602 27.924 212.59 28.104 212.566 28.296C212.55 28.488 212.522 28.688 212.482 28.896H208.882C208.906 29.4 209.034 29.78 209.266 30.036C209.506 30.292 209.89 30.42 210.418 30.42C210.746 30.42 211.038 30.372 211.294 30.276C211.558 30.172 211.758 30.068 211.894 29.964L212.41 30.984ZM210.178 26.58C209.77 26.58 209.466 26.704 209.266 26.952C209.074 27.192 208.958 27.516 208.918 27.924H211.15C211.182 27.492 211.114 27.16 210.946 26.928C210.786 26.696 210.53 26.58 210.178 26.58ZM215.853 29.064L214.629 31.5H212.877L214.449 28.752L214.857 28.392L214.245 27.936L213.009 25.5H214.677L215.793 27.936H216.309V25.5H217.797V28.056L218.253 27.888L219.381 25.5H221.037L219.729 27.936L219.261 28.32L219.873 28.8L221.325 31.5H219.537L218.313 29.016H217.797V31.5H216.309V28.896L215.853 29.064ZM221.918 25.848C222.238 25.704 222.618 25.592 223.058 25.512C223.498 25.424 223.958 25.38 224.438 25.38C224.854 25.38 225.202 25.432 225.482 25.536C225.762 25.632 225.982 25.772 226.142 25.956C226.31 26.14 226.426 26.36 226.49 26.616C226.562 26.872 226.598 27.16 226.598 27.48C226.598 27.832 226.586 28.188 226.562 28.548C226.538 28.9 226.522 29.248 226.514 29.592C226.514 29.936 226.526 30.272 226.55 30.6C226.574 30.92 226.634 31.224 226.73 31.512H225.458L225.206 30.684H225.146C224.986 30.932 224.762 31.148 224.474 31.332C224.194 31.508 223.83 31.596 223.382 31.596C223.102 31.596 222.85 31.556 222.626 31.476C222.402 31.388 222.21 31.268 222.05 31.116C221.89 30.956 221.766 30.772 221.678 30.564C221.59 30.348 221.546 30.108 221.546 29.844C221.546 29.476 221.626 29.168 221.786 28.92C221.954 28.664 222.19 28.46 222.494 28.308C222.806 28.148 223.174 28.04 223.598 27.984C224.03 27.92 224.51 27.9 225.038 27.924C225.094 27.476 225.062 27.156 224.942 26.964C224.822 26.764 224.554 26.664 224.138 26.664C223.826 26.664 223.494 26.696 223.142 26.76C222.798 26.824 222.514 26.908 222.29 27.012L221.918 25.848ZM223.898 30.312C224.21 30.312 224.458 30.244 224.642 30.108C224.826 29.964 224.962 29.812 225.05 29.652V28.872C224.802 28.848 224.562 28.844 224.33 28.86C224.106 28.876 223.906 28.912 223.73 28.968C223.554 29.024 223.414 29.104 223.31 29.208C223.206 29.312 223.154 29.444 223.154 29.604C223.154 29.828 223.218 30.004 223.346 30.132C223.482 30.252 223.666 30.312 223.898 30.312Z" fill="#212121"/>
</svg>
